<?xml version="1.0" standalone="no"?>
<!DOCTYPE svg PUBLIC "-//W3C//DTD SVG 1.1//EN" "http://www.w3.org/Graphics/SVG/1.1/DTD/svg11.dtd" >
<svg xmlns="http://www.w3.org/2000/svg" xmlns:xlink="http://www.w3.org/1999/xlink" version="1.1">
<metadata>
Created by FontForge 20161116 at Tue Oct  2 11:25:53 2012
 By Jimmy Wärting
Copyright (c) 2012 by Manuel Eduardo Corradine - Sergio Andre's Rami'rez. All rights reserved.
</metadata>
<defs>
<font id="Neuron-Black" horiz-adv-x="470" >
  <font-face 
    font-family="Neuron"
    font-weight="900"
    font-stretch="normal"
    units-per-em="1000"
    panose-1="4 0 0 0 3 0 0 0 0 0"
    ascent="800"
    descent="-200"
    x-height="495"
    cap-height="630"
    bbox="-64 -253 926 922"
    underline-thickness="39"
    underline-position="-78"
    stemh="187"
    stemv="170"
    unicode-range="U+000D-2212"
  />
<missing-glyph horiz-adv-x="459" 
 />
    <glyph glyph-name=".notdef" horiz-adv-x="459" 
 />
    <glyph glyph-name="CR" unicode="&#xd;" horiz-adv-x="424" 
 />
    <glyph glyph-name="space" unicode=" " horiz-adv-x="220" 
 />
    <glyph glyph-name="exclam" unicode="!" horiz-adv-x="231" 
d="M115 184c-64 0 -75 5 -75 45c0 75 -10 250 -10 356c0 40 21 45 85 45s85 -5 85 -45c0 -106 -10 -281 -10 -356c0 -40 -11 -45 -75 -45zM116 0c-73 0 -85 10 -85 61v25c0 51 12 61 85 61s85 -10 85 -61v-25c0 -51 -12 -61 -85 -61z" />
    <glyph glyph-name="quotedbl" unicode="&#x22;" horiz-adv-x="404" 
d="M105 345c-47 0 -60 8 -64 35c-10 67 -21 164 -21 200c0 40 12 50 85 50s85 -10 85 -50c0 -36 -11 -133 -21 -200c-4 -27 -17 -35 -64 -35zM299 345c-47 0 -60 8 -64 35c-10 67 -21 164 -21 200c0 40 12 50 85 50s85 -10 85 -50c0 -36 -11 -133 -21 -200
c-4 -27 -17 -35 -64 -35z" />
    <glyph glyph-name="numbersign" unicode="#" 
d="M330 40c-49 0 -65 5 -65 45v70h-60v-70c0 -40 -16 -45 -65 -45s-65 5 -65 45v70h-15c-40 0 -45 6 -45 55s5 55 45 55h15v107h-15c-40 0 -45 6 -45 55s5 55 45 55h15v73c0 40 16 45 65 45s65 -5 65 -45v-73h60v73c0 40 16 45 65 45s65 -5 65 -45v-73h15c40 0 45 -6 45 -55
s-5 -55 -45 -55h-15v-107h15c40 0 45 -6 45 -55s-5 -55 -45 -55h-15v-70c0 -40 -16 -45 -65 -45zM205 372v-107h60v107h-60z" />
    <glyph glyph-name="dollar" unicode="$" 
d="M250 716c64 0 75 -5 75 -45v-42c27 -3 51 -8 71 -13c16 -4 24 -12 24 -76c0 -52 -11 -66 -26 -66c-18 0 -50 11 -119 11c-38 0 -71 -3 -71 -34c0 -24 12 -32 37 -43l89 -37c67 -28 107 -64 107 -173c0 -111 -52 -170 -132 -195v-58c0 -40 -11 -45 -75 -45s-75 5 -75 45
v47c-36 3 -68 8 -91 15c-24 7 -32 17 -32 78c0 55 8 66 25 66c23 0 47 -11 120 -11c58 0 98 7 98 50c0 26 -5 40 -45 59l-94 38c-52 21 -95 67 -95 166c0 112 61 161 134 176v42c0 40 11 45 75 45z" />
    <glyph glyph-name="percent" unicode="%" horiz-adv-x="572" 
d="M157 317c-108 0 -137 27 -137 158c0 133 39 155 137 155c99 0 138 -22 138 -155v-18l82 143c12 22 26 30 89 30c40 0 58 -6 58 -21c0 -10 -2 -17 -18 -45l-147 -255c16 3 34 4 55 4c99 0 138 -22 138 -155c0 -131 -29 -158 -138 -158c-108 0 -137 27 -137 158v7l-78 -135
c-12 -22 -26 -30 -89 -30c-40 0 -58 6 -58 21c0 10 2 17 18 45l147 255c-17 -3 -37 -4 -60 -4zM157 411c25 0 29 9 29 62c0 54 -3 62 -29 62c-25 0 -28 -8 -28 -62c0 -53 4 -62 28 -62zM414 94c25 0 29 9 29 62c0 54 -3 62 -29 62c-25 0 -28 -8 -28 -62c0 -53 4 -62 28 -62z
" />
    <glyph glyph-name="ampersand" unicode="&#x26;" horiz-adv-x="521" 
d="M474 253h-22v-118c0 -120 -82 -140 -205 -140c-143 0 -225 29 -225 170c0 103 45 146 131 149c-71 8 -109 82 -109 163c0 130 73 158 177 158c68 0 133 -8 170 -18c20 -5 28 -11 28 -71c0 -52 -11 -66 -28 -66c-20 0 -78 10 -127 10c-38 0 -47 -10 -47 -54
c0 -41 10 -65 61 -65h32v25c0 40 7 45 66 45s66 -5 66 -45v-25h32c35 0 40 -13 40 -59s-5 -59 -40 -59zM257 135c48 0 53 20 53 48v70h-40c-55 0 -76 -12 -76 -62c0 -43 11 -56 63 -56z" />
    <glyph glyph-name="quotesingle" unicode="'" horiz-adv-x="210" 
d="M105 345c-47 0 -60 8 -64 35c-10 67 -21 164 -21 200c0 40 12 50 85 50s85 -10 85 -50c0 -36 -11 -133 -21 -200c-4 -27 -17 -35 -64 -35z" />
    <glyph glyph-name="parenleft" unicode="(" horiz-adv-x="246" 
d="M20 315c0 133 31 252 66 319c18 35 35 46 94 46c41 0 56 -13 56 -36c0 -35 -42 -123 -42 -329c0 -207 42 -294 42 -329c0 -23 -15 -36 -56 -36c-59 0 -76 11 -94 46c-35 67 -66 186 -66 319z" />
    <glyph glyph-name="parenright" unicode=")" horiz-adv-x="246" 
d="M226 315c0 -133 -31 -252 -66 -319c-18 -35 -35 -46 -94 -46c-41 0 -56 13 -56 36c0 35 42 123 42 329c0 207 -42 294 -42 329c0 23 15 36 56 36c59 0 76 -11 94 -46c35 -67 66 -186 66 -319z" />
    <glyph glyph-name="asterisk" unicode="*" horiz-adv-x="408" 
d="M204 635c53 0 62 -8 62 -31v-50c0 -8 -1 -14 -2 -19c4 3 10 6 17 8l48 15c21 7 32 1 48 -49c17 -51 12 -62 -10 -69l-48 -15c-7 -2 -12 -4 -17 -4c4 -3 9 -8 12 -13l29 -41c13 -18 11 -30 -32 -61s-55 -31 -69 -12l-29 41c-4 5 -8 10 -10 15c-2 -5 -4 -10 -8 -15l-29 -41
c-14 -19 -26 -20 -69 12c-43 30 -45 43 -32 61l29 41c4 5 8 9 12 12l-17 5l-48 15c-22 7 -27 18 -10 69c16 50 27 56 48 49l48 -15c7 -2 12 -5 17 -8c-2 5 -2 11 -2 19v50c0 23 9 31 62 31z" />
    <glyph glyph-name="plus" unicode="+" 
d="M235 83c-60 0 -73 5 -73 40v82h-67c-35 0 -40 3 -40 63s5 63 40 63h67v82c0 35 13 40 73 40s73 -5 73 -40v-82h67c35 0 40 -3 40 -63s-5 -63 -40 -63h-67v-82c0 -35 -13 -40 -73 -40z" />
    <glyph glyph-name="comma" unicode="," horiz-adv-x="207" 
d="M112 167c73 0 85 -10 85 -61v-27c0 -41 -9 -74 -24 -112l-13 -32c-23 -56 -35 -64 -96 -64c-41 0 -49 11 -49 29c0 24 12 86 12 127v79c0 51 12 61 85 61z" />
    <glyph glyph-name="hyphen" unicode="-" horiz-adv-x="340" 
d="M20 247c0 60 5 73 40 73h220c35 0 40 -13 40 -73s-5 -73 -40 -73h-220c-35 0 -40 13 -40 73z" />
    <glyph glyph-name="period" unicode="." horiz-adv-x="211" 
d="M107 0c-73 0 -85 10 -85 61v45c0 51 12 61 85 61s85 -10 85 -61v-45c0 -51 -12 -61 -85 -61z" />
    <glyph glyph-name="slash" unicode="/" horiz-adv-x="296" 
d="M227 680c55 0 69 -14 69 -31c0 -5 -1 -19 -12 -69l-134 -591c-6 -28 -36 -39 -81 -39c-55 0 -69 14 -69 31c0 5 1 19 12 69l134 591c6 28 36 39 81 39z" />
    <glyph glyph-name="zero" unicode="0" 
d="M235 140c35 0 50 16 50 83v172c0 90 -15 95 -50 95s-50 -5 -50 -95v-172c0 -67 15 -83 50 -83zM235 -5c-130 0 -220 35 -220 210v190c0 205 70 240 220 240s220 -35 220 -240v-188c0 -177 -90 -212 -220 -212z" />
    <glyph glyph-name="one" unicode="1" 
d="M385 0h-301c-30 0 -40 14 -40 74s10 74 40 74h65v299l-47 -9c-14 -3 -25 -4 -30 -4c-12 0 -27 2 -27 71c0 68 9 80 40 89l90 25c18 7 45 11 59 11c64 0 85 -5 85 -45v-437h66c30 0 40 -14 40 -74s-10 -74 -40 -74z" />
    <glyph glyph-name="two" unicode="2" 
d="M225 148h177c30 0 40 -14 40 -74s-10 -74 -40 -74h-330c-32 0 -45 5 -45 40v55c0 75 35 124 84 177l120 129c13 15 24 32 24 56c0 27 -13 33 -51 33c-63 0 -110 -14 -139 -14c-14 0 -23 12 -23 65c0 62 8 69 30 76c34 10 113 18 185 18c85 0 170 -10 170 -153
c0 -77 -29 -115 -103 -200l-84 -85c-9 -11 -15 -21 -15 -35v-14z" />
    <glyph glyph-name="three" unicode="3" 
d="M225 -5c-61 0 -138 8 -171 17c-24 7 -32 12 -32 73c0 55 8 66 25 66c23 0 87 -11 146 -11c60 0 72 24 72 64c0 48 -31 56 -110 56c-35 0 -40 18 -40 64s5 64 40 64c70 0 97 15 97 61c0 26 -9 41 -47 41c-59 0 -121 -11 -139 -11c-15 0 -26 14 -26 66c0 64 8 67 24 71
c41 11 116 19 184 19c104 0 177 -28 177 -158c0 -81 -38 -143 -109 -151c81 -3 121 -43 121 -146c0 -141 -81 -185 -212 -185z" />
    <glyph glyph-name="four" unicode="4" 
d="M325 0c-64 0 -85 5 -85 45v78h-180c-45 0 -55 6 -55 85c0 33 4 51 25 97l127 281c19 43 54 44 138 44c89 0 115 -5 115 -45v-324h15c30 0 40 -9 40 -69s-10 -69 -40 -69h-15v-78c0 -40 -21 -45 -85 -45zM248 473l-84 -212h87l4 212h-7z" />
    <glyph glyph-name="five" unicode="5" 
d="M205 -5c-53 0 -105 8 -138 17c-24 7 -32 12 -32 73c0 55 8 66 25 66c23 0 47 -11 120 -11c67 0 85 18 85 55v35c0 28 -10 39 -43 39c-44 0 -109 -9 -135 -9c-18 0 -36 1 -36 31v299c0 35 13 40 45 40h279c30 0 40 -14 40 -74s-10 -74 -40 -74h-174v-80c6 2 48 7 78 7
c63 0 156 -5 156 -165v-69c0 -160 -110 -180 -230 -180z" />
    <glyph glyph-name="six" unicode="6" 
d="M236 -5c-119 0 -214 24 -214 242v142c0 236 124 256 227 256c49 0 104 -8 144 -19c16 -4 24 -7 24 -71c0 -52 -11 -66 -26 -66c-18 0 -50 11 -119 11c-79 0 -90 -15 -90 -114v-35c19 38 56 60 119 60c96 0 146 -26 146 -183c0 -181 -61 -223 -211 -223zM240 140
c44 0 52 19 52 65c0 47 -8 61 -56 61c-47 0 -54 -17 -54 -65c0 -46 7 -61 58 -61z" />
    <glyph glyph-name="seven" unicode="7" 
d="M171 0c-66 0 -73 19 -73 36c0 19 5 33 18 69l136 377h-191c-30 0 -40 14 -40 74s10 74 40 74h313c45 0 55 -6 55 -85c0 -32 -7 -53 -22 -97l-141 -405c-14 -39 -46 -43 -95 -43z" />
    <glyph glyph-name="eight" unicode="8" 
d="M234 -5c-178 0 -219 59 -219 189c0 93 45 134 101 152c-52 18 -87 59 -87 144c0 111 72 155 205 155s205 -44 205 -155c0 -85 -35 -126 -87 -144c57 -18 103 -58 103 -152c0 -130 -43 -189 -221 -189zM234 136c45 0 50 18 50 68c0 61 -10 67 -50 67s-50 -6 -50 -67
c0 -50 5 -68 50 -68zM234 399c34 0 39 8 39 54c0 44 -17 47 -39 47s-39 -3 -39 -47c0 -46 5 -54 39 -54z" />
    <glyph glyph-name="nine" unicode="9" 
d="M210 -5c-49 0 -104 9 -138 18c-22 6 -30 8 -30 72c0 52 11 66 26 66c18 0 50 -11 119 -11c89 0 100 18 100 117v28c-18 -36 -53 -58 -116 -58c-99 0 -149 27 -149 189c0 171 61 219 211 219c119 0 214 -25 214 -243v-138c0 -236 -124 -259 -237 -259zM232 362
c49 0 55 18 55 66c0 50 -3 67 -53 67c-54 0 -57 -21 -57 -71c0 -47 7 -62 55 -62z" />
    <glyph glyph-name="colon" unicode=":" horiz-adv-x="211" 
d="M107 328c-73 0 -85 10 -85 61v45c0 51 12 61 85 61s85 -10 85 -61v-45c0 -51 -12 -61 -85 -61zM107 0c-73 0 -85 10 -85 61v45c0 51 12 61 85 61s85 -10 85 -61v-45c0 -51 -12 -61 -85 -61z" />
    <glyph glyph-name="semicolon" unicode=";" horiz-adv-x="201" 
d="M102 167c73 0 85 -10 85 -61v-27c0 -41 -9 -74 -24 -112l-13 -32c-23 -56 -35 -64 -96 -64c-41 0 -49 11 -49 29c0 24 12 86 12 127v79c0 51 12 61 85 61zM97 328c-73 0 -85 10 -85 61v45c0 51 12 61 85 61s85 -10 85 -61v-45c0 -51 -12 -61 -85 -61z" />
    <glyph glyph-name="less" unicode="&#x3c;" 
d="M193 265l177 -37c33 -7 37 -17 37 -89c0 -53 -12 -61 -29 -61c-8 0 -16 1 -25 4l-231 65c-46 13 -60 27 -60 121s14 108 60 121l231 65c9 3 17 4 25 4c17 0 29 -8 29 -61c0 -72 -4 -82 -37 -89l-177 -37v-6z" />
    <glyph glyph-name="equal" unicode="=" 
d="M65 180c0 60 5 63 40 63h260c35 0 40 -3 40 -63s-5 -63 -40 -63h-260c-35 0 -40 3 -40 63zM65 360c0 60 5 63 40 63h260c35 0 40 -3 40 -63s-5 -63 -40 -63h-260c-35 0 -40 3 -40 63z" />
    <glyph glyph-name="greater" unicode="&#x3e;" 
d="M99 228l177 37v6l-177 37c-33 7 -37 17 -37 89c0 53 12 61 29 61c8 0 16 -1 25 -4l231 -65c46 -13 60 -27 60 -121s-14 -108 -60 -121l-231 -65c-9 -3 -17 -4 -25 -4c-17 0 -29 8 -29 61c0 72 4 82 37 89z" />
    <glyph glyph-name="question" unicode="?" horiz-adv-x="375" 
d="M168 184c-54 0 -75 5 -75 45v48c0 34 6 50 28 73l47 51c13 14 25 32 25 56c0 27 -14 33 -41 33c-52 0 -90 -11 -117 -11c-16 0 -25 12 -25 65c0 62 8 66 30 73c34 10 83 18 155 18c85 0 170 -23 170 -134c0 -70 -23 -103 -50 -135l-55 -64c-12 -14 -17 -26 -17 -48v-25
c0 -40 -21 -45 -75 -45zM168 0c-73 0 -85 10 -85 61v25c0 51 12 61 85 61s85 -10 85 -61v-25c0 -51 -12 -61 -85 -61z" />
    <glyph glyph-name="at" unicode="@" horiz-adv-x="946" 
d="M405 -10c-120 0 -150 44 -150 250c0 224 43 265 165 265c71 0 104 -27 119 -79v24c0 40 11 45 75 45s75 -5 75 -45v-268c0 -59 13 -75 41 -75c38 0 46 40 46 168v43c0 174 -25 262 -308 262s-298 -120 -298 -307v-80c0 -240 82 -273 340 -273c30 0 40 -12 40 -64
c0 -53 -10 -64 -59 -64c-405 0 -471 123 -471 416v46c0 250 43 451 448 451s458 -170 458 -379v-45c0 -256 -107 -291 -226 -291c-81 0 -129 25 -148 79l-7 19c-21 -65 -64 -98 -140 -98zM473 130c42 0 50 14 50 108v31c0 85 -7 96 -53 96c-30 0 -43 -9 -43 -125
c0 -104 12 -110 46 -110z" />
    <glyph glyph-name="A" unicode="A" horiz-adv-x="556" 
d="M91 0c-73 0 -81 11 -81 39c0 12 3 29 8 51l101 460c16 71 44 80 159 80s143 -9 159 -80l101 -460c5 -22 8 -39 8 -51c0 -28 -8 -39 -81 -39c-75 0 -89 7 -97 50l-17 90h-146l-17 -90c-8 -43 -22 -50 -97 -50zM271 492l-43 -227h99l-42 227h-14z" />
    <glyph glyph-name="B" unicode="B" horiz-adv-x="525" 
d="M250 -5c-66 0 -124 2 -171 7c-34 4 -39 12 -39 45v531c0 39 9 46 42 50c34 4 106 7 146 7c167 0 245 -25 245 -165c0 -78 -16 -128 -86 -144c75 -13 108 -50 108 -156c0 -130 -55 -175 -245 -175zM210 495v-116h38c48 0 52 18 52 62c0 41 -6 56 -44 56
c-12 0 -35 -1 -46 -2zM210 266v-138c14 -2 34 -3 50 -3c55 0 62 7 62 78c0 47 -7 63 -53 63h-59z" />
    <glyph glyph-name="C" unicode="C" horiz-adv-x="455" 
d="M253 -5c-117 0 -223 30 -223 254v106c0 260 121 280 227 280c58 0 113 -8 154 -19c16 -4 24 -12 24 -76c0 -47 -9 -66 -22 -66c-18 0 -54 11 -113 11c-70 0 -100 -16 -100 -137v-63c0 -134 25 -140 100 -140c63 0 90 11 113 11c17 0 22 -16 22 -66c0 -61 -8 -72 -24 -76
c-41 -11 -93 -19 -158 -19z" />
    <glyph glyph-name="D" unicode="D" horiz-adv-x="535" 
d="M245 142c75 0 90 16 90 143v90c0 90 -16 122 -97 122c-7 0 -22 -1 -28 -2v-351c11 -1 16 -2 35 -2zM245 -5c-66 0 -111 1 -166 7c-34 4 -39 12 -39 45v531c0 39 9 46 42 50c51 7 108 7 148 7c164 0 275 -20 275 -254v-96c0 -270 -120 -290 -260 -290z" />
    <glyph glyph-name="E" unicode="E" horiz-adv-x="455" 
d="M440 74c0 -60 -10 -74 -40 -74h-315c-32 0 -45 5 -45 40v550c0 35 13 40 45 40h305c30 0 40 -14 40 -74s-10 -74 -40 -74h-180v-82h110c35 0 40 -13 40 -73s-5 -73 -40 -73h-110v-106h190c30 0 40 -14 40 -74z" />
    <glyph glyph-name="F" unicode="F" horiz-adv-x="440" 
d="M125 0c-64 0 -85 5 -85 45v545c0 35 13 40 45 40h305c30 0 40 -14 40 -74s-10 -74 -40 -74h-180v-82h110c35 0 40 -13 40 -73s-5 -73 -40 -73h-110v-209c0 -40 -21 -45 -85 -45z" />
    <glyph glyph-name="G" unicode="G" horiz-adv-x="506" 
d="M263 -5c-127 0 -233 30 -233 254v106c0 260 120 280 233 280c58 0 122 -8 163 -19c16 -4 24 -12 24 -76c0 -47 -9 -66 -22 -66c-18 0 -69 11 -128 11c-68 0 -100 -16 -100 -137v-63c0 -134 31 -140 76 -140c27 0 55 6 55 22v65h-30c-25 0 -30 14 -30 74c0 50 5 64 30 64
h125c45 0 50 -15 50 -40v-210c0 -80 -70 -125 -213 -125z" />
    <glyph glyph-name="H" unicode="H" horiz-adv-x="550" 
d="M210 384h130v201c0 40 21 45 85 45s85 -5 85 -45v-540c0 -40 -21 -45 -85 -45s-85 5 -85 45v201h-130v-201c0 -40 -21 -45 -85 -45s-85 5 -85 45v540c0 40 21 45 85 45s85 -5 85 -45v-201z" />
    <glyph glyph-name="I" unicode="I" horiz-adv-x="250" 
d="M125 0c-64 0 -85 5 -85 45v540c0 40 21 45 85 45s85 -5 85 -45v-540c0 -40 -21 -45 -85 -45z" />
    <glyph glyph-name="J" unicode="J" horiz-adv-x="370" 
d="M160 -5c-53 0 -90 7 -123 17c-24 7 -32 17 -32 78c0 55 8 60 25 60c23 0 47 -5 80 -5c38 0 50 7 50 50v390c0 40 21 45 85 45s85 -5 85 -45v-382c0 -154 -46 -208 -170 -208z" />
    <glyph glyph-name="K" unicode="K" horiz-adv-x="524" 
d="M125 0c-64 0 -85 5 -85 45v540c0 40 21 45 85 45s85 -5 85 -45v-221h20l83 225c14 37 29 41 108 41c67 0 77 -13 77 -33c0 -9 -3 -19 -13 -42l-109 -241l106 -208c22 -44 27 -56 27 -67c0 -19 -6 -39 -91 -39c-58 0 -78 5 -94 41l-94 217h-20v-213c0 -40 -21 -45 -85 -45
z" />
    <glyph glyph-name="L" unicode="L" horiz-adv-x="430" 
d="M210 148h170c30 0 40 -14 40 -74s-10 -74 -40 -74h-295c-32 0 -45 5 -45 40v545c0 40 21 45 85 45s85 -5 85 -45v-437z" />
    <glyph glyph-name="M" unicode="M" horiz-adv-x="676" 
d="M125 0c-64 0 -85 5 -85 45v527c0 44 18 58 85 58c79 0 101 -4 120 -50l91 -214h4l91 214c19 46 41 50 120 50c67 0 85 -14 85 -58v-527c0 -40 -21 -45 -85 -45s-85 5 -85 45c0 99 2 207 5 306h-4l-49 -142c-16 -47 -25 -55 -80 -55s-64 8 -80 55l-49 142h-4
c3 -99 5 -207 5 -306c0 -40 -21 -45 -85 -45z" />
    <glyph glyph-name="N" unicode="N" horiz-adv-x="567" 
d="M125 0c-64 0 -85 5 -85 45v540c0 40 21 45 85 45c40 0 67 -3 89 -43l135 -253h8v251c0 40 21 45 85 45s85 -5 85 -45v-540c0 -40 -17 -45 -81 -45c-40 0 -57 3 -80 42l-148 254h-8v-251c0 -40 -21 -45 -85 -45z" />
    <glyph glyph-name="O" unicode="O" horiz-adv-x="536" 
d="M268 140c58 0 68 15 68 145v60c0 130 -10 145 -68 145s-68 -15 -68 -145v-60c0 -130 10 -145 68 -145zM268 -5c-160 0 -238 30 -238 270v90c0 250 68 280 238 280s238 -30 238 -280v-90c0 -240 -78 -270 -238 -270z" />
    <glyph glyph-name="P" unicode="P" horiz-adv-x="509" 
d="M125 0c-64 0 -85 5 -85 45v531c0 39 9 46 42 50c51 6 114 9 196 9c131 0 206 -33 206 -216c0 -198 -109 -234 -269 -234h-5v-140c0 -40 -21 -45 -85 -45zM210 495v-175h15c68 0 85 16 85 88c0 74 -23 89 -55 89c-15 0 -35 -1 -45 -2z" />
    <glyph glyph-name="Q" unicode="Q" horiz-adv-x="536" 
d="M280 -5h-12c-160 0 -238 30 -238 270v90c0 250 68 280 238 280s238 -30 238 -280v-90c0 -142 -27 -210 -82 -242l46 -63c22 -29 26 -41 26 -50c0 -17 -15 -33 -80 -33c-55 0 -67 10 -94 52zM268 140c58 0 68 15 68 145v60c0 130 -10 145 -68 145s-68 -15 -68 -145v-60
c0 -130 10 -145 68 -145z" />
    <glyph glyph-name="R" unicode="R" horiz-adv-x="519" 
d="M125 0c-64 0 -85 5 -85 45v531c0 39 9 46 42 50c51 6 114 9 196 9c131 0 206 -35 206 -205c0 -94 -33 -146 -85 -175l82 -172c17 -36 18 -45 18 -51c0 -13 -4 -32 -67 -32c-89 0 -99 3 -115 47l-63 178h-44v-180c0 -40 -21 -45 -85 -45zM210 495v-155h33
c50 0 67 15 67 79c0 61 -23 78 -55 78c-15 0 -35 -1 -45 -2z" />
    <glyph glyph-name="S" unicode="S" horiz-adv-x="455" 
d="M195 -5c-53 0 -105 8 -138 17c-24 7 -32 17 -32 78c0 55 8 66 25 66c23 0 47 -11 120 -11c58 0 98 7 98 50c0 26 -4 34 -45 52l-94 42c-52 23 -95 65 -95 164c0 140 96 182 191 182c68 0 123 -8 164 -19c16 -4 24 -12 24 -76c0 -52 -11 -66 -26 -66c-18 0 -50 11 -119 11
c-38 0 -71 -3 -71 -34c0 -23 12 -28 37 -39l89 -39c67 -29 107 -61 107 -170c0 -154 -100 -208 -235 -208z" />
    <glyph glyph-name="T" unicode="T" horiz-adv-x="458" 
d="M229 0c-64 0 -85 5 -85 45v437h-94c-30 0 -40 14 -40 74s10 74 40 74h358c30 0 40 -14 40 -74s-10 -74 -40 -74h-94v-437c0 -40 -21 -45 -85 -45z" />
    <glyph glyph-name="U" unicode="U" horiz-adv-x="536" 
d="M268 -5c-170 0 -228 50 -228 200v390c0 40 21 45 85 45s85 -5 85 -45v-400c0 -42 8 -50 58 -50s58 8 58 50v400c0 40 21 45 85 45s85 -5 85 -45v-390c0 -150 -58 -200 -228 -200z" />
    <glyph glyph-name="V" unicode="V" horiz-adv-x="546" 
d="M280 138l73 442c7 43 27 50 102 50c73 0 81 -11 81 -39c0 -11 -3 -29 -8 -51l-103 -470c-13 -61 -37 -70 -152 -70s-138 9 -151 70l-104 470c-5 22 -8 40 -8 51c0 28 8 39 81 39c75 0 95 -7 102 -50l73 -442h14z" />
    <glyph glyph-name="W" unicode="W" horiz-adv-x="814" 
d="M217 0c-91 0 -132 8 -140 70l-63 470c-2 19 -4 39 -4 51c0 28 8 39 81 39c75 0 94 -7 98 -50l37 -424h11l67 414c7 43 35 50 103 50s96 -7 103 -50l67 -414h11l37 424c4 43 23 50 98 50c73 0 81 -11 81 -39c0 -12 -2 -32 -4 -51l-63 -470c-8 -62 -49 -70 -140 -70
c-89 0 -132 13 -141 74l-44 297h-10l-44 -297c-9 -61 -52 -74 -141 -74z" />
    <glyph glyph-name="X" unicode="X" horiz-adv-x="521" 
d="M94 0c-70 0 -84 17 -84 40c0 12 7 30 26 61l136 222l-121 202c-19 31 -26 51 -26 64c0 23 14 41 86 41c69 0 81 -7 102 -50l47 -100h4l44 100c19 44 33 50 102 50c72 0 86 -18 86 -41c0 -13 -7 -32 -26 -63l-122 -202l137 -220c19 -31 26 -51 26 -64
c0 -23 -14 -40 -84 -40c-69 0 -80 7 -102 50l-64 126h-4l-61 -126c-21 -44 -33 -50 -102 -50z" />
    <glyph glyph-name="Y" unicode="Y" horiz-adv-x="506" 
d="M253 0c-64 0 -85 5 -85 45v170l-136 307c-19 44 -23 60 -23 70c0 17 8 38 72 38c87 0 99 -8 112 -50l57 -192h6l57 192c13 42 22 50 107 50c69 0 77 -19 77 -36c0 -10 -4 -28 -23 -72l-136 -307v-170c0 -40 -21 -45 -85 -45z" />
    <glyph glyph-name="Z" unicode="Z" horiz-adv-x="424" 
d="M208 482h-143c-30 0 -40 14 -40 74s10 74 40 74h301c35 0 40 -15 40 -66c0 -27 -7 -50 -36 -106l-162 -310h166c30 0 40 -14 40 -74s-10 -74 -40 -74h-324c-35 0 -40 15 -40 66c0 27 9 52 41 113z" />
    <glyph glyph-name="bracketleft" unicode="[" horiz-adv-x="270" 
d="M260 21c0 -54 -10 -65 -40 -65h-151c-32 0 -49 13 -49 48v622c0 35 17 48 49 48h151c30 0 40 -11 40 -65c0 -57 -10 -68 -40 -68h-40v-452h40c30 0 40 -11 40 -68z" />
    <glyph glyph-name="backslash" unicode="\" horiz-adv-x="296" 
d="M227 -50c-45 0 -75 11 -81 39l-134 591c-11 50 -12 64 -12 69c0 17 14 31 69 31c45 0 75 -11 81 -39l134 -591c11 -50 12 -64 12 -69c0 -17 -14 -31 -69 -31z" />
    <glyph glyph-name="bracketright" unicode="]" horiz-adv-x="270" 
d="M10 21c0 57 10 68 40 68h40v452h-40c-30 0 -40 11 -40 68c0 54 10 65 40 65h151c32 0 49 -13 49 -48v-622c0 -35 -17 -48 -49 -48h-151c-30 0 -40 11 -40 65z" />
    <glyph glyph-name="asciicircum" unicode="^" 
d="M238 495h-6l-37 -108c-11 -32 -17 -38 -89 -38c-53 0 -64 12 -64 29c0 8 4 16 7 25l65 171c17 45 27 60 121 60s104 -15 121 -60l65 -171c3 -9 7 -17 7 -25c0 -17 -11 -29 -64 -29c-72 0 -78 6 -89 38z" />
    <glyph glyph-name="underscore" unicode="_" horiz-adv-x="520" 
d="M10 -93c0 60 5 73 40 73h420c35 0 40 -13 40 -73s-5 -73 -40 -73h-420c-35 0 -40 13 -40 73z" />
    <glyph glyph-name="grave" unicode="`" horiz-adv-x="242" 
d="M156 538c-70 0 -82 14 -95 44l-22 49c-10 23 -19 46 -19 62c0 22 12 32 85 32c80 0 88 -12 99 -59l11 -49c3 -12 7 -36 7 -49c0 -21 -15 -30 -66 -30z" />
    <glyph glyph-name="a" unicode="a" horiz-adv-x="487" 
d="M149 -10c-88 0 -129 46 -129 153c0 108 46 159 204 159h54v6c0 55 -16 55 -64 55c-67 0 -113 -13 -137 -13c-20 0 -29 20 -29 68c0 47 8 60 31 68c28 10 92 19 160 19c141 0 206 -20 206 -148v-113c0 -145 17 -177 17 -206c0 -26 -12 -38 -78 -38c-57 0 -67 5 -77 41
l-11 41c-23 -64 -72 -92 -147 -92zM217 122c28 0 61 10 61 75v11l-50 -1c-38 -1 -48 -12 -48 -45s10 -40 37 -40z" />
    <glyph glyph-name="b" unicode="b" horiz-adv-x="517" 
d="M246 -10c-164 0 -211 45 -211 136v489c0 40 21 45 85 45s85 -5 85 -45v-169c24 36 65 59 128 59c116 0 154 -40 154 -250c0 -225 -59 -265 -241 -265zM258 130c52 0 57 20 57 118c0 107 -14 117 -52 117c-52 0 -62 -15 -62 -136v-68c0 -24 8 -31 57 -31z" />
    <glyph glyph-name="c" unicode="c" horiz-adv-x="434" 
d="M256 -10c-134 0 -226 31 -226 255c0 225 73 260 213 260c52 0 110 -10 136 -19c19 -7 29 -19 29 -68c0 -48 -9 -68 -27 -68c-13 0 -71 11 -109 11c-56 0 -75 -3 -75 -101c0 -115 12 -126 78 -126c59 0 94 11 107 11c18 0 27 -20 27 -68c0 -49 -10 -62 -29 -68
c-35 -12 -82 -19 -124 -19z" />
    <glyph glyph-name="d" unicode="d" horiz-adv-x="526" 
d="M190 -10c-120 0 -160 44 -160 240c0 234 53 275 175 275c62 0 93 -16 109 -49v159c0 40 21 45 85 45s85 -5 85 -45v-371c0 -145 17 -177 17 -206c0 -26 -12 -38 -78 -38c-57 0 -67 5 -77 41l-10 36c-23 -57 -68 -87 -146 -87zM258 130c44 0 60 21 60 110v20
c0 94 -17 105 -63 105c-40 0 -53 -9 -53 -125c0 -104 12 -110 56 -110z" />
    <glyph glyph-name="e" unicode="e" horiz-adv-x="488" 
d="M266 -10c-144 0 -236 31 -236 255c0 225 69 260 224 260c172 0 204 -69 204 -233c0 -47 -10 -72 -58 -72h-201c5 -60 24 -66 76 -66c78 0 134 11 147 11c18 0 27 -20 27 -68c0 -49 -10 -62 -29 -68c-35 -12 -112 -19 -154 -19zM252 365c-40 0 -52 -6 -55 -68h104
c0 57 -7 68 -49 68z" />
    <glyph glyph-name="f" unicode="f" horiz-adv-x="340" 
d="M10 425c0 53 5 65 30 65h30v68c0 104 60 122 140 122c35 0 71 -4 100 -10c24 -5 30 -12 30 -62c0 -48 -11 -66 -27 -66c-11 0 -31 3 -57 3c-19 0 -26 -7 -26 -25v-30h70c25 0 30 -12 30 -65s-5 -65 -30 -65h-60v-315c0 -40 -21 -45 -85 -45s-85 5 -85 45v315h-30
c-25 0 -30 12 -30 65z" />
    <glyph glyph-name="g" unicode="g" horiz-adv-x="525" 
d="M30 250c0 214 53 255 185 255c70 0 107 -20 125 -71l5 20c10 36 20 41 77 41c66 0 78 -12 78 -38c0 -29 -17 -61 -17 -206v-192c0 -231 -111 -259 -260 -259c-45 0 -112 7 -147 18c-19 6 -29 20 -29 69c0 48 9 68 27 68c13 0 69 -11 127 -11c100 0 111 18 112 110
c-21 -42 -61 -64 -135 -64c-111 0 -148 44 -148 260zM202 240c0 -104 12 -110 56 -110s60 21 60 110v20c0 94 -17 105 -63 105c-40 0 -53 -9 -53 -125z" />
    <glyph glyph-name="h" unicode="h" horiz-adv-x="515" 
d="M120 0c-64 0 -85 5 -85 45v570c0 40 21 45 85 45s85 -5 85 -45v-166c25 35 66 56 131 56c104 0 139 -39 139 -148v-312c0 -40 -21 -45 -85 -45s-85 5 -85 45v270c0 32 -8 45 -34 45c-50 0 -66 -37 -66 -152v-163c0 -40 -21 -45 -85 -45z" />
    <glyph glyph-name="i" unicode="i" horiz-adv-x="245" 
d="M120 0c-64 0 -85 5 -85 45v405c0 40 21 45 85 45s85 -5 85 -45v-405c0 -40 -21 -45 -85 -45zM120 528c-84 0 -90 12 -90 62v8c0 50 6 62 90 62s90 -12 90 -62v-8c0 -50 -6 -62 -90 -62z" />
    <glyph glyph-name="j" unicode="j" horiz-adv-x="245" 
d="M120 495c64 0 85 -5 85 -45v-518c0 -104 -58 -132 -131 -132c-39 0 -72 5 -100 13c-24 6 -34 19 -34 71c0 61 11 64 27 64c11 0 31 -3 43 -3c18 0 25 5 25 23v482c0 40 21 45 85 45zM120 528c-84 0 -90 12 -90 62v8c0 50 6 62 90 62s90 -12 90 -62v-8
c0 -50 -6 -62 -90 -62z" />
    <glyph glyph-name="k" unicode="k" horiz-adv-x="502" 
d="M120 0c-64 0 -85 5 -85 45v570c0 40 21 45 85 45s85 -5 85 -45v-306h14l65 145c16 36 31 41 106 41c64 0 83 -8 83 -27c0 -14 -6 -30 -13 -43l-91 -166l105 -189c9 -15 13 -23 13 -36c0 -22 -25 -34 -89 -34s-83 5 -100 41l-79 167h-14v-163c0 -40 -21 -45 -85 -45z" />
    <glyph glyph-name="l" unicode="l" horiz-adv-x="245" 
d="M120 0c-64 0 -85 5 -85 45v570c0 40 21 45 85 45s85 -5 85 -45v-570c0 -40 -21 -45 -85 -45z" />
    <glyph glyph-name="m" unicode="m" horiz-adv-x="772" 
d="M127 0c-64 0 -85 5 -85 45v206c0 145 -17 177 -17 206c0 26 12 38 78 38c57 0 67 -5 77 -41l10 -39c22 56 66 90 143 90c73 0 112 -20 129 -69c23 43 64 69 131 69c104 0 139 -39 139 -148v-312c0 -40 -21 -45 -85 -45s-85 5 -85 45v270c0 32 -8 45 -34 45
c-46 0 -56 -37 -56 -152v-163c0 -40 -21 -45 -85 -45s-85 5 -85 45v270c0 32 -8 45 -34 45c-46 0 -56 -37 -56 -152v-163c0 -40 -21 -45 -85 -45z" />
    <glyph glyph-name="n" unicode="n" horiz-adv-x="522" 
d="M127 0c-64 0 -85 5 -85 45v206c0 145 -17 177 -17 206c0 26 12 38 78 38c57 0 67 -5 77 -41l12 -46c25 58 72 97 151 97c104 0 139 -39 139 -148v-312c0 -40 -21 -45 -85 -45s-85 5 -85 45v270c0 32 -8 45 -34 45c-50 0 -66 -37 -66 -152v-163c0 -40 -21 -45 -85 -45z
" />
    <glyph glyph-name="o" unicode="o" horiz-adv-x="512" 
d="M248 -10c-160 0 -218 45 -218 255c0 225 64 260 234 260c160 0 218 -40 218 -250c0 -225 -64 -265 -234 -265zM253 130c52 0 57 20 57 118c0 107 -14 117 -52 117c-52 0 -57 -15 -57 -113c0 -107 14 -122 52 -122z" />
    <glyph glyph-name="p" unicode="p" horiz-adv-x="526" 
d="M127 -185c-64 0 -85 5 -85 45v391c0 145 -17 177 -17 206c0 26 12 38 78 38c57 0 67 -5 77 -41l7 -28c27 52 75 79 149 79c120 0 160 -44 160 -240c0 -234 -53 -275 -175 -275c-63 0 -94 16 -109 43v-173c0 -40 -21 -45 -85 -45zM271 130c40 0 53 9 53 125
c0 104 -12 110 -56 110c-41 0 -60 -14 -60 -106v-24c0 -94 17 -105 63 -105z" />
    <glyph glyph-name="q" unicode="q" horiz-adv-x="525" 
d="M398 -185c-64 0 -85 5 -85 45v194c-21 -42 -61 -64 -135 -64c-111 0 -148 44 -148 260c0 214 53 255 185 255c70 0 107 -20 125 -71l5 20c10 36 20 41 77 41c66 0 78 -12 78 -38c0 -29 -17 -61 -17 -206v-391c0 -40 -21 -45 -85 -45zM246 130c46 0 63 11 63 105v24
c0 92 -19 106 -60 106c-44 0 -56 -6 -56 -110c0 -116 13 -125 53 -125z" />
    <glyph glyph-name="r" unicode="r" horiz-adv-x="386" 
d="M127 0c-64 0 -85 5 -85 45v206c0 145 -17 177 -17 206c0 26 12 38 78 38c57 0 67 -5 77 -41l8 -30c26 52 68 76 121 76c18 0 38 -3 45 -5c20 -6 29 -16 29 -78c0 -65 -19 -70 -30 -70c-8 0 -26 3 -52 3c-58 0 -89 -35 -89 -145v-160c0 -40 -21 -45 -85 -45z" />
    <glyph glyph-name="s" unicode="s" horiz-adv-x="451" 
d="M206 -10c-45 0 -112 7 -147 18c-19 6 -29 20 -29 69c0 48 9 68 27 68c13 0 69 -11 127 -11c51 0 65 7 65 22c0 12 -7 17 -22 23l-93 40c-48 21 -83 63 -83 134c0 124 104 152 185 152c45 0 113 -7 151 -17c19 -5 29 -15 29 -73c0 -61 -19 -65 -30 -65
c-16 0 -60 13 -112 13c-35 0 -51 -6 -51 -17c0 -7 5 -12 21 -19l90 -35c69 -27 87 -68 87 -132c0 -134 -104 -170 -215 -170z" />
    <glyph glyph-name="t" unicode="t" horiz-adv-x="350" 
d="M195 -10c-81 0 -125 28 -125 132v238h-30c-25 0 -30 12 -30 65s5 65 30 65h30v65c0 40 21 45 85 45s85 -5 85 -45v-65h60c25 0 30 -12 30 -65s-5 -65 -30 -65h-60v-204c0 -11 3 -17 23 -17c17 0 29 4 40 4c16 0 27 -6 27 -61c0 -51 -10 -63 -29 -72
c-30 -14 -67 -20 -106 -20z" />
    <glyph glyph-name="u" unicode="u" horiz-adv-x="515" 
d="M171 -10c-94 0 -136 29 -136 138v322c0 40 21 45 85 45s85 -5 85 -45v-278c0 -32 8 -37 34 -37c50 0 64 37 64 152v163c0 40 21 45 85 45s85 -5 85 -45v-206c0 -145 17 -177 17 -206c0 -26 -12 -38 -78 -38c-57 0 -67 5 -77 41l-10 38c-26 -56 -75 -89 -154 -89z" />
    <glyph glyph-name="v" unicode="v" horiz-adv-x="498" 
d="M249 0c-109 0 -129 14 -141 60l-89 335c-7 25 -9 43 -9 53c0 37 8 47 85 47c74 0 88 -7 95 -44l53 -300h12l53 300c7 37 21 44 95 44c77 0 85 -10 85 -47c0 -10 -2 -28 -9 -53l-89 -335c-12 -46 -32 -60 -141 -60z" />
    <glyph glyph-name="w" unicode="w" horiz-adv-x="726" 
d="M193 0c-99 0 -123 12 -130 60l-48 335c-3 23 -5 43 -5 53c0 37 8 47 85 47c74 0 88 -7 91 -44l27 -300h13l42 292c5 35 30 42 95 42s90 -7 95 -42l42 -292h13l27 300c3 37 17 44 91 44c77 0 85 -10 85 -47c0 -10 -2 -30 -5 -53l-48 -335c-7 -48 -31 -60 -130 -60
c-104 0 -135 13 -142 60l-23 164h-10l-23 -164c-7 -47 -38 -60 -142 -60z" />
    <glyph glyph-name="x" unicode="x" horiz-adv-x="474" 
d="M90 0c-66 0 -80 11 -80 31c0 7 3 17 14 36l110 185l-94 159c-14 24 -20 37 -20 47c0 29 23 37 88 37c75 0 89 -4 103 -41l26 -68h4l24 68c14 39 26 41 101 41c65 0 88 -8 88 -37c0 -10 -4 -20 -19 -44l-97 -151l110 -192c11 -19 16 -32 16 -39c0 -20 -13 -32 -80 -32
c-78 0 -98 6 -117 57l-30 82h-4l-28 -82c-17 -49 -37 -57 -115 -57z" />
    <glyph glyph-name="y" unicode="y" horiz-adv-x="499" 
d="M10 454c0 23 8 41 88 41c71 0 87 -7 92 -44l46 -314h14l58 314c7 37 21 44 91 44c77 0 90 -13 90 -40c0 -14 -4 -35 -23 -111l-93 -362c-38 -146 -75 -182 -209 -182c-42 0 -93 7 -124 19c-20 8 -29 19 -29 68c0 48 9 68 27 68c13 0 48 -11 107 -11c63 0 72 12 78 42
l2 14h-14c-88 0 -104 17 -114 60l-64 275c-20 85 -23 106 -23 119z" />
    <glyph glyph-name="z" unicode="z" horiz-adv-x="407" 
d="M392 71c0 -40 -5 -71 -30 -71h-322c-25 0 -30 23 -30 63c0 54 6 78 46 124l146 166h-142c-25 0 -30 31 -30 71s5 71 30 71h302c24 0 30 -24 30 -63c0 -42 -6 -77 -33 -108l-159 -182h162c25 0 30 -31 30 -71z" />
    <glyph glyph-name="braceleft" unicode="{" horiz-adv-x="348" 
d="M86 209c0 18 -5 37 -26 37c-35 0 -40 9 -40 69s5 68 40 68c21 0 26 19 26 37c0 36 -1 67 -1 112c0 91 29 148 122 148c39 0 74 -4 105 -12c20 -5 26 -23 26 -71c0 -45 -10 -59 -27 -59c-15 0 -38 1 -50 1c-16 0 -17 -15 -17 -33c0 -21 1 -67 1 -88
c0 -56 -20 -87 -53 -101v-5c33 -14 53 -45 53 -101c0 -21 -1 -67 -1 -88c0 -18 1 -33 17 -33c12 0 35 1 50 1c17 0 27 -14 27 -59c0 -48 -6 -66 -26 -71c-31 -8 -66 -12 -105 -12c-93 0 -122 57 -122 148c0 45 1 76 1 112z" />
    <glyph glyph-name="bar" unicode="|" horiz-adv-x="191" 
d="M95 -185c-58 0 -65 6 -65 54v757c0 48 7 54 65 54c59 0 66 -6 66 -54v-757c0 -48 -7 -54 -66 -54z" />
    <glyph glyph-name="braceright" unicode="}" horiz-adv-x="348" 
d="M141 -51c-39 0 -74 4 -105 12c-20 5 -26 23 -26 71c0 45 10 59 27 59c15 0 38 -1 50 -1c16 0 17 15 17 33c0 21 -1 67 -1 88c0 56 20 87 53 101v5c-33 14 -53 45 -53 101c0 21 1 67 1 88c0 18 -1 33 -17 33c-12 0 -35 -1 -50 -1c-17 0 -27 14 -27 59c0 48 6 66 26 71
c31 8 66 12 105 12c93 0 122 -57 122 -148c0 -45 -1 -76 -1 -112c0 -18 5 -37 26 -37c35 0 40 -9 40 -69s-5 -68 -40 -68c-21 0 -26 -19 -26 -37c0 -36 1 -67 1 -112c0 -91 -29 -148 -122 -148z" />
    <glyph glyph-name="asciitilde" unicode="~" 
d="M62 268c0 40 8 59 30 74c19 13 45 22 77 22c56 0 84 -23 136 -23c41 0 60 18 75 18c16 0 27 -9 27 -57c0 -40 -8 -59 -30 -74c-19 -13 -45 -22 -77 -22c-56 0 -84 23 -136 23c-41 0 -60 -18 -75 -18c-16 0 -27 9 -27 57z" />
    <glyph glyph-name="exclamdown" unicode="&#xa1;" horiz-adv-x="231" 
d="M116 446c64 0 75 -5 75 -45c0 -75 10 -250 10 -356c0 -40 -21 -45 -85 -45s-85 5 -85 45c0 106 10 281 10 356c0 40 11 45 75 45zM115 630c73 0 85 -10 85 -61v-25c0 -51 -12 -61 -85 -61s-85 10 -85 61v25c0 51 12 61 85 61z" />
    <glyph glyph-name="cent" unicode="&#xa2;" 
d="M256 630c54 0 70 -5 70 -45v-55c28 -3 53 -9 68 -14c19 -7 29 -14 29 -63c0 -48 -9 -68 -27 -68c-13 0 -71 11 -109 11c-56 0 -75 -10 -75 -66c0 -75 12 -91 78 -91c59 0 94 11 107 11c18 0 27 -20 27 -68c0 -49 -10 -57 -29 -63c-20 -7 -44 -13 -69 -16v-58
c0 -40 -16 -45 -70 -45s-70 5 -70 45v61c-87 16 -141 67 -141 209c0 150 48 201 141 215v55c0 40 16 45 70 45z" />
    <glyph glyph-name="sterling" unicode="&#xa3;" 
d="M338 313c0 -43 -7 -48 -36 -48h-58v-16c0 -23 -10 -79 -26 -101h196c30 0 40 -14 40 -74s-10 -74 -40 -74h-336c-32 0 -45 5 -45 40c0 77 46 105 46 206v19h-36c-29 0 -36 5 -36 48s7 48 36 48h36v86c0 182 84 188 161 188c64 0 131 -10 172 -19c16 -4 24 -12 24 -76
c0 -50 -10 -62 -24 -62c-22 0 -66 7 -105 7c-48 0 -63 -2 -63 -51v-73h58c29 0 36 -5 36 -48z" />
    <glyph glyph-name="currency" unicode="&#xa4;" 
d="M126 52c-39 0 -51 6 -51 19c0 12 5 27 15 53l9 22c-24 24 -35 62 -35 122s11 98 35 122l-9 22c-10 26 -15 41 -15 53c0 13 12 19 51 19c47 0 57 -6 67 -32l10 -27c11 0 22 1 34 1s23 -1 33 -1l11 27c10 26 20 32 67 32c39 0 51 -6 51 -19c0 -12 -5 -27 -15 -53l-9 -22
c24 -24 35 -62 35 -122s-12 -98 -35 -122l9 -22c10 -26 15 -41 15 -53c0 -13 -12 -19 -51 -19c-47 0 -57 6 -67 32l-11 27c-10 -1 -21 -1 -33 -1s-23 0 -34 1l-10 -27c-10 -26 -20 -32 -67 -32zM237 213c39 0 42 12 42 57c0 41 -3 53 -42 53s-42 -12 -42 -53
c0 -45 3 -57 42 -57z" />
    <glyph glyph-name="yen" unicode="&#xa5;" 
d="M235 0c-64 0 -85 5 -85 45v34h-57c-29 0 -36 5 -36 48s7 48 36 48h57v39h-59c-29 0 -36 7 -36 50s7 50 36 50h36l-99 212c-10 22 -21 47 -21 65c0 28 8 39 81 39c75 0 85 -7 97 -50l47 -171h6l47 171c12 43 22 50 97 50c73 0 81 -11 81 -39c0 -18 -11 -43 -21 -65
l-99 -212h36c29 0 36 -7 36 -50s-7 -50 -36 -50h-59v-39h57c29 0 36 -5 36 -48s-7 -48 -36 -48h-57v-34c0 -40 -21 -45 -85 -45z" />
    <glyph glyph-name="brokenbar" unicode="&#xa6;" horiz-adv-x="191" 
d="M95 280c-58 0 -65 6 -65 54v292c0 48 7 54 65 54c59 0 66 -6 66 -54v-292c0 -48 -7 -54 -66 -54zM95 -185c-58 0 -65 6 -65 54v292c0 48 7 54 65 54c59 0 66 -6 66 -54v-292c0 -48 -7 -54 -66 -54z" />
    <glyph glyph-name="section" unicode="&#xa7;" horiz-adv-x="445" 
d="M29 210c0 57 22 98 52 124c-32 22 -52 58 -52 129c0 140 96 172 191 172c68 0 123 -8 164 -19c16 -4 24 -12 24 -76c0 -52 -11 -66 -26 -66c-18 0 -50 11 -119 11c-38 0 -71 -7 -71 -24c0 -11 11 -21 37 -29l75 -25c83 -27 121 -70 121 -151c0 -54 -19 -91 -47 -115
c31 -22 47 -57 47 -128c0 -154 -100 -198 -235 -198c-53 0 -105 8 -138 17c-24 7 -32 17 -32 78c0 55 8 66 25 66c23 0 47 -11 120 -11c58 0 98 9 98 40c0 20 -3 28 -45 42l-76 26c-72 24 -113 58 -113 137zM192 252c0 -27 11 -47 37 -55l26 -9c5 8 8 18 8 30
c0 25 -3 50 -45 64l-20 6c-5 -12 -6 -24 -6 -36z" />
    <glyph glyph-name="dieresis" unicode="&#xa8;" horiz-adv-x="410" 
d="M105 528c-76 0 -85 12 -85 62v8c0 50 9 62 85 62s85 -12 85 -62v-8c0 -50 -9 -62 -85 -62zM305 528c-76 0 -85 12 -85 62v8c0 50 9 62 85 62s85 -12 85 -62v-8c0 -50 -9 -62 -85 -62z" />
    <glyph glyph-name="copyright" unicode="&#xa9;" horiz-adv-x="896" 
d="M448 -30c263 0 298 105 298 348c0 237 -35 342 -298 342s-298 -105 -298 -342c0 -243 35 -348 298 -348zM448 -140c-374 0 -428 175 -428 455s54 455 428 455s428 -175 428 -455s-54 -455 -428 -455zM471 60c-134 0 -226 31 -226 255c0 225 73 260 213 260
c52 0 110 -10 136 -19c19 -7 29 -19 29 -68c0 -48 -9 -68 -27 -68c-13 0 -71 11 -109 11c-56 0 -75 -3 -75 -101c0 -115 12 -126 78 -126c59 0 94 11 107 11c18 0 27 -20 27 -68c0 -49 -10 -62 -29 -68c-35 -12 -82 -19 -124 -19z" />
    <glyph glyph-name="ordfeminine" unicode="&#xaa;" horiz-adv-x="367" 
d="M118 242c-67 0 -98 35 -98 117s35 121 156 121h31c-1 38 -10 41 -39 41c-51 0 -86 -10 -105 -10c-15 0 -22 18 -22 55c0 36 6 48 24 55c21 7 70 14 122 14c99 0 147 -15 147 -113v-86c0 -111 13 -135 13 -157c0 -20 -9 -29 -59 -29c-44 0 -56 4 -62 31l-6 26
c-16 -43 -48 -65 -102 -65zM170 343c20 0 37 16 37 57v5l-28 -1c-29 -1 -35 -9 -35 -31c0 -25 6 -30 26 -30z" />
    <glyph glyph-name="guillemotleft" unicode="&#xab;" horiz-adv-x="635" 
d="M491 255v-8l87 -76c30 -27 37 -35 37 -102c0 -43 -12 -51 -29 -51c-8 0 -17 3 -25 7l-166 95c-41 23 -60 37 -60 131s19 108 60 131l166 95c8 4 17 7 25 7c17 0 29 -8 29 -51c0 -67 -7 -75 -37 -102zM181 255v-8l87 -66c30 -23 37 -30 37 -102c0 -43 -12 -51 -29 -51
c-8 0 -17 3 -25 7l-171 95c-41 23 -60 37 -60 121s19 98 60 121l171 95c8 4 17 7 25 7c17 0 29 -8 29 -51c0 -72 -7 -79 -37 -102z" />
    <glyph glyph-name="logicalnot" unicode="&#xac;" 
d="M354 139c-64 0 -75 5 -75 45v57h-198c-30 0 -40 9 -40 69s10 69 40 69h303c32 0 45 -5 45 -40v-155c0 -40 -11 -45 -75 -45z" />
    <glyph glyph-name="registered" unicode="&#xae;" horiz-adv-x="896" 
d="M448 -140c-374 0 -428 175 -428 455s54 455 428 455s428 -175 428 -455s-54 -455 -428 -455zM448 -30c263 0 298 105 298 348c0 237 -35 342 -298 342s-298 -105 -298 -342c0 -243 35 -348 298 -348zM334 70c-64 0 -85 5 -85 45v401c0 39 9 46 42 50c51 6 104 9 186 9
c131 0 186 -35 186 -185c0 -65 -20 -104 -58 -126l55 -121c11 -23 16 -35 16 -45c0 -19 -13 -28 -74 -28c-83 0 -94 2 -106 47l-32 118h-45v-120c0 -40 -21 -45 -85 -45zM419 437v-92h30c40 0 48 12 48 51c0 33 -3 43 -35 43c-15 0 -32 -1 -43 -2z" />
    <glyph glyph-name="macron" unicode="&#xaf;" horiz-adv-x="300" 
d="M20 606c0 57 5 68 40 68h180c35 0 40 -11 40 -68s-5 -68 -40 -68h-180c-35 0 -40 11 -40 68z" />
    <glyph glyph-name="degree" unicode="&#xb0;" horiz-adv-x="368" 
d="M184 310c-130 0 -164 30 -164 164c0 136 44 161 164 161s164 -25 164 -161c0 -134 -34 -164 -164 -164zM151 472c0 -38 6 -43 33 -43s33 5 33 43s-6 43 -33 43s-33 -5 -33 -43z" />
    <glyph glyph-name="plusminus" unicode="&#xb1;" 
d="M70 335c0 50 5 58 40 58h57v62c0 35 8 40 68 40s68 -5 68 -40v-62h56c35 0 40 -8 40 -58s-5 -58 -40 -58h-56v-62c0 -35 -8 -40 -68 -40s-68 5 -68 40v62h-57c-35 0 -40 8 -40 58zM80 77c0 55 5 63 40 63h230c35 0 40 -8 40 -63s-5 -63 -40 -63h-230c-35 0 -40 8 -40 63z
" />
    <glyph glyph-name="twosuperior" unicode="&#xb2;" horiz-adv-x="330" 
d="M190 405h81c27 0 36 -3 36 -55c0 -53 -9 -56 -36 -56h-211c-28 0 -40 4 -40 35v22c0 31 19 52 42 77l72 76c15 16 22 28 22 44c0 22 -9 26 -37 26c-23 0 -45 -6 -65 -6c-13 0 -21 3 -21 46c0 48 8 53 27 58c30 8 73 11 102 11c64 0 131 -7 131 -98
c0 -53 -14 -76 -49 -117z" />
    <glyph glyph-name="threesuperior" unicode="&#xb3;" horiz-adv-x="330" 
d="M154 286c-28 0 -77 3 -107 11c-19 6 -26 11 -26 58c0 42 8 46 20 46c20 0 51 -6 74 -6c27 0 45 4 45 25c0 24 -18 27 -61 27c-19 0 -22 14 -22 39c0 26 3 40 22 40c46 0 61 4 61 24s-16 24 -41 24c-23 0 -54 -6 -74 -6c-12 0 -20 3 -20 46c0 48 7 53 26 58
c30 8 79 11 107 11c65 0 131 -8 131 -99c0 -54 -25 -91 -69 -100c53 -1 79 -31 79 -95c0 -95 -80 -103 -145 -103z" />
    <glyph glyph-name="acute" unicode="&#xb4;" horiz-adv-x="242" 
d="M86 538c-51 0 -66 9 -66 30c0 13 4 37 7 49l11 49c11 47 19 59 99 59c73 0 85 -10 85 -32c0 -16 -9 -39 -19 -62l-22 -49c-13 -30 -25 -44 -95 -44z" />
    <glyph glyph-name="mu" unicode="&#xb5;" horiz-adv-x="495" 
d="M105 -185c-64 0 -85 5 -85 45v590c0 40 21 45 85 45s85 -5 85 -45v-278c0 -32 8 -37 34 -37c50 0 64 37 64 152v163c0 40 21 45 85 45s85 -5 85 -45v-206c0 -145 17 -177 17 -206c0 -26 -12 -38 -78 -38c-57 0 -67 5 -77 41l-10 38c-22 -48 -61 -79 -120 -87v-132
c0 -40 -21 -45 -85 -45z" />
    <glyph glyph-name="paragraph" unicode="&#xb6;" horiz-adv-x="664" 
d="M298 -200c-45 0 -112 7 -147 18c-19 6 -29 20 -29 69c0 48 9 68 27 68c13 0 69 -11 127 -11c105 0 112 19 112 122v416h-54v-296c0 -33 -9 -44 -36 -50c-29 -6 -54 -9 -90 -9c-125 0 -167 44 -167 249c0 190 38 254 169 254h382c30 0 40 -14 40 -74s-10 -74 -40 -74h-34
v-423c0 -231 -111 -259 -260 -259z" />
    <glyph glyph-name="middot" unicode="&#xb7;" horiz-adv-x="230" 
d="M115 200c-73 0 -85 10 -85 61v45c0 51 12 61 85 61s85 -10 85 -61v-45c0 -51 -12 -61 -85 -61z" />
    <glyph glyph-name="cedilla" unicode="&#xb8;" horiz-adv-x="282" 
d="M127 -250c-31 0 -53 2 -75 7s-32 10 -32 59c0 48 11 58 30 58c14 0 36 -5 57 -5c12 0 16 2 16 8c0 7 -10 12 -24 18c-30 12 -38 24 -38 67v62h118v-42c0 -8 3 -11 13 -16c54 -26 70 -47 70 -104c0 -79 -46 -112 -135 -112z" />
    <glyph glyph-name="onesuperior" unicode="&#xb9;" horiz-adv-x="330" 
d="M40 350c0 53 9 56 35 56h31v140l-21 -4c-5 -1 -18 -4 -23 -4c-11 0 -24 4 -24 53c0 46 8 51 35 60l55 19c16 5 40 10 67 10c35 0 41 -5 41 -40v-234h32c26 0 35 -3 35 -56c0 -52 -9 -56 -35 -56h-193c-26 0 -35 4 -35 56z" />
    <glyph glyph-name="ordmasculine" unicode="&#xba;" horiz-adv-x="376" 
d="M182 240c-119 0 -162 35 -162 196c0 172 48 199 174 199c118 0 162 -30 162 -191c0 -173 -48 -204 -174 -204zM185 348c36 0 37 15 37 90c0 82 -6 90 -33 90c-35 0 -36 -12 -36 -87c0 -82 5 -93 32 -93z" />
    <glyph glyph-name="guillemotright" unicode="&#xbb;" horiz-adv-x="635" 
d="M300 251c0 -94 -19 -108 -60 -131l-166 -95c-8 -4 -17 -7 -25 -7c-17 0 -29 8 -29 51c0 67 7 75 37 102l87 76v8l-87 76c-30 27 -37 35 -37 102c0 43 12 51 29 51c8 0 17 -3 25 -7l166 -95c41 -23 60 -37 60 -131zM615 251c0 -84 -19 -98 -60 -121l-171 -95
c-8 -4 -17 -7 -25 -7c-17 0 -29 8 -29 51c0 72 7 79 37 102l87 66v8l-87 66c-30 23 -37 30 -37 102c0 43 12 51 29 51c8 0 17 -3 25 -7l171 -95c41 -23 60 -37 60 -121z" />
    <glyph glyph-name="onequarter" unicode="&#xbc;" horiz-adv-x="851" 
d="M710 0c-39 0 -66 2 -66 27v43h-128c-27 0 -34 10 -34 51c0 36 3 51 20 85l74 147c15 30 34 37 105 37c70 0 93 -3 93 -44v-178h24c19 0 24 -17 24 -53c0 -37 -5 -45 -24 -45h-24v-43c0 -25 -25 -27 -64 -27zM311 0c-45 0 -55 6 -55 21c0 10 2 22 10 45l192 539
c10 28 22 39 75 39c45 0 55 -6 55 -21c0 -10 -2 -22 -10 -45l-192 -539c-10 -28 -22 -39 -75 -39zM38 555c0 46 8 51 35 60l55 19c16 5 40 10 67 10c35 0 41 -5 41 -40v-234h32c26 0 35 -3 35 -56c0 -52 -9 -56 -35 -56h-193c-26 0 -35 4 -35 56c0 53 9 56 35 56h31v140
l-21 -4c-5 -1 -18 -4 -23 -4c-11 0 -24 4 -24 53zM651 293l-57 -125h57v125z" />
    <glyph glyph-name="onehalf" unicode="&#xbd;" horiz-adv-x="837" 
d="M311 0c-45 0 -55 6 -55 21c0 10 2 22 10 45l192 539c10 28 22 39 75 39c45 0 55 -6 55 -21c0 -10 -2 -22 -10 -45l-192 -539c-10 -28 -22 -39 -75 -39zM40 314c0 53 9 56 35 56h31v140l-21 -4c-5 -1 -18 -4 -23 -4c-11 0 -24 4 -24 53c0 46 8 51 35 60l55 19
c16 5 40 10 67 10c35 0 41 -5 41 -40v-234h32c26 0 35 -3 35 -56c0 -52 -9 -56 -35 -56h-193c-26 0 -35 4 -35 56zM812 56c0 -53 -9 -56 -36 -56h-211c-28 0 -40 4 -40 35v22c0 31 19 52 42 77l72 76c15 16 22 28 22 44c0 22 -9 26 -37 26c-23 0 -45 -6 -65 -6
c-13 0 -21 3 -21 46c0 48 8 53 27 58c30 8 73 11 102 11c64 0 131 -7 131 -98c0 -53 -14 -76 -49 -117l-54 -63h81c27 0 36 -3 36 -55z" />
    <glyph glyph-name="threequarters" unicode="&#xbe;" horiz-adv-x="828" 
d="M687 0c-39 0 -66 2 -66 27v43h-128c-27 0 -34 10 -34 51c0 36 3 51 20 85l74 147c15 30 34 37 105 37c70 0 93 -3 93 -44v-178h24c19 0 24 -17 24 -53c0 -37 -5 -45 -24 -45h-24v-43c0 -25 -25 -27 -64 -27zM287 0c-45 0 -55 6 -55 21c0 10 2 22 10 45l192 539
c10 28 22 39 75 39c45 0 55 -6 55 -21c0 -10 -2 -22 -10 -45l-192 -539c-10 -28 -22 -39 -75 -39zM153 250c-28 0 -77 3 -107 11c-19 6 -26 11 -26 58c0 42 8 46 20 46c20 0 51 -6 74 -6c27 0 45 4 45 25c0 24 -18 27 -61 27c-19 0 -22 14 -22 39c0 26 3 40 22 40
c46 0 61 4 61 24s-16 24 -41 24c-23 0 -54 -6 -74 -6c-12 0 -20 3 -20 46c0 48 7 53 26 58c30 8 79 11 107 11c65 0 131 -8 131 -99c0 -54 -25 -91 -69 -100c53 -1 79 -31 79 -95c0 -95 -80 -103 -145 -103zM628 293l-57 -125h57v125z" />
    <glyph glyph-name="questiondown" unicode="&#xbf;" horiz-adv-x="375" 
d="M207 451c54 0 75 -5 75 -45v-48c0 -34 -6 -50 -28 -73l-47 -51c-13 -14 -25 -32 -25 -56c0 -27 14 -33 41 -33c52 0 90 11 117 11c16 0 25 -12 25 -65c0 -62 -8 -66 -30 -73c-34 -10 -83 -18 -155 -18c-85 0 -170 23 -170 134c0 70 23 103 50 135l55 64
c12 14 17 26 17 48v25c0 40 21 45 75 45zM207 635c73 0 85 -10 85 -61v-25c0 -51 -12 -61 -85 -61s-85 10 -85 61v25c0 51 12 61 85 61z" />
    <glyph glyph-name="Agrave" unicode="&#xc0;" horiz-adv-x="556" 
d="M91 0c-73 0 -81 11 -81 39c0 12 3 29 8 51l101 460c16 71 44 80 159 80s143 -9 159 -80l101 -460c5 -22 8 -39 8 -51c0 -28 -8 -39 -81 -39c-75 0 -89 7 -97 50l-17 90h-146l-17 -90c-8 -43 -22 -50 -97 -50zM271 492l-43 -227h99l-42 227h-14zM303 673
c-70 0 -82 14 -95 44l-22 49c-10 23 -19 46 -19 62c0 22 12 32 85 32c80 0 88 -12 99 -59l11 -49c3 -12 7 -36 7 -49c0 -21 -15 -30 -66 -30z" />
    <glyph glyph-name="Aacute" unicode="&#xc1;" horiz-adv-x="556" 
d="M91 0c-73 0 -81 11 -81 39c0 12 3 29 8 51l101 460c16 71 44 80 159 80s143 -9 159 -80l101 -460c5 -22 8 -39 8 -51c0 -28 -8 -39 -81 -39c-75 0 -89 7 -97 50l-17 90h-146l-17 -90c-8 -43 -22 -50 -97 -50zM271 492l-43 -227h99l-42 227h-14zM253 673
c-51 0 -66 9 -66 30c0 13 4 37 7 49l11 49c11 47 19 59 99 59c73 0 85 -10 85 -32c0 -16 -9 -39 -19 -62l-22 -49c-13 -30 -25 -44 -95 -44z" />
    <glyph glyph-name="Acircumflex" unicode="&#xc2;" horiz-adv-x="556" 
d="M91 0c-73 0 -81 11 -81 39c0 12 3 29 8 51l101 460c16 71 44 80 159 80s143 -9 159 -80l101 -460c5 -22 8 -39 8 -51c0 -28 -8 -39 -81 -39c-75 0 -89 7 -97 50l-17 90h-146l-17 -90c-8 -43 -22 -50 -97 -50zM271 492l-43 -227h99l-42 227h-14zM281 744h-6l-26 -35
c-22 -30 -40 -36 -86 -36c-35 0 -50 11 -50 29c0 10 4 22 18 46l43 79c13 23 26 33 68 33h72c42 0 55 -10 68 -33l43 -79c14 -24 18 -36 18 -46c0 -18 -15 -29 -50 -29c-46 0 -62 6 -85 36z" />
    <glyph glyph-name="Atilde" unicode="&#xc3;" horiz-adv-x="556" 
d="M91 0c-73 0 -81 11 -81 39c0 12 3 29 8 51l101 460c16 71 44 80 159 80s143 -9 159 -80l101 -460c5 -22 8 -39 8 -51c0 -28 -8 -39 -81 -39c-75 0 -89 7 -97 50l-17 90h-146l-17 -90c-8 -43 -22 -50 -97 -50zM271 492l-43 -227h99l-42 227h-14zM115 729c0 47 7 58 28 72
c14 9 42 21 74 21c56 0 87 -19 129 -19c38 0 58 13 73 13c16 0 21 -7 21 -55c0 -47 -7 -58 -28 -72c-14 -9 -42 -21 -74 -21c-56 0 -87 19 -129 19c-39 0 -58 -13 -73 -13c-16 0 -21 7 -21 55z" />
    <glyph glyph-name="Adieresis" unicode="&#xc4;" horiz-adv-x="556" 
d="M91 0c-73 0 -81 11 -81 39c0 12 3 29 8 51l101 460c16 71 44 80 159 80s143 -9 159 -80l101 -460c5 -22 8 -39 8 -51c0 -28 -8 -39 -81 -39c-75 0 -89 7 -97 50l-17 90h-146l-17 -90c-8 -43 -22 -50 -97 -50zM271 492l-43 -227h99l-42 227h-14zM178 673
c-76 0 -85 12 -85 62v8c0 50 9 62 85 62s85 -12 85 -62v-8c0 -50 -9 -62 -85 -62zM378 673c-76 0 -85 12 -85 62v8c0 50 9 62 85 62s85 -12 85 -62v-8c0 -50 -9 -62 -85 -62z" />
    <glyph glyph-name="Aring" unicode="&#xc5;" horiz-adv-x="556" 
d="M91 0c-73 0 -81 11 -81 39c0 12 3 29 8 51l101 460c16 71 44 80 159 80s143 -9 159 -80l101 -460c5 -22 8 -39 8 -51c0 -28 -8 -39 -81 -39c-75 0 -89 7 -97 50l-17 90h-146l-17 -90c-8 -43 -22 -50 -97 -50zM271 492l-43 -227h99l-42 227h-14zM277 767c36 0 39 7 39 28
s-3 28 -39 28c-35 0 -38 -7 -38 -28s3 -28 38 -28zM277 668c-94 0 -150 18 -150 127s56 127 150 127c95 0 151 -18 151 -127s-56 -127 -151 -127z" />
    <glyph glyph-name="AE" unicode="&#xc6;" horiz-adv-x="736" 
d="M91 0c-73 0 -81 11 -81 39c0 12 3 29 8 51l101 460c16 71 44 80 159 80h393c30 0 40 -14 40 -74s-10 -74 -40 -74h-170v-82h100c35 0 40 -13 40 -73s-5 -73 -40 -73h-100v-106h180c30 0 40 -14 40 -74s-10 -74 -40 -74h-305c-32 0 -45 5 -45 40v100h-126l-17 -90
c-8 -43 -22 -50 -97 -50zM271 492l-43 -227h103v227h-60z" />
    <glyph glyph-name="Ccedilla" unicode="&#xc7;" horiz-adv-x="455" 
d="M243 -250c-31 0 -53 2 -75 7s-32 10 -32 59c0 48 11 58 30 58c14 0 36 -5 57 -5c12 0 16 2 16 8c0 7 -10 12 -24 18c-30 12 -38 24 -38 67v39c-83 17 -147 74 -147 248v106c0 260 121 280 227 280c58 0 113 -8 154 -19c16 -4 24 -12 24 -76c0 -47 -9 -66 -22 -66
c-18 0 -54 11 -113 11c-70 0 -100 -16 -100 -137v-63c0 -134 25 -140 100 -140c63 0 90 11 113 11c17 0 22 -16 22 -66c0 -61 -8 -72 -24 -76c-32 -9 -70 -15 -116 -18v-14c0 -8 3 -11 13 -16c54 -26 70 -47 70 -104c0 -79 -46 -112 -135 -112z" />
    <glyph glyph-name="Egrave" unicode="&#xc8;" horiz-adv-x="455" 
d="M440 74c0 -60 -10 -74 -40 -74h-315c-32 0 -45 5 -45 40v550c0 35 13 40 45 40h305c30 0 40 -14 40 -74s-10 -74 -40 -74h-180v-82h110c35 0 40 -13 40 -73s-5 -73 -40 -73h-110v-106h190c30 0 40 -14 40 -74zM265 673c-70 0 -82 14 -95 44l-22 49c-10 23 -19 46 -19 62
c0 22 12 32 85 32c80 0 88 -12 99 -59l11 -49c3 -12 7 -36 7 -49c0 -21 -15 -30 -66 -30z" />
    <glyph glyph-name="Eacute" unicode="&#xc9;" horiz-adv-x="455" 
d="M440 74c0 -60 -10 -74 -40 -74h-315c-32 0 -45 5 -45 40v550c0 35 13 40 45 40h305c30 0 40 -14 40 -74s-10 -74 -40 -74h-180v-82h110c35 0 40 -13 40 -73s-5 -73 -40 -73h-110v-106h190c30 0 40 -14 40 -74zM195 673c-51 0 -66 9 -66 30c0 13 4 37 7 49l11 49
c11 47 19 59 99 59c73 0 85 -10 85 -32c0 -16 -9 -39 -19 -62l-22 -49c-13 -30 -25 -44 -95 -44z" />
    <glyph glyph-name="Ecircumflex" unicode="&#xca;" horiz-adv-x="455" 
d="M440 74c0 -60 -10 -74 -40 -74h-315c-32 0 -45 5 -45 40v550c0 35 13 40 45 40h305c30 0 40 -14 40 -74s-10 -74 -40 -74h-180v-82h110c35 0 40 -13 40 -73s-5 -73 -40 -73h-110v-106h190c30 0 40 -14 40 -74zM244 744h-6l-26 -35c-22 -30 -40 -36 -86 -36
c-35 0 -50 11 -50 29c0 10 4 22 18 46l43 79c13 23 26 33 68 33h72c42 0 55 -10 68 -33l43 -79c14 -24 18 -36 18 -46c0 -18 -15 -29 -50 -29c-46 0 -62 6 -85 36z" />
    <glyph glyph-name="Edieresis" unicode="&#xcb;" horiz-adv-x="455" 
d="M440 74c0 -60 -10 -74 -40 -74h-315c-32 0 -45 5 -45 40v550c0 35 13 40 45 40h305c30 0 40 -14 40 -74s-10 -74 -40 -74h-180v-82h110c35 0 40 -13 40 -73s-5 -73 -40 -73h-110v-106h190c30 0 40 -14 40 -74zM141 663c-76 0 -85 12 -85 62v8c0 50 9 62 85 62
s85 -12 85 -62v-8c0 -50 -9 -62 -85 -62zM341 663c-76 0 -85 12 -85 62v8c0 50 9 62 85 62s85 -12 85 -62v-8c0 -50 -9 -62 -85 -62z" />
    <glyph glyph-name="Igrave" unicode="&#xcc;" horiz-adv-x="250" 
d="M125 0c-64 0 -85 5 -85 45v540c0 40 21 45 85 45s85 -5 85 -45v-540c0 -40 -21 -45 -85 -45zM154 673c-70 0 -82 14 -95 44l-22 49c-10 23 -19 46 -19 62c0 22 12 32 85 32c80 0 88 -12 99 -59l11 -49c3 -12 7 -36 7 -49c0 -21 -15 -30 -66 -30z" />
    <glyph glyph-name="Iacute" unicode="&#xcd;" horiz-adv-x="250" 
d="M125 0c-64 0 -85 5 -85 45v540c0 40 21 45 85 45s85 -5 85 -45v-540c0 -40 -21 -45 -85 -45zM96 673c-51 0 -66 9 -66 30c0 13 4 37 7 49l11 49c11 47 19 59 99 59c73 0 85 -10 85 -32c0 -16 -9 -39 -19 -62l-22 -49c-13 -30 -25 -44 -95 -44z" />
    <glyph glyph-name="Icircumflex" unicode="&#xce;" horiz-adv-x="250" 
d="M125 0c-64 0 -85 5 -85 45v540c0 40 21 45 85 45s85 -5 85 -45v-540c0 -40 -21 -45 -85 -45zM128 744h-6l-26 -35c-22 -30 -40 -36 -86 -36c-35 0 -50 11 -50 29c0 10 4 22 18 46l43 79c13 23 26 33 68 33h72c42 0 55 -10 68 -33l43 -79c14 -24 18 -36 18 -46
c0 -18 -15 -29 -50 -29c-46 0 -62 6 -85 36z" />
    <glyph glyph-name="Idieresis" unicode="&#xcf;" horiz-adv-x="250" 
d="M125 0c-64 0 -85 5 -85 45v540c0 40 21 45 85 45s85 -5 85 -45v-540c0 -40 -21 -45 -85 -45zM25 663c-76 0 -85 12 -85 62v8c0 50 9 62 85 62s85 -12 85 -62v-8c0 -50 -9 -62 -85 -62zM225 663c-76 0 -85 12 -85 62v8c0 50 9 62 85 62s85 -12 85 -62v-8
c0 -50 -9 -62 -85 -62z" />
    <glyph glyph-name="Eth" unicode="&#xd0;" horiz-adv-x="535" 
d="M-9 317c0 60 5 73 40 73h9v188c0 39 9 46 42 50c51 7 108 7 148 7c164 0 275 -20 275 -254v-96c0 -270 -120 -290 -260 -290c-66 0 -111 1 -166 7c-34 4 -39 12 -39 45v197h-9c-35 0 -40 13 -40 73zM245 142c75 0 90 16 90 143v90c0 90 -16 122 -97 122
c-7 0 -22 -1 -28 -2v-109h21c35 0 40 -12 40 -69s-5 -69 -40 -69h-21v-104c11 -1 16 -2 35 -2z" />
    <glyph glyph-name="Ntilde" unicode="&#xd1;" horiz-adv-x="567" 
d="M125 0c-64 0 -85 5 -85 45v540c0 40 21 45 85 45c40 0 67 -3 89 -43l135 -253h8v251c0 40 21 45 85 45s85 -5 85 -45v-540c0 -40 -17 -45 -81 -45c-40 0 -57 3 -80 42l-148 254h-8v-251c0 -40 -21 -45 -85 -45zM121 729c0 47 7 58 28 72c14 9 42 21 74 21
c56 0 87 -19 129 -19c38 0 58 13 73 13c16 0 21 -7 21 -55c0 -47 -7 -58 -28 -72c-14 -9 -42 -21 -74 -21c-56 0 -87 19 -129 19c-39 0 -58 -13 -73 -13c-16 0 -21 7 -21 55z" />
    <glyph glyph-name="Ograve" unicode="&#xd2;" horiz-adv-x="536" 
d="M268 140c58 0 68 15 68 145v60c0 130 -10 145 -68 145s-68 -15 -68 -145v-60c0 -130 10 -145 68 -145zM268 -5c-160 0 -238 30 -238 270v90c0 250 68 280 238 280s238 -30 238 -280v-90c0 -240 -78 -270 -238 -270zM298 673c-70 0 -82 14 -95 44l-22 49
c-10 23 -19 46 -19 62c0 22 12 32 85 32c80 0 88 -12 99 -59l11 -49c3 -12 7 -36 7 -49c0 -21 -15 -30 -66 -30z" />
    <glyph glyph-name="Oacute" unicode="&#xd3;" horiz-adv-x="536" 
d="M268 140c58 0 68 15 68 145v60c0 130 -10 145 -68 145s-68 -15 -68 -145v-60c0 -130 10 -145 68 -145zM268 -5c-160 0 -238 30 -238 270v90c0 250 68 280 238 280s238 -30 238 -280v-90c0 -240 -78 -270 -238 -270zM238 673c-51 0 -66 9 -66 30c0 13 4 37 7 49l11 49
c11 47 19 59 99 59c73 0 85 -10 85 -32c0 -16 -9 -39 -19 -62l-22 -49c-13 -30 -25 -44 -95 -44z" />
    <glyph glyph-name="Ocircumflex" unicode="&#xd4;" horiz-adv-x="536" 
d="M268 140c58 0 68 15 68 145v60c0 130 -10 145 -68 145s-68 -15 -68 -145v-60c0 -130 10 -145 68 -145zM268 -5c-160 0 -238 30 -238 270v90c0 250 68 280 238 280s238 -30 238 -280v-90c0 -240 -78 -270 -238 -270zM271 744h-6l-26 -35c-22 -30 -40 -36 -86 -36
c-35 0 -50 11 -50 29c0 10 4 22 18 46l43 79c13 23 26 33 68 33h72c42 0 55 -10 68 -33l43 -79c14 -24 18 -36 18 -46c0 -18 -15 -29 -50 -29c-46 0 -62 6 -85 36z" />
    <glyph glyph-name="Otilde" unicode="&#xd5;" horiz-adv-x="536" 
d="M268 140c58 0 68 15 68 145v60c0 130 -10 145 -68 145s-68 -15 -68 -145v-60c0 -130 10 -145 68 -145zM268 -5c-160 0 -238 30 -238 270v90c0 250 68 280 238 280s238 -30 238 -280v-90c0 -240 -78 -270 -238 -270zM105 729c0 47 7 58 28 72c14 9 42 21 74 21
c56 0 87 -19 129 -19c38 0 58 13 73 13c16 0 21 -7 21 -55c0 -47 -7 -58 -28 -72c-14 -9 -42 -21 -74 -21c-56 0 -87 19 -129 19c-39 0 -58 -13 -73 -13c-16 0 -21 7 -21 55z" />
    <glyph glyph-name="Odieresis" unicode="&#xd6;" horiz-adv-x="536" 
d="M268 140c58 0 68 15 68 145v60c0 130 -10 145 -68 145s-68 -15 -68 -145v-60c0 -130 10 -145 68 -145zM268 -5c-160 0 -238 30 -238 270v90c0 250 68 280 238 280s238 -30 238 -280v-90c0 -240 -78 -270 -238 -270zM168 668c-76 0 -85 12 -85 62v8c0 50 9 62 85 62
s85 -12 85 -62v-8c0 -50 -9 -62 -85 -62zM368 668c-76 0 -85 12 -85 62v8c0 50 9 62 85 62s85 -12 85 -62v-8c0 -50 -9 -62 -85 -62z" />
    <glyph glyph-name="multiply" unicode="&#xd7;" 
d="M67 113c0 12 11 29 19 41l83 113l-83 119c-8 12 -19 29 -19 41c0 13 10 20 56 20c41 0 59 -6 71 -23l40 -61l41 61c12 17 30 23 71 23c46 0 56 -7 56 -20c0 -12 -11 -29 -19 -41l-84 -119l84 -113c8 -12 19 -29 19 -41c0 -13 -10 -20 -56 -20c-41 0 -59 6 -71 23l-41 58
l-40 -58c-12 -17 -30 -23 -71 -23c-46 0 -56 7 -56 20z" />
    <glyph glyph-name="Oslash" unicode="&#xd8;" horiz-adv-x="536" 
d="M268 -5c-160 0 -238 30 -238 270v90c0 250 68 280 238 280s238 -30 238 -280v-90c0 -240 -78 -270 -238 -270zM268 140c58 0 68 15 68 145v16l-131 -114c7 -41 25 -47 63 -47zM200 345v-12l130 112c-8 38 -25 45 -62 45c-58 0 -68 -15 -68 -145z" />
    <glyph glyph-name="Ugrave" unicode="&#xd9;" horiz-adv-x="536" 
d="M268 -5c-170 0 -228 50 -228 200v390c0 40 21 45 85 45s85 -5 85 -45v-400c0 -42 8 -50 58 -50s58 8 58 50v400c0 40 21 45 85 45s85 -5 85 -45v-390c0 -150 -58 -200 -228 -200zM283 673c-70 0 -82 14 -95 44l-22 49c-10 23 -19 46 -19 62c0 22 12 32 85 32
c80 0 88 -12 99 -59l11 -49c3 -12 7 -36 7 -49c0 -21 -15 -30 -66 -30z" />
    <glyph glyph-name="Uacute" unicode="&#xda;" horiz-adv-x="536" 
d="M268 -5c-170 0 -228 50 -228 200v390c0 40 21 45 85 45s85 -5 85 -45v-400c0 -42 8 -50 58 -50s58 8 58 50v400c0 40 21 45 85 45s85 -5 85 -45v-390c0 -150 -58 -200 -228 -200zM253 673c-51 0 -66 9 -66 30c0 13 4 37 7 49l11 49c11 47 19 59 99 59c73 0 85 -10 85 -32
c0 -16 -9 -39 -19 -62l-22 -49c-13 -30 -25 -44 -95 -44z" />
    <glyph glyph-name="Ucircumflex" unicode="&#xdb;" horiz-adv-x="536" 
d="M268 -5c-170 0 -228 50 -228 200v390c0 40 21 45 85 45s85 -5 85 -45v-400c0 -42 8 -50 58 -50s58 8 58 50v400c0 40 21 45 85 45s85 -5 85 -45v-390c0 -150 -58 -200 -228 -200zM271 744h-6l-26 -35c-22 -30 -40 -36 -86 -36c-35 0 -50 11 -50 29c0 10 4 22 18 46l43 79
c13 23 26 33 68 33h72c42 0 55 -10 68 -33l43 -79c14 -24 18 -36 18 -46c0 -18 -15 -29 -50 -29c-46 0 -62 6 -85 36z" />
    <glyph glyph-name="Udieresis" unicode="&#xdc;" horiz-adv-x="536" 
d="M268 -5c-170 0 -228 50 -228 200v390c0 40 21 45 85 45s85 -5 85 -45v-400c0 -42 8 -50 58 -50s58 8 58 50v400c0 40 21 45 85 45s85 -5 85 -45v-390c0 -150 -58 -200 -228 -200zM168 668c-76 0 -85 12 -85 62v8c0 50 9 62 85 62s85 -12 85 -62v-8c0 -50 -9 -62 -85 -62z
M368 668c-76 0 -85 12 -85 62v8c0 50 9 62 85 62s85 -12 85 -62v-8c0 -50 -9 -62 -85 -62z" />
    <glyph glyph-name="Yacute" unicode="&#xdd;" horiz-adv-x="506" 
d="M253 0c-64 0 -85 5 -85 45v170l-136 307c-19 44 -23 60 -23 70c0 17 8 38 72 38c87 0 99 -8 112 -50l57 -192h6l57 192c13 42 22 50 107 50c69 0 77 -19 77 -36c0 -10 -4 -28 -23 -72l-136 -307v-170c0 -40 -21 -45 -85 -45zM233 673c-51 0 -66 9 -66 30c0 13 4 37 7 49
l11 49c11 47 19 59 99 59c73 0 85 -10 85 -32c0 -16 -9 -39 -19 -62l-22 -49c-13 -30 -25 -44 -95 -44z" />
    <glyph glyph-name="Thorn" unicode="&#xde;" horiz-adv-x="484" 
d="M125 0c-64 0 -85 5 -85 45v540c0 40 21 45 85 45s85 -5 85 -45v-57c21 1 44 2 68 2c121 0 196 -33 196 -201c0 -183 -99 -219 -259 -219h-5v-65c0 -40 -21 -45 -85 -45zM210 390v-145h15c68 0 85 11 85 81c0 57 -23 66 -55 66c-15 0 -35 -1 -45 -2z" />
    <glyph glyph-name="germandbls" unicode="&#xdf;" horiz-adv-x="541" 
d="M241 680c160 0 212 -44 212 -140c0 -94 -40 -153 -40 -190c0 -13 6 -24 17 -32l46 -35c47 -37 60 -66 60 -136c0 -114 -74 -157 -161 -157c-34 0 -69 4 -101 15c-19 7 -29 20 -29 69c0 48 9 68 27 68c13 0 30 -6 57 -6s35 5 35 27c0 16 -5 22 -13 28l-43 29
c-34 23 -48 60 -48 95c0 58 33 121 33 190c0 28 -7 40 -48 40c-34 0 -40 -6 -40 -36v-464c0 -40 -21 -45 -85 -45s-85 5 -85 45v485c0 109 45 150 206 150z" />
    <glyph glyph-name="agrave" unicode="&#xe0;" horiz-adv-x="487" 
d="M149 -10c-88 0 -129 46 -129 153c0 108 46 159 204 159h54v6c0 55 -16 55 -64 55c-67 0 -113 -13 -137 -13c-20 0 -29 20 -29 68c0 47 8 60 31 68c28 10 92 19 160 19c141 0 206 -20 206 -148v-113c0 -145 17 -177 17 -206c0 -26 -12 -38 -78 -38c-57 0 -67 5 -77 41
l-11 41c-23 -64 -72 -92 -147 -92zM217 122c28 0 61 10 61 75v11l-50 -1c-38 -1 -48 -12 -48 -45s10 -40 37 -40zM278 538c-70 0 -82 14 -95 44l-22 49c-10 23 -19 46 -19 62c0 22 12 32 85 32c80 0 88 -12 99 -59l11 -49c3 -12 7 -36 7 -49c0 -21 -15 -30 -66 -30z" />
    <glyph glyph-name="aacute" unicode="&#xe1;" horiz-adv-x="487" 
d="M149 -10c-88 0 -129 46 -129 153c0 108 46 159 204 159h54v6c0 55 -16 55 -64 55c-67 0 -113 -13 -137 -13c-20 0 -29 20 -29 68c0 47 8 60 31 68c28 10 92 19 160 19c141 0 206 -20 206 -148v-113c0 -145 17 -177 17 -206c0 -26 -12 -38 -78 -38c-57 0 -67 5 -77 41
l-11 41c-23 -64 -72 -92 -147 -92zM217 122c28 0 61 10 61 75v11l-50 -1c-38 -1 -48 -12 -48 -45s10 -40 37 -40zM214 538c-51 0 -66 9 -66 30c0 13 4 37 7 49l11 49c11 47 19 59 99 59c73 0 85 -10 85 -32c0 -16 -9 -39 -19 -62l-22 -49c-13 -30 -25 -44 -95 -44z" />
    <glyph glyph-name="acircumflex" unicode="&#xe2;" horiz-adv-x="487" 
d="M149 -10c-88 0 -129 46 -129 153c0 108 46 159 204 159h54v6c0 55 -16 55 -64 55c-67 0 -113 -13 -137 -13c-20 0 -29 20 -29 68c0 47 8 60 31 68c28 10 92 19 160 19c141 0 206 -20 206 -148v-113c0 -145 17 -177 17 -206c0 -26 -12 -38 -78 -38c-57 0 -67 5 -77 41
l-11 41c-23 -64 -72 -92 -147 -92zM217 122c28 0 61 10 61 75v11l-50 -1c-38 -1 -48 -12 -48 -45s10 -40 37 -40zM249 609h-6l-26 -35c-22 -30 -40 -36 -86 -36c-35 0 -50 11 -50 29c0 10 4 22 18 46l43 79c13 23 26 33 68 33h72c42 0 55 -10 68 -33l43 -79
c14 -24 18 -36 18 -46c0 -18 -15 -29 -50 -29c-46 0 -62 6 -85 36z" />
    <glyph glyph-name="atilde" unicode="&#xe3;" horiz-adv-x="487" 
d="M149 -10c-88 0 -129 46 -129 153c0 108 46 159 204 159h54v6c0 55 -16 55 -64 55c-67 0 -113 -13 -137 -13c-20 0 -29 20 -29 68c0 47 8 60 31 68c28 10 92 19 160 19c141 0 206 -20 206 -148v-113c0 -145 17 -177 17 -206c0 -26 -12 -38 -78 -38c-57 0 -67 5 -77 41
l-11 41c-23 -64 -72 -92 -147 -92zM217 122c28 0 61 10 61 75v11l-50 -1c-38 -1 -48 -12 -48 -45s10 -40 37 -40zM84 605c0 47 7 58 28 72c14 9 42 21 74 21c56 0 87 -19 129 -19c38 0 58 13 73 13c16 0 21 -7 21 -55c0 -47 -7 -58 -28 -72c-14 -9 -42 -21 -74 -21
c-56 0 -87 19 -129 19c-39 0 -58 -13 -73 -13c-16 0 -21 7 -21 55z" />
    <glyph glyph-name="adieresis" unicode="&#xe4;" horiz-adv-x="487" 
d="M149 -10c-88 0 -129 46 -129 153c0 108 46 159 204 159h54v6c0 55 -16 55 -64 55c-67 0 -113 -13 -137 -13c-20 0 -29 20 -29 68c0 47 8 60 31 68c28 10 92 19 160 19c141 0 206 -20 206 -148v-113c0 -145 17 -177 17 -206c0 -26 -12 -38 -78 -38c-57 0 -67 5 -77 41
l-11 41c-23 -64 -72 -92 -147 -92zM217 122c28 0 61 10 61 75v11l-50 -1c-38 -1 -48 -12 -48 -45s10 -40 37 -40zM146 528c-76 0 -85 12 -85 62v8c0 50 9 62 85 62s85 -12 85 -62v-8c0 -50 -9 -62 -85 -62zM346 528c-76 0 -85 12 -85 62v8c0 50 9 62 85 62s85 -12 85 -62v-8
c0 -50 -9 -62 -85 -62z" />
    <glyph glyph-name="aring" unicode="&#xe5;" horiz-adv-x="487" 
d="M149 -10c-88 0 -129 46 -129 153c0 108 46 159 204 159h54v6c0 55 -16 55 -64 55c-67 0 -113 -13 -137 -13c-20 0 -29 20 -29 68c0 47 8 60 31 68c28 10 92 19 160 19c141 0 206 -20 206 -148v-113c0 -145 17 -177 17 -206c0 -26 -12 -38 -78 -38c-57 0 -67 5 -77 41
l-11 41c-23 -64 -72 -92 -147 -92zM217 122c28 0 61 10 61 75v11l-50 -1c-38 -1 -48 -12 -48 -45s10 -40 37 -40zM243 637c36 0 39 7 39 28s-3 28 -39 28c-35 0 -38 -7 -38 -28s3 -28 38 -28zM243 538c-94 0 -150 18 -150 127s56 127 150 127c95 0 151 -18 151 -127
s-56 -127 -151 -127z" />
    <glyph glyph-name="ae" unicode="&#xe6;" horiz-adv-x="736" 
d="M482 -10c-70 0 -121 7 -148 36c-13 14 -25 37 -33 73c-20 -75 -71 -109 -152 -109c-88 0 -129 46 -129 153c0 108 46 159 204 159h54v6c0 55 -16 55 -64 55c-67 0 -113 -13 -137 -13c-20 0 -29 20 -29 68c0 47 8 60 31 68c28 10 92 19 160 19c67 0 113 -6 144 -26
c34 18 78 26 135 26c156 0 188 -69 188 -233c0 -47 -10 -72 -58 -72h-201c5 -60 24 -66 76 -66c78 0 134 11 147 11c18 0 27 -20 27 -68c0 -49 -10 -62 -29 -68c-35 -12 -137 -19 -186 -19zM217 122c28 0 61 10 61 75v11l-50 -1c-38 -1 -48 -12 -48 -45s10 -40 37 -40z
M500 365c-40 0 -52 -6 -55 -68h104c0 57 -7 68 -49 68z" />
    <glyph glyph-name="ccedilla" unicode="&#xe7;" horiz-adv-x="434" 
d="M218 -250c-31 0 -53 2 -75 7s-32 10 -32 59c0 48 11 58 30 58c14 0 36 -5 57 -5c12 0 16 2 16 8c0 7 -10 12 -24 18c-30 12 -38 24 -38 67v39c-76 22 -122 84 -122 244c0 225 73 260 213 260c52 0 110 -10 136 -19c19 -7 29 -19 29 -68c0 -48 -9 -68 -27 -68
c-13 0 -71 11 -109 11c-56 0 -75 -3 -75 -101c0 -115 12 -126 78 -126c59 0 94 11 107 11c18 0 27 -20 27 -68c0 -49 -10 -62 -29 -68c-31 -10 -72 -17 -110 -19v-8c0 -8 3 -11 13 -16c54 -26 70 -47 70 -104c0 -79 -46 -112 -135 -112z" />
    <glyph glyph-name="egrave" unicode="&#xe8;" horiz-adv-x="488" 
d="M266 -10c-144 0 -236 31 -236 255c0 225 69 260 224 260c172 0 204 -69 204 -233c0 -47 -10 -72 -58 -72h-201c5 -60 24 -66 76 -66c78 0 134 11 147 11c18 0 27 -20 27 -68c0 -49 -10 -62 -29 -68c-35 -12 -112 -19 -154 -19zM252 365c-40 0 -52 -6 -55 -68h104
c0 57 -7 68 -49 68zM269 538c-70 0 -82 14 -95 44l-22 49c-10 23 -19 46 -19 62c0 22 12 32 85 32c80 0 88 -12 99 -59l11 -49c3 -12 7 -36 7 -49c0 -21 -15 -30 -66 -30z" />
    <glyph glyph-name="eacute" unicode="&#xe9;" horiz-adv-x="488" 
d="M266 -10c-144 0 -236 31 -236 255c0 225 69 260 224 260c172 0 204 -69 204 -233c0 -47 -10 -72 -58 -72h-201c5 -60 24 -66 76 -66c78 0 134 11 147 11c18 0 27 -20 27 -68c0 -49 -10 -62 -29 -68c-35 -12 -112 -19 -154 -19zM252 365c-40 0 -52 -6 -55 -68h104
c0 57 -7 68 -49 68zM219 538c-51 0 -66 9 -66 30c0 13 4 37 7 49l11 49c11 47 19 59 99 59c73 0 85 -10 85 -32c0 -16 -9 -39 -19 -62l-22 -49c-13 -30 -25 -44 -95 -44z" />
    <glyph glyph-name="ecircumflex" unicode="&#xea;" horiz-adv-x="488" 
d="M266 -10c-144 0 -236 31 -236 255c0 225 69 260 224 260c172 0 204 -69 204 -233c0 -47 -10 -72 -58 -72h-201c5 -60 24 -66 76 -66c78 0 134 11 147 11c18 0 27 -20 27 -68c0 -49 -10 -62 -29 -68c-35 -12 -112 -19 -154 -19zM252 365c-40 0 -52 -6 -55 -68h104
c0 57 -7 68 -49 68zM247 609h-6l-26 -35c-22 -30 -40 -36 -86 -36c-35 0 -50 11 -50 29c0 10 4 22 18 46l43 79c13 23 26 33 68 33h72c42 0 55 -10 68 -33l43 -79c14 -24 18 -36 18 -46c0 -18 -15 -29 -50 -29c-46 0 -62 6 -85 36z" />
    <glyph glyph-name="edieresis" unicode="&#xeb;" horiz-adv-x="488" 
d="M266 -10c-144 0 -236 31 -236 255c0 225 69 260 224 260c172 0 204 -69 204 -233c0 -47 -10 -72 -58 -72h-201c5 -60 24 -66 76 -66c78 0 134 11 147 11c18 0 27 -20 27 -68c0 -49 -10 -62 -29 -68c-35 -12 -112 -19 -154 -19zM252 365c-40 0 -52 -6 -55 -68h104
c0 57 -7 68 -49 68zM144 528c-76 0 -85 12 -85 62v8c0 50 9 62 85 62s85 -12 85 -62v-8c0 -50 -9 -62 -85 -62zM344 528c-76 0 -85 12 -85 62v8c0 50 9 62 85 62s85 -12 85 -62v-8c0 -50 -9 -62 -85 -62z" />
    <glyph glyph-name="igrave" unicode="&#xec;" horiz-adv-x="245" 
d="M120 0c-64 0 -85 5 -85 45v405c0 40 21 45 85 45s85 -5 85 -45v-405c0 -40 -21 -45 -85 -45zM146 538c-70 0 -82 14 -95 44l-22 49c-10 23 -19 46 -19 62c0 22 12 32 85 32c80 0 88 -12 99 -59l11 -49c3 -12 7 -36 7 -49c0 -21 -15 -30 -66 -30z" />
    <glyph glyph-name="iacute" unicode="&#xed;" horiz-adv-x="245" 
d="M120 0c-64 0 -85 5 -85 45v405c0 40 21 45 85 45s85 -5 85 -45v-405c0 -40 -21 -45 -85 -45zM96 538c-51 0 -66 9 -66 30c0 13 4 37 7 49l11 49c11 47 19 59 99 59c73 0 85 -10 85 -32c0 -16 -9 -39 -19 -62l-22 -49c-13 -30 -25 -44 -95 -44z" />
    <glyph glyph-name="icircumflex" unicode="&#xee;" horiz-adv-x="245" 
d="M120 0c-64 0 -85 5 -85 45v405c0 40 21 45 85 45s85 -5 85 -45v-405c0 -40 -21 -45 -85 -45zM124 609h-6l-26 -35c-22 -30 -40 -36 -86 -36c-35 0 -50 11 -50 29c0 10 4 22 18 46l43 79c13 23 26 33 68 33h72c42 0 55 -10 68 -33l43 -79c14 -24 18 -36 18 -46
c0 -18 -15 -29 -50 -29c-46 0 -62 6 -85 36z" />
    <glyph glyph-name="idieresis" unicode="&#xef;" horiz-adv-x="245" 
d="M120 0c-64 0 -85 5 -85 45v405c0 40 21 45 85 45s85 -5 85 -45v-405c0 -40 -21 -45 -85 -45zM21 528c-76 0 -85 12 -85 62v8c0 50 9 62 85 62s85 -12 85 -62v-8c0 -50 -9 -62 -85 -62zM221 528c-76 0 -85 12 -85 62v8c0 50 9 62 85 62s85 -12 85 -62v-8
c0 -50 -9 -62 -85 -62z" />
    <glyph glyph-name="eth" unicode="&#xf0;" horiz-adv-x="512" 
d="M464 610c0 -13 -6 -17 -21 -21l-33 -9c33 -90 72 -220 72 -325c0 -225 -64 -265 -234 -265c-160 0 -218 45 -218 255c0 225 58 260 153 260c50 0 81 -14 101 -40c-4 27 -10 52 -17 77l-38 -10c-6 -2 -12 -3 -16 -3c-11 0 -15 7 -22 29c-6 20 -7 31 -7 36c0 13 6 17 21 21
l37 10c-4 17 -7 32 -7 42c0 14 3 33 67 33c54 0 60 -7 71 -31l4 -8l42 11c6 2 12 3 16 3c11 0 15 -7 22 -29c6 -20 7 -31 7 -36zM253 130c52 0 57 20 57 118c0 107 -14 117 -52 117c-52 0 -57 -15 -57 -113c0 -107 14 -122 52 -122z" />
    <glyph glyph-name="ntilde" unicode="&#xf1;" horiz-adv-x="522" 
d="M127 0c-64 0 -85 5 -85 45v206c0 145 -17 177 -17 206c0 26 12 38 78 38c57 0 67 -5 77 -41l12 -46c25 58 72 97 151 97c104 0 139 -39 139 -148v-312c0 -40 -21 -45 -85 -45s-85 5 -85 45v270c0 32 -8 45 -34 45c-50 0 -66 -37 -66 -152v-163c0 -40 -21 -45 -85 -45z
M100 605c0 47 7 58 28 72c14 9 42 21 74 21c56 0 87 -19 129 -19c38 0 58 13 73 13c16 0 21 -7 21 -55c0 -47 -7 -58 -28 -72c-14 -9 -42 -21 -74 -21c-56 0 -87 19 -129 19c-39 0 -58 -13 -73 -13c-16 0 -21 7 -21 55z" />
    <glyph glyph-name="ograve" unicode="&#xf2;" horiz-adv-x="512" 
d="M248 -10c-160 0 -218 45 -218 255c0 225 64 260 234 260c160 0 218 -40 218 -250c0 -225 -64 -265 -234 -265zM253 130c52 0 57 20 57 118c0 107 -14 117 -52 117c-52 0 -57 -15 -57 -113c0 -107 14 -122 52 -122zM281 538c-70 0 -82 14 -95 44l-22 49
c-10 23 -19 46 -19 62c0 22 12 32 85 32c80 0 88 -12 99 -59l11 -49c3 -12 7 -36 7 -49c0 -21 -15 -30 -66 -30z" />
    <glyph glyph-name="oacute" unicode="&#xf3;" horiz-adv-x="512" 
d="M248 -10c-160 0 -218 45 -218 255c0 225 64 260 234 260c160 0 218 -40 218 -250c0 -225 -64 -265 -234 -265zM253 130c52 0 57 20 57 118c0 107 -14 117 -52 117c-52 0 -57 -15 -57 -113c0 -107 14 -122 52 -122zM231 538c-51 0 -66 9 -66 30c0 13 4 37 7 49l11 49
c11 47 19 59 99 59c73 0 85 -10 85 -32c0 -16 -9 -39 -19 -62l-22 -49c-13 -30 -25 -44 -95 -44z" />
    <glyph glyph-name="ocircumflex" unicode="&#xf4;" horiz-adv-x="512" 
d="M248 -10c-160 0 -218 45 -218 255c0 225 64 260 234 260c160 0 218 -40 218 -250c0 -225 -64 -265 -234 -265zM253 130c52 0 57 20 57 118c0 107 -14 117 -52 117c-52 0 -57 -15 -57 -113c0 -107 14 -122 52 -122zM259 609h-6l-26 -35c-22 -30 -40 -36 -86 -36
c-35 0 -50 11 -50 29c0 10 4 22 18 46l43 79c13 23 26 33 68 33h72c42 0 55 -10 68 -33l43 -79c14 -24 18 -36 18 -46c0 -18 -15 -29 -50 -29c-46 0 -62 6 -85 36z" />
    <glyph glyph-name="otilde" unicode="&#xf5;" horiz-adv-x="512" 
d="M248 -10c-160 0 -218 45 -218 255c0 225 64 260 234 260c160 0 218 -40 218 -250c0 -225 -64 -265 -234 -265zM253 130c52 0 57 20 57 118c0 107 -14 117 -52 117c-52 0 -57 -15 -57 -113c0 -107 14 -122 52 -122zM93 605c0 47 7 58 28 72c14 9 42 21 74 21
c56 0 87 -19 129 -19c38 0 58 13 73 13c16 0 21 -7 21 -55c0 -47 -7 -58 -28 -72c-14 -9 -42 -21 -74 -21c-56 0 -87 19 -129 19c-39 0 -58 -13 -73 -13c-16 0 -21 7 -21 55z" />
    <glyph glyph-name="odieresis" unicode="&#xf6;" horiz-adv-x="512" 
d="M248 -10c-160 0 -218 45 -218 255c0 225 64 260 234 260c160 0 218 -40 218 -250c0 -225 -64 -265 -234 -265zM253 130c52 0 57 20 57 118c0 107 -14 117 -52 117c-52 0 -57 -15 -57 -113c0 -107 14 -122 52 -122zM156 528c-76 0 -85 12 -85 62v8c0 50 9 62 85 62
s85 -12 85 -62v-8c0 -50 -9 -62 -85 -62zM356 528c-76 0 -85 12 -85 62v8c0 50 9 62 85 62s85 -12 85 -62v-8c0 -50 -9 -62 -85 -62z" />
    <glyph glyph-name="divide" unicode="&#xf7;" 
d="M65 268c0 60 5 63 40 63h260c35 0 40 -3 40 -63s-5 -63 -40 -63h-260c-35 0 -40 3 -40 63zM239 360c-54 0 -63 7 -63 45v35c0 38 9 45 63 45c56 0 64 -7 64 -45v-35c0 -38 -8 -45 -64 -45zM239 43c-54 0 -63 7 -63 45v35c0 38 9 45 63 45c56 0 64 -7 64 -45v-35
c0 -38 -8 -45 -64 -45z" />
    <glyph glyph-name="oslash" unicode="&#xf8;" horiz-adv-x="512" 
d="M248 -10c-160 0 -218 45 -218 255c0 225 64 260 234 260c160 0 218 -40 218 -250c0 -225 -64 -265 -234 -265zM253 130c50 0 56 19 57 108l-104 -66c6 -34 20 -42 47 -42zM258 365c-51 0 -57 -15 -57 -108l104 68c-7 35 -22 40 -47 40z" />
    <glyph glyph-name="ugrave" unicode="&#xf9;" horiz-adv-x="515" 
d="M171 -10c-94 0 -136 29 -136 138v322c0 40 21 45 85 45s85 -5 85 -45v-278c0 -32 8 -37 34 -37c50 0 64 37 64 152v163c0 40 21 45 85 45s85 -5 85 -45v-206c0 -145 17 -177 17 -206c0 -26 -12 -38 -78 -38c-57 0 -67 5 -77 41l-10 38c-26 -56 -75 -89 -154 -89zM272 538
c-70 0 -82 14 -95 44l-22 49c-10 23 -19 46 -19 62c0 22 12 32 85 32c80 0 88 -12 99 -59l11 -49c3 -12 7 -36 7 -49c0 -21 -15 -30 -66 -30z" />
    <glyph glyph-name="uacute" unicode="&#xfa;" horiz-adv-x="515" 
d="M171 -10c-94 0 -136 29 -136 138v322c0 40 21 45 85 45s85 -5 85 -45v-278c0 -32 8 -37 34 -37c50 0 64 37 64 152v163c0 40 21 45 85 45s85 -5 85 -45v-206c0 -145 17 -177 17 -206c0 -26 -12 -38 -78 -38c-57 0 -67 5 -77 41l-10 38c-26 -56 -75 -89 -154 -89zM237 538
c-51 0 -66 9 -66 30c0 13 4 37 7 49l11 49c11 47 19 59 99 59c73 0 85 -10 85 -32c0 -16 -9 -39 -19 -62l-22 -49c-13 -30 -25 -44 -95 -44z" />
    <glyph glyph-name="ucircumflex" unicode="&#xfb;" horiz-adv-x="515" 
d="M171 -10c-94 0 -136 29 -136 138v322c0 40 21 45 85 45s85 -5 85 -45v-278c0 -32 8 -37 34 -37c50 0 64 37 64 152v163c0 40 21 45 85 45s85 -5 85 -45v-206c0 -145 17 -177 17 -206c0 -26 -12 -38 -78 -38c-57 0 -67 5 -77 41l-10 38c-26 -56 -75 -89 -154 -89zM258 609
h-6l-26 -35c-22 -30 -40 -36 -86 -36c-35 0 -50 11 -50 29c0 10 4 22 18 46l43 79c13 23 26 33 68 33h72c42 0 55 -10 68 -33l43 -79c14 -24 18 -36 18 -46c0 -18 -15 -29 -50 -29c-46 0 -62 6 -85 36z" />
    <glyph glyph-name="udieresis" unicode="&#xfc;" horiz-adv-x="515" 
d="M171 -10c-94 0 -136 29 -136 138v322c0 40 21 45 85 45s85 -5 85 -45v-278c0 -32 8 -37 34 -37c50 0 64 37 64 152v163c0 40 21 45 85 45s85 -5 85 -45v-206c0 -145 17 -177 17 -206c0 -26 -12 -38 -78 -38c-57 0 -67 5 -77 41l-10 38c-26 -56 -75 -89 -154 -89zM155 528
c-76 0 -85 12 -85 62v8c0 50 9 62 85 62s85 -12 85 -62v-8c0 -50 -9 -62 -85 -62zM355 528c-76 0 -85 12 -85 62v8c0 50 9 62 85 62s85 -12 85 -62v-8c0 -50 -9 -62 -85 -62z" />
    <glyph glyph-name="yacute" unicode="&#xfd;" horiz-adv-x="499" 
d="M10 454c0 23 8 41 88 41c71 0 87 -7 92 -44l46 -314h14l58 314c7 37 21 44 91 44c77 0 90 -13 90 -40c0 -14 -4 -35 -23 -111l-93 -362c-38 -146 -75 -182 -209 -182c-42 0 -93 7 -124 19c-20 8 -29 19 -29 68c0 48 9 68 27 68c13 0 48 -11 107 -11c63 0 72 12 78 42
l2 14h-14c-88 0 -104 17 -114 60l-64 275c-20 85 -23 106 -23 119zM234 538c-51 0 -66 9 -66 30c0 13 4 37 7 49l11 49c11 47 19 59 99 59c73 0 85 -10 85 -32c0 -16 -9 -39 -19 -62l-22 -49c-13 -30 -25 -44 -95 -44z" />
    <glyph glyph-name="thorn" unicode="&#xfe;" horiz-adv-x="526" 
d="M212 615v-154c28 29 69 44 124 44c120 0 160 -44 160 -240c0 -234 -53 -275 -175 -275c-63 0 -94 16 -109 43v-173c0 -40 -21 -45 -85 -45s-85 5 -85 45v755c0 40 21 45 85 45s85 -5 85 -45zM271 130c40 0 53 9 53 125c0 104 -12 110 -56 110c-41 0 -60 -14 -60 -106v-24
c0 -94 17 -105 63 -105z" />
    <glyph glyph-name="ydieresis" unicode="&#xff;" horiz-adv-x="499" 
d="M10 454c0 23 8 41 88 41c71 0 87 -7 92 -44l46 -314h14l58 314c7 37 21 44 91 44c77 0 90 -13 90 -40c0 -14 -4 -35 -23 -111l-93 -362c-38 -146 -75 -182 -209 -182c-42 0 -93 7 -124 19c-20 8 -29 19 -29 68c0 48 9 68 27 68c13 0 48 -11 107 -11c63 0 72 12 78 42
l2 14h-14c-88 0 -104 17 -114 60l-64 275c-20 85 -23 106 -23 119zM149 528c-76 0 -85 12 -85 62v8c0 50 9 62 85 62s85 -12 85 -62v-8c0 -50 -9 -62 -85 -62zM349 528c-76 0 -85 12 -85 62v8c0 50 9 62 85 62s85 -12 85 -62v-8c0 -50 -9 -62 -85 -62z" />
    <glyph glyph-name="Amacron" unicode="&#x100;" horiz-adv-x="556" 
d="M91 0c-73 0 -81 11 -81 39c0 12 3 29 8 51l101 460c16 71 44 80 159 80s143 -9 159 -80l101 -460c5 -22 8 -39 8 -51c0 -28 -8 -39 -81 -39c-75 0 -89 7 -97 50l-17 90h-146l-17 -90c-8 -43 -22 -50 -97 -50zM271 492l-43 -227h99l-42 227h-14zM148 741c0 57 5 68 40 68
h180c35 0 40 -11 40 -68s-5 -68 -40 -68h-180c-35 0 -40 11 -40 68z" />
    <glyph glyph-name="amacron" unicode="&#x101;" horiz-adv-x="487" 
d="M149 -10c-88 0 -129 46 -129 153c0 108 46 159 204 159h54v6c0 55 -16 55 -64 55c-67 0 -113 -13 -137 -13c-20 0 -29 20 -29 68c0 47 8 60 31 68c28 10 92 19 160 19c141 0 206 -20 206 -148v-113c0 -145 17 -177 17 -206c0 -26 -12 -38 -78 -38c-57 0 -67 5 -77 41
l-11 41c-23 -64 -72 -92 -147 -92zM217 122c28 0 61 10 61 75v11l-50 -1c-38 -1 -48 -12 -48 -45s10 -40 37 -40zM113 606c0 57 5 68 40 68h180c35 0 40 -11 40 -68s-5 -68 -40 -68h-180c-35 0 -40 11 -40 68z" />
    <glyph glyph-name="Abreve" unicode="&#x102;" horiz-adv-x="556" 
d="M91 0c-73 0 -81 11 -81 39c0 12 3 29 8 51l101 460c16 71 44 80 159 80s143 -9 159 -80l101 -460c5 -22 8 -39 8 -51c0 -28 -8 -39 -81 -39c-75 0 -89 7 -97 50l-17 90h-146l-17 -90c-8 -43 -22 -50 -97 -50zM271 492l-43 -227h99l-42 227h-14zM278 668
c-102 0 -153 31 -153 141c0 40 11 45 55 45s52 -5 56 -32c3 -23 6 -32 42 -32s39 9 42 32c4 27 12 32 56 32s55 -5 55 -45c0 -110 -51 -141 -153 -141z" />
    <glyph glyph-name="abreve" unicode="&#x103;" horiz-adv-x="487" 
d="M149 -10c-88 0 -129 46 -129 153c0 108 46 159 204 159h54v6c0 55 -16 55 -64 55c-67 0 -113 -13 -137 -13c-20 0 -29 20 -29 68c0 47 8 60 31 68c28 10 92 19 160 19c141 0 206 -20 206 -148v-113c0 -145 17 -177 17 -206c0 -26 -12 -38 -78 -38c-57 0 -67 5 -77 41
l-11 41c-23 -64 -72 -92 -147 -92zM217 122c28 0 61 10 61 75v11l-50 -1c-38 -1 -48 -12 -48 -45s10 -40 37 -40zM246 538c-102 0 -153 31 -153 141c0 40 11 45 55 45s52 -5 56 -32c3 -23 6 -32 42 -32s39 9 42 32c4 27 12 32 56 32s55 -5 55 -45c0 -110 -51 -141 -153 -141
z" />
    <glyph glyph-name="Aogonek" unicode="&#x104;" horiz-adv-x="556" 
d="M421 -200c-56 0 -92 15 -92 82c0 51 22 86 65 125c-16 7 -22 20 -26 43l-17 90h-146l-17 -90c-8 -43 -22 -50 -97 -50c-73 0 -81 11 -81 39c0 12 3 29 8 51l101 460c16 71 44 80 159 80s143 -9 159 -80l101 -460c5 -22 8 -39 8 -51v-4c-1 -16 -7 -28 -27 -45
c-30 -27 -37 -41 -37 -49s3 -12 10 -12s16 2 26 2c18 0 28 -8 28 -53c0 -49 -9 -55 -34 -64c-20 -7 -51 -14 -91 -14zM271 492l-43 -227h99l-42 227h-14z" />
    <glyph glyph-name="aogonek" unicode="&#x105;" horiz-adv-x="487" 
d="M344 -200c-56 0 -92 15 -92 82c0 52 25 89 68 130c-6 6 -10 15 -13 29l-11 41c-23 -64 -72 -92 -147 -92c-88 0 -129 46 -129 153c0 108 46 159 204 159h54v6c0 55 -16 55 -64 55c-67 0 -113 -13 -137 -13c-20 0 -29 20 -29 68c0 47 8 60 31 68c28 10 92 19 160 19
c141 0 206 -20 206 -148v-113c0 -145 17 -177 17 -206c0 -11 -3 -22 -20 -41c-35 -38 -37 -48 -37 -56s3 -12 10 -12s16 2 26 2c18 0 28 -8 28 -53c0 -49 -9 -55 -34 -64c-20 -7 -51 -14 -91 -14zM217 122c28 0 61 10 61 75v11l-50 -1c-38 -1 -48 -12 -48 -45s10 -40 37 -40
z" />
    <glyph glyph-name="Cacute" unicode="&#x106;" horiz-adv-x="455" 
d="M253 -5c-117 0 -223 30 -223 254v106c0 260 121 280 227 280c58 0 113 -8 154 -19c16 -4 24 -12 24 -76c0 -47 -9 -66 -22 -66c-18 0 -54 11 -113 11c-70 0 -100 -16 -100 -137v-63c0 -134 25 -140 100 -140c63 0 90 11 113 11c17 0 22 -16 22 -66c0 -61 -8 -72 -24 -76
c-41 -11 -93 -19 -158 -19zM225 673c-51 0 -66 9 -66 30c0 13 4 37 7 49l11 49c11 47 19 59 99 59c73 0 85 -10 85 -32c0 -16 -9 -39 -19 -62l-22 -49c-13 -30 -25 -44 -95 -44z" />
    <glyph glyph-name="cacute" unicode="&#x107;" horiz-adv-x="434" 
d="M256 -10c-134 0 -226 31 -226 255c0 225 73 260 213 260c52 0 110 -10 136 -19c19 -7 29 -19 29 -68c0 -48 -9 -68 -27 -68c-13 0 -71 11 -109 11c-56 0 -75 -3 -75 -101c0 -115 12 -126 78 -126c59 0 94 11 107 11c18 0 27 -20 27 -68c0 -49 -10 -62 -29 -68
c-35 -12 -82 -19 -124 -19zM204 538c-51 0 -66 9 -66 30c0 13 4 37 7 49l11 49c11 47 19 59 99 59c73 0 85 -10 85 -32c0 -16 -9 -39 -19 -62l-22 -49c-13 -30 -25 -44 -95 -44z" />
    <glyph glyph-name="Ccircumflex" unicode="&#x108;" horiz-adv-x="455" 
d="M253 -5c-117 0 -223 30 -223 254v106c0 260 121 280 227 280c58 0 113 -8 154 -19c16 -4 24 -12 24 -76c0 -47 -9 -66 -22 -66c-18 0 -54 11 -113 11c-70 0 -100 -16 -100 -137v-63c0 -134 25 -140 100 -140c63 0 90 11 113 11c17 0 22 -16 22 -66c0 -61 -8 -72 -24 -76
c-41 -11 -93 -19 -158 -19zM253 744h-6l-26 -35c-22 -30 -40 -36 -86 -36c-35 0 -50 11 -50 29c0 10 4 22 18 46l43 79c13 23 26 33 68 33h72c42 0 55 -10 68 -33l43 -79c14 -24 18 -36 18 -46c0 -18 -15 -29 -50 -29c-46 0 -62 6 -85 36z" />
    <glyph glyph-name="ccircumflex" unicode="&#x109;" horiz-adv-x="434" 
d="M256 -10c-134 0 -226 31 -226 255c0 225 73 260 213 260c52 0 110 -10 136 -19c19 -7 29 -19 29 -68c0 -48 -9 -68 -27 -68c-13 0 -71 11 -109 11c-56 0 -75 -3 -75 -101c0 -115 12 -126 78 -126c59 0 94 11 107 11c18 0 27 -20 27 -68c0 -49 -10 -62 -29 -68
c-35 -12 -82 -19 -124 -19zM236 609h-6l-26 -35c-22 -30 -40 -36 -86 -36c-35 0 -50 11 -50 29c0 10 4 22 18 46l43 79c13 23 26 33 68 33h72c42 0 55 -10 68 -33l43 -79c14 -24 18 -36 18 -46c0 -18 -15 -29 -50 -29c-46 0 -62 6 -85 36z" />
    <glyph glyph-name="Cdotaccent" unicode="&#x10a;" horiz-adv-x="455" 
d="M253 -5c-117 0 -223 30 -223 254v106c0 260 121 280 227 280c58 0 113 -8 154 -19c16 -4 24 -12 24 -76c0 -47 -9 -66 -22 -66c-18 0 -54 11 -113 11c-70 0 -100 -16 -100 -137v-63c0 -134 25 -140 100 -140c63 0 90 11 113 11c17 0 22 -16 22 -66c0 -61 -8 -72 -24 -76
c-41 -11 -93 -19 -158 -19zM250 663c-84 0 -90 12 -90 62v8c0 50 6 62 90 62s90 -12 90 -62v-8c0 -50 -6 -62 -90 -62z" />
    <glyph glyph-name="cdotaccent" unicode="&#x10b;" horiz-adv-x="434" 
d="M256 -10c-134 0 -226 31 -226 255c0 225 73 260 213 260c52 0 110 -10 136 -19c19 -7 29 -19 29 -68c0 -48 -9 -68 -27 -68c-13 0 -71 11 -109 11c-56 0 -75 -3 -75 -101c0 -115 12 -126 78 -126c59 0 94 11 107 11c18 0 27 -20 27 -68c0 -49 -10 -62 -29 -68
c-35 -12 -82 -19 -124 -19zM233 528c-84 0 -90 12 -90 62v8c0 50 6 62 90 62s90 -12 90 -62v-8c0 -50 -6 -62 -90 -62z" />
    <glyph glyph-name="Ccaron" unicode="&#x10c;" horiz-adv-x="455" 
d="M253 -5c-117 0 -223 30 -223 254v106c0 260 121 280 227 280c58 0 113 -8 154 -19c16 -4 24 -12 24 -76c0 -47 -9 -66 -22 -66c-18 0 -54 11 -113 11c-70 0 -100 -16 -100 -137v-63c0 -134 25 -140 100 -140c63 0 90 11 113 11c17 0 22 -16 22 -66c0 -61 -8 -72 -24 -76
c-41 -11 -93 -19 -158 -19zM66 831c0 18 15 29 50 29c46 0 62 -6 85 -36l27 -35h6l26 35c22 30 40 36 86 36c35 0 50 -11 50 -29c0 -10 -4 -22 -18 -46l-43 -79c-13 -23 -26 -33 -68 -33h-72c-42 0 -55 10 -68 33l-43 79c-14 24 -18 36 -18 46z" />
    <glyph glyph-name="ccaron" unicode="&#x10d;" horiz-adv-x="434" 
d="M256 -10c-134 0 -226 31 -226 255c0 225 73 260 213 260c52 0 110 -10 136 -19c19 -7 29 -19 29 -68c0 -48 -9 -68 -27 -68c-13 0 -71 11 -109 11c-56 0 -75 -3 -75 -101c0 -115 12 -126 78 -126c59 0 94 11 107 11c18 0 27 -20 27 -68c0 -49 -10 -62 -29 -68
c-35 -12 -82 -19 -124 -19zM68 696c0 18 15 29 50 29c46 0 62 -6 85 -36l27 -35h6l26 35c22 30 40 36 86 36c35 0 50 -11 50 -29c0 -10 -4 -22 -18 -46l-43 -79c-13 -23 -26 -33 -68 -33h-72c-42 0 -55 10 -68 33l-43 79c-14 24 -18 36 -18 46z" />
    <glyph glyph-name="Dcaron" unicode="&#x10e;" horiz-adv-x="535" 
d="M245 142c75 0 90 16 90 143v90c0 90 -16 122 -97 122c-7 0 -22 -1 -28 -2v-351c11 -1 16 -2 35 -2zM245 -5c-66 0 -111 1 -166 7c-34 4 -39 12 -39 45v531c0 39 9 46 42 50c51 7 108 7 148 7c164 0 275 -20 275 -254v-96c0 -270 -120 -290 -260 -290zM95 831
c0 18 15 29 50 29c46 0 62 -6 85 -36l27 -35h6l26 35c22 30 40 36 86 36c35 0 50 -11 50 -29c0 -10 -4 -22 -18 -46l-43 -79c-13 -23 -26 -33 -68 -33h-72c-42 0 -55 10 -68 33l-43 79c-14 24 -18 36 -18 46z" />
    <glyph glyph-name="dcaron" unicode="&#x10f;" horiz-adv-x="697" 
d="M190 -10c-120 0 -160 44 -160 240c0 234 53 275 175 275c62 0 93 -16 109 -49v159c0 40 21 45 85 45s85 -5 85 -45v-371c0 -145 17 -177 17 -206c0 -26 -12 -38 -78 -38c-57 0 -67 5 -77 41l-10 36c-23 -57 -68 -87 -146 -87zM258 130c44 0 60 21 60 110v20
c0 94 -17 105 -63 105c-40 0 -53 -9 -53 -125c0 -104 12 -110 56 -110zM612 660c73 0 85 -10 85 -61v-26c0 -41 -9 -74 -24 -112l-13 -32c-23 -56 -35 -64 -96 -64c-41 0 -49 11 -49 29c0 24 12 86 12 127v78c0 51 12 61 85 61z" />
    <glyph glyph-name="Dcroat" unicode="&#x110;" horiz-adv-x="535" 
d="M245 -5c-66 0 -111 1 -166 7c-34 4 -39 12 -39 45v197h-9c-35 0 -40 13 -40 73s5 73 40 73h9v188c0 39 9 46 42 50c51 7 108 7 148 7c164 0 275 -20 275 -254v-96c0 -270 -120 -290 -260 -290zM245 142c75 0 90 16 90 143v90c0 90 -16 122 -97 122c-7 0 -22 -1 -28 -2
v-109h21c35 0 40 -12 40 -69s-5 -69 -40 -69h-21v-104c11 -1 16 -2 35 -2z" />
    <glyph glyph-name="dcroat" unicode="&#x111;" horiz-adv-x="526" 
d="M190 -10c-120 0 -160 44 -160 240c0 234 53 275 175 275c62 0 93 -16 109 -49v55h-16c-29 0 -34 6 -34 42c0 37 5 44 34 44h16v18c0 40 21 45 85 45s85 -5 85 -45v-18h26c29 0 34 -9 34 -46c0 -36 -5 -45 -34 -45h-26v-262c0 -145 17 -177 17 -206c0 -26 -12 -38 -78 -38
c-57 0 -67 5 -77 41l-10 36c-23 -57 -68 -87 -146 -87zM258 130c44 0 60 21 60 110v20c0 94 -17 105 -63 105c-40 0 -53 -9 -53 -125c0 -104 12 -110 56 -110z" />
    <glyph glyph-name="Emacron" unicode="&#x112;" horiz-adv-x="455" 
d="M440 74c0 -60 -10 -74 -40 -74h-315c-32 0 -45 5 -45 40v550c0 35 13 40 45 40h305c30 0 40 -14 40 -74s-10 -74 -40 -74h-180v-82h110c35 0 40 -13 40 -73s-5 -73 -40 -73h-110v-106h190c30 0 40 -14 40 -74zM111 741c0 57 5 68 40 68h180c35 0 40 -11 40 -68
s-5 -68 -40 -68h-180c-35 0 -40 11 -40 68z" />
    <glyph glyph-name="emacron" unicode="&#x113;" horiz-adv-x="488" 
d="M266 -10c-144 0 -236 31 -236 255c0 225 69 260 224 260c172 0 204 -69 204 -233c0 -47 -10 -72 -58 -72h-201c5 -60 24 -66 76 -66c78 0 134 11 147 11c18 0 27 -20 27 -68c0 -49 -10 -62 -29 -68c-35 -12 -112 -19 -154 -19zM252 365c-40 0 -52 -6 -55 -68h104
c0 57 -7 68 -49 68zM114 606c0 57 5 68 40 68h180c35 0 40 -11 40 -68s-5 -68 -40 -68h-180c-35 0 -40 11 -40 68z" />
    <glyph glyph-name="Ebreve" unicode="&#x114;" horiz-adv-x="455" 
d="M440 74c0 -60 -10 -74 -40 -74h-315c-32 0 -45 5 -45 40v550c0 35 13 40 45 40h305c30 0 40 -14 40 -74s-10 -74 -40 -74h-180v-82h110c35 0 40 -13 40 -73s-5 -73 -40 -73h-110v-106h190c30 0 40 -14 40 -74zM241 668c-102 0 -153 31 -153 141c0 40 11 45 55 45
s52 -5 56 -32c3 -23 6 -32 42 -32s39 9 42 32c4 27 12 32 56 32s55 -5 55 -45c0 -110 -51 -141 -153 -141z" />
    <glyph glyph-name="ebreve" unicode="&#x115;" horiz-adv-x="488" 
d="M266 -10c-144 0 -236 31 -236 255c0 225 69 260 224 260c172 0 204 -69 204 -233c0 -47 -10 -72 -58 -72h-201c5 -60 24 -66 76 -66c78 0 134 11 147 11c18 0 27 -20 27 -68c0 -49 -10 -62 -29 -68c-35 -12 -112 -19 -154 -19zM252 365c-40 0 -52 -6 -55 -68h104
c0 57 -7 68 -49 68zM244 538c-102 0 -153 31 -153 141c0 40 11 45 55 45s52 -5 56 -32c3 -23 6 -32 42 -32s39 9 42 32c4 27 12 32 56 32s55 -5 55 -45c0 -110 -51 -141 -153 -141z" />
    <glyph glyph-name="Edotaccent" unicode="&#x116;" horiz-adv-x="455" 
d="M440 74c0 -60 -10 -74 -40 -74h-315c-32 0 -45 5 -45 40v550c0 35 13 40 45 40h305c30 0 40 -14 40 -74s-10 -74 -40 -74h-180v-82h110c35 0 40 -13 40 -73s-5 -73 -40 -73h-110v-106h190c30 0 40 -14 40 -74zM241 668c-84 0 -90 12 -90 62v8c0 50 6 62 90 62
s90 -12 90 -62v-8c0 -50 -6 -62 -90 -62z" />
    <glyph glyph-name="edotaccent" unicode="&#x117;" horiz-adv-x="488" 
d="M266 -10c-144 0 -236 31 -236 255c0 225 69 260 224 260c172 0 204 -69 204 -233c0 -47 -10 -72 -58 -72h-201c5 -60 24 -66 76 -66c78 0 134 11 147 11c18 0 27 -20 27 -68c0 -49 -10 -62 -29 -68c-35 -12 -112 -19 -154 -19zM252 365c-40 0 -52 -6 -55 -68h104
c0 57 -7 68 -49 68zM244 528c-84 0 -90 12 -90 62v8c0 50 6 62 90 62s90 -12 90 -62v-8c0 -50 -6 -62 -90 -62z" />
    <glyph glyph-name="Eogonek" unicode="&#x118;" horiz-adv-x="455" 
d="M360 327c0 -60 -5 -73 -40 -73h-110v-106h190c30 0 40 -14 40 -73c0 -44 -2 -63 -28 -88c-29 -27 -36 -38 -36 -46s3 -12 10 -12s16 2 26 2c18 0 28 -8 28 -53c0 -49 -9 -55 -34 -64c-20 -7 -51 -14 -91 -14c-56 0 -92 15 -92 82c0 47 21 82 58 118h-196
c-32 0 -45 5 -45 40v550c0 35 13 40 45 40h305c30 0 40 -14 40 -74s-10 -74 -40 -74h-180v-82h110c35 0 40 -13 40 -73z" />
    <glyph glyph-name="eogonek" unicode="&#x119;" horiz-adv-x="488" 
d="M324 -200c-56 0 -92 15 -92 82c0 42 16 75 46 108h-12c-144 0 -236 31 -236 255c0 225 69 260 224 260c172 0 204 -69 204 -233c0 -47 -10 -72 -58 -72h-201c5 -60 24 -66 76 -66c78 0 134 11 147 11c18 0 27 -20 27 -68c0 -44 -9 -59 -36 -90c-24 -29 -28 -38 -28 -46
s3 -12 10 -12s16 2 26 2c18 0 28 -8 28 -53c0 -49 -9 -55 -34 -64c-20 -7 -51 -14 -91 -14zM252 365c-40 0 -52 -6 -55 -68h104c0 57 -7 68 -49 68z" />
    <glyph glyph-name="Ecaron" unicode="&#x11a;" horiz-adv-x="455" 
d="M440 74c0 -60 -10 -74 -40 -74h-315c-32 0 -45 5 -45 40v550c0 35 13 40 45 40h305c30 0 40 -14 40 -74s-10 -74 -40 -74h-180v-82h110c35 0 40 -13 40 -73s-5 -73 -40 -73h-110v-106h190c30 0 40 -14 40 -74zM76 831c0 18 15 29 50 29c46 0 62 -6 85 -36l27 -35h6l26 35
c22 30 40 36 86 36c35 0 50 -11 50 -29c0 -10 -4 -22 -18 -46l-43 -79c-13 -23 -26 -33 -68 -33h-72c-42 0 -55 10 -68 33l-43 79c-14 24 -18 36 -18 46z" />
    <glyph glyph-name="ecaron" unicode="&#x11b;" horiz-adv-x="488" 
d="M266 -10c-144 0 -236 31 -236 255c0 225 69 260 224 260c172 0 204 -69 204 -233c0 -47 -10 -72 -58 -72h-201c5 -60 24 -66 76 -66c78 0 134 11 147 11c18 0 27 -20 27 -68c0 -49 -10 -62 -29 -68c-35 -12 -112 -19 -154 -19zM252 365c-40 0 -52 -6 -55 -68h104
c0 57 -7 68 -49 68zM79 696c0 18 15 29 50 29c46 0 62 -6 85 -36l27 -35h6l26 35c22 30 40 36 86 36c35 0 50 -11 50 -29c0 -10 -4 -22 -18 -46l-43 -79c-13 -23 -26 -33 -68 -33h-72c-42 0 -55 10 -68 33l-43 79c-14 24 -18 36 -18 46z" />
    <glyph glyph-name="Gcircumflex" unicode="&#x11c;" horiz-adv-x="506" 
d="M263 -5c-127 0 -233 30 -233 254v106c0 260 120 280 233 280c58 0 122 -8 163 -19c16 -4 24 -12 24 -76c0 -47 -9 -66 -22 -66c-18 0 -69 11 -128 11c-68 0 -100 -16 -100 -137v-63c0 -134 31 -140 76 -140c27 0 55 6 55 22v65h-30c-25 0 -30 14 -30 74c0 50 5 64 30 64
h125c45 0 50 -15 50 -40v-210c0 -80 -70 -125 -213 -125zM246 744h-6l-26 -35c-22 -30 -40 -36 -86 -36c-35 0 -50 11 -50 29c0 10 4 22 18 46l43 79c13 23 26 33 68 33h72c42 0 55 -10 68 -33l43 -79c14 -24 18 -36 18 -46c0 -18 -15 -29 -50 -29c-46 0 -62 6 -85 36z" />
    <glyph glyph-name="gcircumflex" unicode="&#x11d;" horiz-adv-x="525" 
d="M30 250c0 214 53 255 185 255c70 0 107 -20 125 -71l5 20c10 36 20 41 77 41c66 0 78 -12 78 -38c0 -29 -17 -61 -17 -206v-192c0 -231 -111 -259 -260 -259c-45 0 -112 7 -147 18c-19 6 -29 20 -29 69c0 48 9 68 27 68c13 0 69 -11 127 -11c100 0 111 18 112 110
c-21 -42 -61 -64 -135 -64c-111 0 -148 44 -148 260zM202 240c0 -104 12 -110 56 -110s60 21 60 110v20c0 94 -17 105 -63 105c-40 0 -53 -9 -53 -125zM268 609h-6l-26 -35c-22 -30 -40 -36 -86 -36c-35 0 -50 11 -50 29c0 10 4 22 18 46l43 79c13 23 26 33 68 33h72
c42 0 55 -10 68 -33l43 -79c14 -24 18 -36 18 -46c0 -18 -15 -29 -50 -29c-46 0 -62 6 -85 36z" />
    <glyph glyph-name="Gbreve" unicode="&#x11e;" horiz-adv-x="506" 
d="M263 -5c-127 0 -233 30 -233 254v106c0 260 120 280 233 280c58 0 122 -8 163 -19c16 -4 24 -12 24 -76c0 -47 -9 -66 -22 -66c-18 0 -69 11 -128 11c-68 0 -100 -16 -100 -137v-63c0 -134 31 -140 76 -140c27 0 55 6 55 22v65h-30c-25 0 -30 14 -30 74c0 50 5 64 30 64
h125c45 0 50 -15 50 -40v-210c0 -80 -70 -125 -213 -125zM243 673c-102 0 -153 31 -153 141c0 40 11 45 55 45s52 -5 56 -32c3 -23 6 -32 42 -32s39 9 42 32c4 27 12 32 56 32s55 -5 55 -45c0 -110 -51 -141 -153 -141z" />
    <glyph glyph-name="gbreve" unicode="&#x11f;" horiz-adv-x="525" 
d="M30 250c0 214 53 255 185 255c70 0 107 -20 125 -71l5 20c10 36 20 41 77 41c66 0 78 -12 78 -38c0 -29 -17 -61 -17 -206v-192c0 -231 -111 -259 -260 -259c-45 0 -112 7 -147 18c-19 6 -29 20 -29 69c0 48 9 68 27 68c13 0 69 -11 127 -11c100 0 111 18 112 110
c-21 -42 -61 -64 -135 -64c-111 0 -148 44 -148 260zM202 240c0 -104 12 -110 56 -110s60 21 60 110v20c0 94 -17 105 -63 105c-40 0 -53 -9 -53 -125zM265 538c-102 0 -153 31 -153 141c0 40 11 45 55 45s52 -5 56 -32c3 -23 6 -32 42 -32s39 9 42 32c4 27 12 32 56 32
s55 -5 55 -45c0 -110 -51 -141 -153 -141z" />
    <glyph glyph-name="Gdotaccent" unicode="&#x120;" horiz-adv-x="506" 
d="M263 -5c-127 0 -233 30 -233 254v106c0 260 120 280 233 280c58 0 122 -8 163 -19c16 -4 24 -12 24 -76c0 -47 -9 -66 -22 -66c-18 0 -69 11 -128 11c-68 0 -100 -16 -100 -137v-63c0 -134 31 -140 76 -140c27 0 55 6 55 22v65h-30c-25 0 -30 14 -30 74c0 50 5 64 30 64
h125c45 0 50 -15 50 -40v-210c0 -80 -70 -125 -213 -125zM243 668c-84 0 -90 12 -90 62v8c0 50 6 62 90 62s90 -12 90 -62v-8c0 -50 -6 -62 -90 -62z" />
    <glyph glyph-name="gdotaccent" unicode="&#x121;" horiz-adv-x="525" 
d="M30 250c0 214 53 255 185 255c70 0 107 -20 125 -71l5 20c10 36 20 41 77 41c66 0 78 -12 78 -38c0 -29 -17 -61 -17 -206v-192c0 -231 -111 -259 -260 -259c-45 0 -112 7 -147 18c-19 6 -29 20 -29 69c0 48 9 68 27 68c13 0 69 -11 127 -11c100 0 111 18 112 110
c-21 -42 -61 -64 -135 -64c-111 0 -148 44 -148 260zM202 240c0 -104 12 -110 56 -110s60 21 60 110v20c0 94 -17 105 -63 105c-40 0 -53 -9 -53 -125zM265 528c-84 0 -90 12 -90 62v8c0 50 6 62 90 62s90 -12 90 -62v-8c0 -50 -6 -62 -90 -62z" />
    <glyph glyph-name="Gcommaaccent" unicode="&#x122;" horiz-adv-x="506" 
d="M263 -5c-127 0 -233 30 -233 254v106c0 260 120 280 233 280c58 0 122 -8 163 -19c16 -4 24 -12 24 -76c0 -47 -9 -66 -22 -66c-18 0 -69 11 -128 11c-68 0 -100 -16 -100 -137v-63c0 -134 31 -140 76 -140c27 0 55 6 55 22v65h-30c-25 0 -30 14 -30 74c0 50 5 64 30 64
h125c45 0 50 -15 50 -40v-210c0 -80 -70 -125 -213 -125zM213 -253c-41 0 -49 11 -49 29c0 24 10 76 10 115c0 51 12 61 85 61c66 0 85 -10 85 -45c0 -16 -2 -43 -18 -73l-27 -49c-16 -29 -25 -38 -86 -38z" />
    <glyph glyph-name="gcommaaccent" unicode="&#x123;" horiz-adv-x="525" 
d="M30 250c0 214 53 255 185 255c70 0 107 -20 125 -71l5 20c10 36 20 41 77 41c66 0 78 -12 78 -38c0 -29 -17 -61 -17 -206v-192c0 -231 -111 -259 -260 -259c-45 0 -112 7 -147 18c-19 6 -29 20 -29 69c0 48 9 68 27 68c13 0 69 -11 127 -11c100 0 111 18 112 110
c-21 -42 -61 -64 -135 -64c-111 0 -148 44 -148 260zM202 240c0 -104 12 -110 56 -110s60 21 60 110v20c0 94 -17 105 -63 105c-40 0 -53 -9 -53 -125zM323 733c41 0 49 -11 49 -29c0 -24 -10 -76 -10 -115c0 -51 -12 -61 -85 -61c-66 0 -85 10 -85 45c0 16 2 43 18 73
l27 49c16 29 25 38 86 38z" />
    <glyph glyph-name="Hcircumflex" unicode="&#x124;" horiz-adv-x="550" 
d="M210 384h130v201c0 40 21 45 85 45s85 -5 85 -45v-540c0 -40 -21 -45 -85 -45s-85 5 -85 45v201h-130v-201c0 -40 -21 -45 -85 -45s-85 5 -85 45v540c0 40 21 45 85 45s85 -5 85 -45v-201zM278 744h-6l-26 -35c-22 -30 -40 -36 -86 -36c-35 0 -50 11 -50 29
c0 10 4 22 18 46l43 79c13 23 26 33 68 33h72c42 0 55 -10 68 -33l43 -79c14 -24 18 -36 18 -46c0 -18 -15 -29 -50 -29c-46 0 -62 6 -85 36z" />
    <glyph glyph-name="hcircumflex" unicode="&#x125;" horiz-adv-x="515" 
d="M120 0c-64 0 -85 5 -85 45v570c0 40 21 45 85 45s85 -5 85 -45v-166c25 35 66 56 131 56c104 0 139 -39 139 -148v-312c0 -40 -21 -45 -85 -45s-85 5 -85 45v270c0 32 -8 45 -34 45c-50 0 -66 -37 -66 -152v-163c0 -40 -21 -45 -85 -45zM268 749h-6l-26 -35
c-22 -30 -40 -36 -86 -36c-35 0 -50 11 -50 29c0 10 4 22 18 46l43 79c13 23 26 33 68 33h72c42 0 55 -10 68 -33l43 -79c14 -24 18 -36 18 -46c0 -18 -15 -29 -50 -29c-46 0 -62 6 -85 36z" />
    <glyph glyph-name="Hbar" unicode="&#x126;" horiz-adv-x="550" 
d="M-1 496c0 49 4 58 34 58h7v31c0 40 21 45 85 45s85 -5 85 -45v-31h130v31c0 40 21 45 85 45s85 -5 85 -45v-31h7c29 0 34 -9 34 -58s-5 -58 -34 -58h-7v-393c0 -40 -21 -45 -85 -45s-85 5 -85 45v201h-130v-201c0 -40 -21 -45 -85 -45s-85 5 -85 45v393h-7
c-30 0 -34 9 -34 58zM210 384h130v54h-130v-54z" />
    <glyph glyph-name="hbar" unicode="&#x127;" horiz-adv-x="515" 
d="M120 0c-64 0 -85 5 -85 45v461h-17c-29 0 -34 9 -34 45c0 37 5 46 34 46h17v18c0 40 21 45 85 45s85 -5 85 -45v-18h25c29 0 34 -7 34 -44c0 -36 -5 -42 -34 -42h-25v-62c25 35 66 56 131 56c104 0 139 -39 139 -148v-312c0 -40 -21 -45 -85 -45s-85 5 -85 45v270
c0 32 -8 45 -34 45c-50 0 -66 -37 -66 -152v-163c0 -40 -21 -45 -85 -45z" />
    <glyph glyph-name="Itilde" unicode="&#x128;" horiz-adv-x="250" 
d="M125 0c-64 0 -85 5 -85 45v540c0 40 21 45 85 45s85 -5 85 -45v-540c0 -40 -21 -45 -85 -45zM-37 729c0 47 7 58 28 72c14 9 42 21 74 21c56 0 87 -19 129 -19c38 0 58 13 73 13c16 0 21 -7 21 -55c0 -47 -7 -58 -28 -72c-14 -9 -42 -21 -74 -21c-56 0 -87 19 -129 19
c-39 0 -58 -13 -73 -13c-16 0 -21 7 -21 55z" />
    <glyph glyph-name="itilde" unicode="&#x129;" horiz-adv-x="245" 
d="M120 0c-64 0 -85 5 -85 45v405c0 40 21 45 85 45s85 -5 85 -45v-405c0 -40 -21 -45 -85 -45zM-41 605c0 47 7 58 28 72c14 9 42 21 74 21c56 0 87 -19 129 -19c38 0 58 13 73 13c16 0 21 -7 21 -55c0 -47 -7 -58 -28 -72c-14 -9 -42 -21 -74 -21c-56 0 -87 19 -129 19
c-39 0 -58 -13 -73 -13c-16 0 -21 7 -21 55z" />
    <glyph glyph-name="Imacron" unicode="&#x12a;" horiz-adv-x="250" 
d="M125 0c-64 0 -85 5 -85 45v540c0 40 21 45 85 45s85 -5 85 -45v-540c0 -40 -21 -45 -85 -45zM-5 741c0 57 5 68 40 68h180c35 0 40 -11 40 -68s-5 -68 -40 -68h-180c-35 0 -40 11 -40 68z" />
    <glyph glyph-name="imacron" unicode="&#x12b;" horiz-adv-x="245" 
d="M120 0c-64 0 -85 5 -85 45v405c0 40 21 45 85 45s85 -5 85 -45v-405c0 -40 -21 -45 -85 -45zM-9 606c0 57 5 68 40 68h180c35 0 40 -11 40 -68s-5 -68 -40 -68h-180c-35 0 -40 11 -40 68z" />
    <glyph glyph-name="Ibreve" unicode="&#x12c;" horiz-adv-x="250" 
d="M125 0c-64 0 -85 5 -85 45v540c0 40 21 45 85 45s85 -5 85 -45v-540c0 -40 -21 -45 -85 -45zM125 668c-102 0 -153 31 -153 141c0 40 11 45 55 45s52 -5 56 -32c3 -23 6 -32 42 -32s39 9 42 32c4 27 12 32 56 32s55 -5 55 -45c0 -110 -51 -141 -153 -141z" />
    <glyph glyph-name="ibreve" unicode="&#x12d;" horiz-adv-x="245" 
d="M120 0c-64 0 -85 5 -85 45v405c0 40 21 45 85 45s85 -5 85 -45v-405c0 -40 -21 -45 -85 -45zM121 538c-102 0 -153 31 -153 141c0 40 11 45 55 45s52 -5 56 -32c3 -23 6 -32 42 -32s39 9 42 32c4 27 12 32 56 32s55 -5 55 -45c0 -110 -51 -141 -153 -141z" />
    <glyph glyph-name="Iogonek" unicode="&#x12e;" horiz-adv-x="250" 
d="M210 585v-508c0 -44 -2 -65 -28 -90c-29 -27 -36 -38 -36 -46s3 -12 10 -12s16 2 26 2c18 0 28 -8 28 -53c0 -49 -9 -55 -34 -64c-20 -7 -51 -14 -91 -14c-56 0 -92 15 -92 82c0 50 24 87 65 125c-13 6 -18 18 -18 38v540c0 40 21 45 85 45s85 -5 85 -45z" />
    <glyph glyph-name="iogonek" unicode="&#x12f;" horiz-adv-x="245" 
d="M80 -200c40 0 71 7 91 14c25 9 34 15 34 64c0 45 -10 53 -28 53c-10 0 -19 -2 -26 -2s-10 4 -10 12s5 15 32 42s32 36 32 62v405c0 40 -21 45 -85 45s-85 -5 -85 -45v-405c0 -22 6 -34 23 -40c-56 -49 -70 -78 -70 -123c0 -67 36 -82 92 -82zM120 528
c-84 0 -90 12 -90 62v8c0 50 6 62 90 62s90 -12 90 -62v-8c0 -50 -6 -62 -90 -62z" />
    <glyph glyph-name="Idotaccent" unicode="&#x130;" horiz-adv-x="250" 
d="M125 0c-64 0 -85 5 -85 45v540c0 40 21 45 85 45s85 -5 85 -45v-540c0 -40 -21 -45 -85 -45zM125 668c-84 0 -90 12 -90 62v8c0 50 6 62 90 62s90 -12 90 -62v-8c0 -50 -6 -62 -90 -62z" />
    <glyph glyph-name="dotlessi" unicode="&#x131;" horiz-adv-x="245" 
d="M120 0c-64 0 -85 5 -85 45v405c0 40 21 45 85 45s85 -5 85 -45v-405c0 -40 -21 -45 -85 -45z" />
    <glyph glyph-name="IJ" unicode="&#x132;" horiz-adv-x="620" 
d="M125 0c-64 0 -85 5 -85 45v540c0 40 21 45 85 45s85 -5 85 -45v-540c0 -40 -21 -45 -85 -45zM410 -5c-53 0 -90 7 -123 17c-24 7 -32 17 -32 78c0 55 8 60 25 60c23 0 47 -5 80 -5c38 0 50 7 50 50v390c0 40 21 45 85 45s85 -5 85 -45v-382c0 -154 -46 -208 -170 -208z
" />
    <glyph glyph-name="ij" unicode="&#x133;" horiz-adv-x="490" 
d="M120 0c-64 0 -85 5 -85 45v405c0 40 21 45 85 45s85 -5 85 -45v-405c0 -40 -21 -45 -85 -45zM120 528c-84 0 -90 12 -90 62v8c0 50 6 62 90 62s90 -12 90 -62v-8c0 -50 -6 -62 -90 -62zM365 495c64 0 85 -5 85 -45v-518c0 -104 -58 -132 -131 -132c-39 0 -72 5 -100 13
c-24 6 -34 19 -34 71c0 61 11 64 27 64c11 0 31 -3 43 -3c18 0 25 5 25 23v482c0 40 21 45 85 45zM365 528c-84 0 -90 12 -90 62v8c0 50 6 62 90 62s90 -12 90 -62v-8c0 -50 -6 -62 -90 -62z" />
    <glyph glyph-name="Jcircumflex" unicode="&#x134;" horiz-adv-x="370" 
d="M160 -5c-53 0 -90 7 -123 17c-24 7 -32 17 -32 78c0 55 8 60 25 60c23 0 47 -5 80 -5c38 0 50 7 50 50v390c0 40 21 45 85 45s85 -5 85 -45v-382c0 -154 -46 -208 -170 -208zM247 744h-6l-26 -35c-22 -30 -40 -36 -86 -36c-35 0 -50 11 -50 29c0 10 4 22 18 46l43 79
c13 23 26 33 68 33h72c42 0 55 -10 68 -33l43 -79c14 -24 18 -36 18 -46c0 -18 -15 -29 -50 -29c-46 0 -62 6 -85 36z" />
    <glyph glyph-name="jcircumflex" unicode="&#x135;" horiz-adv-x="245" 
d="M120 495c64 0 85 -5 85 -45v-518c0 -104 -58 -132 -131 -132c-39 0 -72 5 -100 13c-24 6 -34 19 -34 71c0 61 11 64 27 64c11 0 31 -3 43 -3c18 0 25 5 25 23v482c0 40 21 45 85 45zM122 609h-6l-26 -35c-22 -30 -40 -36 -86 -36c-35 0 -50 11 -50 29c0 10 4 22 18 46
l43 79c13 23 26 33 68 33h72c42 0 55 -10 68 -33l43 -79c14 -24 18 -36 18 -46c0 -18 -15 -29 -50 -29c-46 0 -62 6 -85 36z" />
    <glyph glyph-name="Kcommaaccent" unicode="&#x136;" horiz-adv-x="524" 
d="M125 0c-64 0 -85 5 -85 45v540c0 40 21 45 85 45s85 -5 85 -45v-221h20l83 225c14 37 29 41 108 41c67 0 77 -13 77 -33c0 -9 -3 -19 -13 -42l-109 -241l106 -208c22 -44 27 -56 27 -67c0 -19 -6 -39 -91 -39c-58 0 -78 5 -94 41l-94 217h-20v-213c0 -40 -21 -45 -85 -45
zM222 -253c-41 0 -49 11 -49 29c0 24 10 76 10 115c0 51 12 61 85 61c66 0 85 -10 85 -45c0 -16 -2 -43 -18 -73l-27 -49c-16 -29 -25 -38 -86 -38z" />
    <glyph glyph-name="kcommaaccent" unicode="&#x137;" horiz-adv-x="502" 
d="M120 0c-64 0 -85 5 -85 45v570c0 40 21 45 85 45s85 -5 85 -45v-306h14l65 145c16 36 31 41 106 41c64 0 83 -8 83 -27c0 -14 -6 -30 -13 -43l-91 -166l105 -189c9 -15 13 -23 13 -36c0 -22 -25 -34 -89 -34s-83 5 -100 41l-79 167h-14v-163c0 -40 -21 -45 -85 -45z
M215 -253c-41 0 -49 11 -49 29c0 24 10 76 10 115c0 51 12 61 85 61c66 0 85 -10 85 -45c0 -16 -2 -43 -18 -73l-27 -49c-16 -29 -25 -38 -86 -38z" />
    <glyph glyph-name="Lacute" unicode="&#x139;" horiz-adv-x="430" 
d="M210 148h170c30 0 40 -14 40 -74s-10 -74 -40 -74h-295c-32 0 -45 5 -45 40v545c0 40 21 45 85 45s85 -5 85 -45v-437zM130 673c-51 0 -66 9 -66 30c0 13 4 37 7 49l11 49c11 47 19 59 99 59c73 0 85 -10 85 -32c0 -16 -9 -39 -19 -62l-22 -49c-13 -30 -25 -44 -95 -44z
" />
    <glyph glyph-name="lacute" unicode="&#x13a;" horiz-adv-x="245" 
d="M120 0c-64 0 -85 5 -85 45v570c0 40 21 45 85 45s85 -5 85 -45v-570c0 -40 -21 -45 -85 -45zM110 687c-51 0 -66 9 -66 30c0 13 4 37 7 49l11 49c11 47 19 59 99 59c73 0 85 -10 85 -32c0 -16 -9 -39 -19 -62l-22 -49c-13 -30 -25 -44 -95 -44z" />
    <glyph glyph-name="Lcommaaccent" unicode="&#x13b;" horiz-adv-x="430" 
d="M210 148h170c30 0 40 -14 40 -74s-10 -74 -40 -74h-295c-32 0 -45 5 -45 40v545c0 40 21 45 85 45s85 -5 85 -45v-437zM180 -253c-41 0 -49 11 -49 29c0 24 10 76 10 115c0 51 12 61 85 61c66 0 85 -10 85 -45c0 -16 -2 -43 -18 -73l-27 -49c-16 -29 -25 -38 -86 -38z
" />
    <glyph glyph-name="lcommaaccent" unicode="&#x13c;" horiz-adv-x="245" 
d="M120 0c-64 0 -85 5 -85 45v570c0 40 21 45 85 45s85 -5 85 -45v-570c0 -40 -21 -45 -85 -45zM78 -253c-41 0 -49 11 -49 29c0 24 10 76 10 115c0 51 12 61 85 61c66 0 85 -10 85 -45c0 -16 -2 -43 -18 -73l-27 -49c-16 -29 -25 -38 -86 -38z" />
    <glyph glyph-name="Lcaron" unicode="&#x13d;" horiz-adv-x="430" 
d="M210 148h170c30 0 40 -14 40 -74s-10 -74 -40 -74h-295c-32 0 -45 5 -45 40v545c0 40 21 45 85 45s85 -5 85 -45v-437zM335 630c73 0 85 -10 85 -61v-26c0 -41 -9 -74 -24 -112l-13 -32c-23 -56 -35 -64 -96 -64c-41 0 -49 11 -49 29c0 24 12 86 12 127v78
c0 51 12 61 85 61z" />
    <glyph glyph-name="lcaron" unicode="&#x13e;" horiz-adv-x="421" 
d="M347 660c73 0 85 -10 85 -61v-26c0 -41 -9 -74 -24 -112l-13 -32c-23 -56 -35 -64 -96 -64c-41 0 -49 11 -49 29c0 24 12 86 12 127v78c0 51 12 61 85 61zM120 0c-64 0 -85 5 -85 45v570c0 40 21 45 85 45s85 -5 85 -45v-570c0 -40 -21 -45 -85 -45z" />
    <glyph glyph-name="Ldot" unicode="&#x13f;" horiz-adv-x="430" 
d="M210 148h170c30 0 40 -14 40 -74s-10 -74 -40 -74h-295c-32 0 -45 5 -45 40v545c0 40 21 45 85 45s85 -5 85 -45v-437zM319 272c-84 0 -90 12 -90 62v8c0 50 6 62 90 62s90 -12 90 -62v-8c0 -50 -6 -62 -90 -62z" />
    <glyph glyph-name="ldot" unicode="&#x140;" horiz-adv-x="431" 
d="M120 0c-64 0 -85 5 -85 45v570c0 40 21 45 85 45s85 -5 85 -45v-570c0 -40 -21 -45 -85 -45zM338 180c-84 0 -90 12 -90 62v8c0 50 6 62 90 62s90 -12 90 -62v-8c0 -50 -6 -62 -90 -62z" />
    <glyph glyph-name="Lslash" unicode="&#x141;" horiz-adv-x="430" 
d="M210 148h170c30 0 40 -14 40 -74s-10 -74 -40 -74h-295c-32 0 -45 5 -45 40v164l-13 -7c-16 -9 -25 -12 -33 -12c-13 0 -21 6 -21 60c0 56 9 75 37 90l30 16v234c0 40 21 45 85 45s85 -5 85 -45v-141l50 28c16 9 25 12 33 12c13 0 21 -6 21 -60c0 -56 -9 -75 -37 -90
l-67 -37v-149z" />
    <glyph glyph-name="lslash" unicode="&#x142;" horiz-adv-x="314" 
d="M155 0c-64 0 -85 5 -85 45v165l-15 -9c-16 -9 -25 -12 -33 -12c-13 0 -21 6 -21 60c0 56 10 74 37 90l32 19v257c0 40 21 45 85 45s85 -5 85 -45v-158l18 11c16 10 25 12 33 12c13 0 21 -6 21 -60c0 -56 -9 -74 -37 -90l-35 -21v-264c0 -40 -21 -45 -85 -45z" />
    <glyph glyph-name="Nacute" unicode="&#x143;" horiz-adv-x="567" 
d="M125 0c-64 0 -85 5 -85 45v540c0 40 21 45 85 45c40 0 67 -3 89 -43l135 -253h8v251c0 40 21 45 85 45s85 -5 85 -45v-540c0 -40 -17 -45 -81 -45c-40 0 -57 3 -80 42l-148 254h-8v-251c0 -40 -21 -45 -85 -45zM258 673c-51 0 -66 9 -66 30c0 13 4 37 7 49l11 49
c11 47 19 59 99 59c73 0 85 -10 85 -32c0 -16 -9 -39 -19 -62l-22 -49c-13 -30 -25 -44 -95 -44z" />
    <glyph glyph-name="nacute" unicode="&#x144;" horiz-adv-x="522" 
d="M127 0c-64 0 -85 5 -85 45v206c0 145 -17 177 -17 206c0 26 12 38 78 38c57 0 67 -5 77 -41l12 -46c25 58 72 97 151 97c104 0 139 -39 139 -148v-312c0 -40 -21 -45 -85 -45s-85 5 -85 45v270c0 32 -8 45 -34 45c-50 0 -66 -37 -66 -152v-163c0 -40 -21 -45 -85 -45z
M237 538c-51 0 -66 9 -66 30c0 13 4 37 7 49l11 49c11 47 19 59 99 59c73 0 85 -10 85 -32c0 -16 -9 -39 -19 -62l-22 -49c-13 -30 -25 -44 -95 -44z" />
    <glyph glyph-name="Ncommaaccent" unicode="&#x145;" horiz-adv-x="567" 
d="M125 0c-64 0 -85 5 -85 45v540c0 40 21 45 85 45c40 0 67 -3 89 -43l135 -253h8v251c0 40 21 45 85 45s85 -5 85 -45v-540c0 -40 -17 -45 -81 -45c-40 0 -57 3 -80 42l-148 254h-8v-251c0 -40 -21 -45 -85 -45zM249 -253c-41 0 -49 11 -49 29c0 24 10 76 10 115
c0 51 12 61 85 61c66 0 85 -10 85 -45c0 -16 -2 -43 -18 -73l-27 -49c-16 -29 -25 -38 -86 -38z" />
    <glyph glyph-name="ncommaaccent" unicode="&#x146;" horiz-adv-x="522" 
d="M127 0c-64 0 -85 5 -85 45v206c0 145 -17 177 -17 206c0 26 12 38 78 38c57 0 67 -5 77 -41l12 -46c25 58 72 97 151 97c104 0 139 -39 139 -148v-312c0 -40 -21 -45 -85 -45s-85 5 -85 45v270c0 32 -8 45 -34 45c-50 0 -66 -37 -66 -152v-163c0 -40 -21 -45 -85 -45z
M221 -253c-41 0 -49 11 -49 29c0 24 10 76 10 115c0 51 12 61 85 61c66 0 85 -10 85 -45c0 -16 -2 -43 -18 -73l-27 -49c-16 -29 -25 -38 -86 -38z" />
    <glyph glyph-name="Ncaron" unicode="&#x147;" horiz-adv-x="567" 
d="M125 0c-64 0 -85 5 -85 45v540c0 40 21 45 85 45c40 0 67 -3 89 -43l135 -253h8v251c0 40 21 45 85 45s85 -5 85 -45v-540c0 -40 -17 -45 -81 -45c-40 0 -57 3 -80 42l-148 254h-8v-251c0 -40 -21 -45 -85 -45zM118 831c0 18 15 29 50 29c46 0 62 -6 85 -36l27 -35h6
l26 35c22 30 40 36 86 36c35 0 50 -11 50 -29c0 -10 -4 -22 -18 -46l-43 -79c-13 -23 -26 -33 -68 -33h-72c-42 0 -55 10 -68 33l-43 79c-14 24 -18 36 -18 46z" />
    <glyph glyph-name="ncaron" unicode="&#x148;" horiz-adv-x="522" 
d="M127 0c-64 0 -85 5 -85 45v206c0 145 -17 177 -17 206c0 26 12 38 78 38c57 0 67 -5 77 -41l12 -46c25 58 72 97 151 97c104 0 139 -39 139 -148v-312c0 -40 -21 -45 -85 -45s-85 5 -85 45v270c0 32 -8 45 -34 45c-50 0 -66 -37 -66 -152v-163c0 -40 -21 -45 -85 -45z
M97 696c0 18 15 29 50 29c46 0 62 -6 85 -36l27 -35h6l26 35c22 30 40 36 86 36c35 0 50 -11 50 -29c0 -10 -4 -22 -18 -46l-43 -79c-13 -23 -26 -33 -68 -33h-72c-42 0 -55 10 -68 33l-43 79c-14 24 -18 36 -18 46z" />
    <glyph glyph-name="Eng" unicode="&#x14a;" horiz-adv-x="567" 
d="M396 -200c-39 0 -72 5 -100 13c-24 6 -34 19 -34 71c0 61 11 64 27 64c11 0 31 -3 43 -3c18 0 25 5 25 23v89l-139 239h-8v-251c0 -40 -21 -45 -85 -45s-85 5 -85 45v540c0 40 21 45 85 45c40 0 67 -3 89 -43l135 -253h8v251c0 40 21 45 85 45s85 -5 85 -45v-653
c0 -104 -58 -132 -131 -132z" />
    <glyph glyph-name="eng" unicode="&#x14b;" horiz-adv-x="522" 
d="M127 0c-64 0 -85 5 -85 45v206c0 145 -17 177 -17 206c0 26 12 38 78 38c57 0 67 -5 77 -41l12 -46c25 58 72 97 151 97c104 0 139 -39 139 -148v-425c0 -104 -58 -132 -131 -132c-39 0 -72 5 -100 13c-24 6 -34 19 -34 71c0 61 11 64 27 64c11 0 31 -3 43 -3
c18 0 25 5 25 23v347c0 32 -8 45 -34 45c-50 0 -66 -37 -66 -152v-163c0 -40 -21 -45 -85 -45z" />
    <glyph glyph-name="Omacron" unicode="&#x14c;" horiz-adv-x="536" 
d="M268 140c58 0 68 15 68 145v60c0 130 -10 145 -68 145s-68 -15 -68 -145v-60c0 -130 10 -145 68 -145zM268 -5c-160 0 -238 30 -238 270v90c0 250 68 280 238 280s238 -30 238 -280v-90c0 -240 -78 -270 -238 -270zM138 741c0 57 5 68 40 68h180c35 0 40 -11 40 -68
s-5 -68 -40 -68h-180c-35 0 -40 11 -40 68z" />
    <glyph glyph-name="omacron" unicode="&#x14d;" horiz-adv-x="512" 
d="M248 -10c-160 0 -218 45 -218 255c0 225 64 260 234 260c160 0 218 -40 218 -250c0 -225 -64 -265 -234 -265zM253 130c52 0 57 20 57 118c0 107 -14 117 -52 117c-52 0 -57 -15 -57 -113c0 -107 14 -122 52 -122zM126 606c0 57 5 68 40 68h180c35 0 40 -11 40 -68
s-5 -68 -40 -68h-180c-35 0 -40 11 -40 68z" />
    <glyph glyph-name="Obreve" unicode="&#x14e;" horiz-adv-x="536" 
d="M268 140c58 0 68 15 68 145v60c0 130 -10 145 -68 145s-68 -15 -68 -145v-60c0 -130 10 -145 68 -145zM268 -5c-160 0 -238 30 -238 270v90c0 250 68 280 238 280s238 -30 238 -280v-90c0 -240 -78 -270 -238 -270zM268 673c-102 0 -153 31 -153 141c0 40 11 45 55 45
s52 -5 56 -32c3 -23 6 -32 42 -32s39 9 42 32c4 27 12 32 56 32s55 -5 55 -45c0 -110 -51 -141 -153 -141z" />
    <glyph glyph-name="obreve" unicode="&#x14f;" horiz-adv-x="512" 
d="M248 -10c-160 0 -218 45 -218 255c0 225 64 260 234 260c160 0 218 -40 218 -250c0 -225 -64 -265 -234 -265zM253 130c52 0 57 20 57 118c0 107 -14 117 -52 117c-52 0 -57 -15 -57 -113c0 -107 14 -122 52 -122zM256 538c-102 0 -153 31 -153 141c0 40 11 45 55 45
s52 -5 56 -32c3 -23 6 -32 42 -32s39 9 42 32c4 27 12 32 56 32s55 -5 55 -45c0 -110 -51 -141 -153 -141z" />
    <glyph glyph-name="Ohungarumlaut" unicode="&#x150;" horiz-adv-x="536" 
d="M268 140c58 0 68 15 68 145v60c0 130 -10 145 -68 145s-68 -15 -68 -145v-60c0 -130 10 -145 68 -145zM268 -5c-160 0 -238 30 -238 270v90c0 250 68 280 238 280s238 -30 238 -280v-90c0 -240 -78 -270 -238 -270zM103 703c0 12 2 26 18 126c4 23 12 31 87 31
c33 0 52 -2 62 -5c16 -5 19 -15 19 -26c0 -12 -4 -29 -41 -123c-8 -20 -16 -33 -81 -33c-55 0 -64 9 -64 30zM294 703c0 10 4 23 37 129c6 19 17 28 86 28c29 0 50 -2 62 -6c16 -6 20 -15 20 -25c0 -11 -1 -22 -59 -122c-14 -25 -21 -34 -86 -34c-51 0 -60 11 -60 30z" />
    <glyph glyph-name="ohungarumlaut" unicode="&#x151;" horiz-adv-x="512" 
d="M248 -10c-160 0 -218 45 -218 255c0 225 64 260 234 260c160 0 218 -40 218 -250c0 -225 -64 -265 -234 -265zM253 130c52 0 57 20 57 118c0 107 -14 117 -52 117c-52 0 -57 -15 -57 -113c0 -107 14 -122 52 -122zM93 568c0 12 2 26 18 126c4 23 12 31 87 31
c33 0 52 -2 62 -5c16 -5 19 -15 19 -26c0 -12 -4 -29 -41 -123c-8 -20 -16 -33 -81 -33c-55 0 -64 9 -64 30zM284 568c0 10 4 23 37 129c6 19 17 28 86 28c29 0 50 -2 62 -6c16 -6 20 -15 20 -25c0 -11 -1 -22 -59 -122c-14 -25 -21 -34 -86 -34c-51 0 -60 11 -60 30z" />
    <glyph glyph-name="OE" unicode="&#x152;" horiz-adv-x="751" 
d="M268 -5c-160 0 -238 30 -238 270v90c0 250 68 280 238 280c48 0 87 -3 119 -15c10 8 25 10 44 10h255c30 0 40 -14 40 -74s-10 -74 -40 -74h-180v-82h110c35 0 40 -13 40 -73s-5 -73 -40 -73h-110v-106h190c30 0 40 -14 40 -74s-10 -74 -40 -74h-265c-20 0 -36 2 -45 11
c-32 -13 -72 -16 -118 -16zM268 140c58 0 68 15 68 145v60c0 130 -10 145 -68 145s-68 -15 -68 -145v-60c0 -130 10 -145 68 -145z" />
    <glyph glyph-name="oe" unicode="&#x153;" horiz-adv-x="769" 
d="M248 -10c-160 0 -218 45 -218 255c0 225 64 260 234 260c59 0 104 -6 136 -25c33 19 78 25 135 25c172 0 204 -69 204 -233c0 -47 -10 -72 -58 -72h-201c5 -60 24 -66 76 -66c78 0 134 11 147 11c18 0 27 -20 27 -68c0 -49 -10 -62 -29 -68c-35 -12 -112 -19 -154 -19
c-60 0 -109 6 -147 29c-35 -23 -84 -29 -152 -29zM253 130c52 0 57 20 57 118c0 107 -14 117 -52 117c-52 0 -57 -15 -57 -113c0 -107 14 -122 52 -122zM533 365c-40 0 -52 -6 -55 -68h104c0 57 -7 68 -49 68z" />
    <glyph glyph-name="Racute" unicode="&#x154;" horiz-adv-x="519" 
d="M125 0c-64 0 -85 5 -85 45v531c0 39 9 46 42 50c51 6 114 9 196 9c131 0 206 -35 206 -205c0 -94 -33 -146 -85 -175l82 -172c17 -36 18 -45 18 -51c0 -13 -4 -32 -67 -32c-89 0 -99 3 -115 47l-63 178h-44v-180c0 -40 -21 -45 -85 -45zM210 495v-155h33
c50 0 67 15 67 79c0 61 -23 78 -55 78c-15 0 -35 -1 -45 -2zM224 673c-51 0 -66 9 -66 30c0 13 4 37 7 49l11 49c11 47 19 59 99 59c73 0 85 -10 85 -32c0 -16 -9 -39 -19 -62l-22 -49c-13 -30 -25 -44 -95 -44z" />
    <glyph glyph-name="racute" unicode="&#x155;" horiz-adv-x="386" 
d="M127 0c-64 0 -85 5 -85 45v206c0 145 -17 177 -17 206c0 26 12 38 78 38c57 0 67 -5 77 -41l8 -30c26 52 68 76 121 76c18 0 38 -3 45 -5c20 -6 29 -16 29 -78c0 -65 -19 -70 -30 -70c-8 0 -26 3 -52 3c-58 0 -89 -35 -89 -145v-160c0 -40 -21 -45 -85 -45zM158 538
c-51 0 -66 9 -66 30c0 13 4 37 7 49l11 49c11 47 19 59 99 59c73 0 85 -10 85 -32c0 -16 -9 -39 -19 -62l-22 -49c-13 -30 -25 -44 -95 -44z" />
    <glyph glyph-name="Rcommaaccent" unicode="&#x156;" horiz-adv-x="519" 
d="M125 0c-64 0 -85 5 -85 45v531c0 39 9 46 42 50c51 6 114 9 196 9c131 0 206 -35 206 -205c0 -94 -33 -146 -85 -175l82 -172c17 -36 18 -45 18 -51c0 -13 -4 -32 -67 -32c-89 0 -99 3 -115 47l-63 178h-44v-180c0 -40 -21 -45 -85 -45zM210 495v-155h33
c50 0 67 15 67 79c0 61 -23 78 -55 78c-15 0 -35 -1 -45 -2zM224 -253c-41 0 -49 11 -49 29c0 24 10 76 10 115c0 51 12 61 85 61c66 0 85 -10 85 -45c0 -16 -2 -43 -18 -73l-27 -49c-16 -29 -25 -38 -86 -38z" />
    <glyph glyph-name="rcommaaccent" unicode="&#x157;" horiz-adv-x="386" 
d="M127 0c-64 0 -85 5 -85 45v206c0 145 -17 177 -17 206c0 26 12 38 78 38c57 0 67 -5 77 -41l8 -30c26 52 68 76 121 76c18 0 38 -3 45 -5c20 -6 29 -16 29 -78c0 -65 -19 -70 -30 -70c-8 0 -26 3 -52 3c-58 0 -89 -35 -89 -145v-160c0 -40 -21 -45 -85 -45zM83 -253
c-41 0 -49 11 -49 29c0 24 10 76 10 115c0 51 12 61 85 61c66 0 85 -10 85 -45c0 -16 -2 -43 -18 -73l-27 -49c-16 -29 -25 -38 -86 -38z" />
    <glyph glyph-name="Rcaron" unicode="&#x158;" horiz-adv-x="519" 
d="M125 0c-64 0 -85 5 -85 45v531c0 39 9 46 42 50c51 6 114 9 196 9c131 0 206 -35 206 -205c0 -94 -33 -146 -85 -175l82 -172c17 -36 18 -45 18 -51c0 -13 -4 -32 -67 -32c-89 0 -99 3 -115 47l-63 178h-44v-180c0 -40 -21 -45 -85 -45zM210 495v-155h33
c50 0 67 15 67 79c0 61 -23 78 -55 78c-15 0 -35 -1 -45 -2zM94 831c0 18 15 29 50 29c46 0 62 -6 85 -36l27 -35h6l26 35c22 30 40 36 86 36c35 0 50 -11 50 -29c0 -10 -4 -22 -18 -46l-43 -79c-13 -23 -26 -33 -68 -33h-72c-42 0 -55 10 -68 33l-43 79
c-14 24 -18 36 -18 46z" />
    <glyph glyph-name="rcaron" unicode="&#x159;" horiz-adv-x="386" 
d="M127 0c-64 0 -85 5 -85 45v206c0 145 -17 177 -17 206c0 26 12 38 78 38c57 0 67 -5 77 -41l8 -30c26 52 68 76 121 76c18 0 38 -3 45 -5c20 -6 29 -16 29 -78c0 -65 -19 -70 -30 -70c-8 0 -26 3 -52 3c-58 0 -89 -35 -89 -145v-160c0 -40 -21 -45 -85 -45zM28 696
c0 18 15 29 50 29c46 0 62 -6 85 -36l27 -35h6l26 35c22 30 40 36 86 36c35 0 50 -11 50 -29c0 -10 -4 -22 -18 -46l-43 -79c-13 -23 -26 -33 -68 -33h-72c-42 0 -55 10 -68 33l-43 79c-14 24 -18 36 -18 46z" />
    <glyph glyph-name="Sacute" unicode="&#x15a;" horiz-adv-x="455" 
d="M195 -5c-53 0 -105 8 -138 17c-24 7 -32 17 -32 78c0 55 8 66 25 66c23 0 47 -11 120 -11c58 0 98 7 98 50c0 26 -4 34 -45 52l-94 42c-52 23 -95 65 -95 164c0 140 96 182 191 182c68 0 123 -8 164 -19c16 -4 24 -12 24 -76c0 -52 -11 -66 -26 -66c-18 0 -50 11 -119 11
c-38 0 -71 -3 -71 -34c0 -23 12 -28 37 -39l89 -39c67 -29 107 -61 107 -170c0 -154 -100 -208 -235 -208zM207 673c-51 0 -66 9 -66 30c0 13 4 37 7 49l11 49c11 47 19 59 99 59c73 0 85 -10 85 -32c0 -16 -9 -39 -19 -62l-22 -49c-13 -30 -25 -44 -95 -44z" />
    <glyph glyph-name="sacute" unicode="&#x15b;" horiz-adv-x="451" 
d="M206 -10c-45 0 -112 7 -147 18c-19 6 -29 20 -29 69c0 48 9 68 27 68c13 0 69 -11 127 -11c51 0 65 7 65 22c0 12 -7 17 -22 23l-93 40c-48 21 -83 63 -83 134c0 124 104 152 185 152c45 0 113 -7 151 -17c19 -5 29 -15 29 -73c0 -61 -19 -65 -30 -65
c-16 0 -60 13 -112 13c-35 0 -51 -6 -51 -17c0 -7 5 -12 21 -19l90 -35c69 -27 87 -68 87 -132c0 -134 -104 -170 -215 -170zM215 538c-51 0 -66 9 -66 30c0 13 4 37 7 49l11 49c11 47 19 59 99 59c73 0 85 -10 85 -32c0 -16 -9 -39 -19 -62l-22 -49
c-13 -30 -25 -44 -95 -44z" />
    <glyph glyph-name="Scircumflex" unicode="&#x15c;" horiz-adv-x="455" 
d="M195 -5c-53 0 -105 8 -138 17c-24 7 -32 17 -32 78c0 55 8 66 25 66c23 0 47 -11 120 -11c58 0 98 7 98 50c0 26 -4 34 -45 52l-94 42c-52 23 -95 65 -95 164c0 140 96 182 191 182c68 0 123 -8 164 -19c16 -4 24 -12 24 -76c0 -52 -11 -66 -26 -66c-18 0 -50 11 -119 11
c-38 0 -71 -3 -71 -34c0 -23 12 -28 37 -39l89 -39c67 -29 107 -61 107 -170c0 -154 -100 -208 -235 -208zM235 744h-6l-26 -35c-22 -30 -40 -36 -86 -36c-35 0 -50 11 -50 29c0 10 4 22 18 46l43 79c13 23 26 33 68 33h72c42 0 55 -10 68 -33l43 -79c14 -24 18 -36 18 -46
c0 -18 -15 -29 -50 -29c-46 0 -62 6 -85 36z" />
    <glyph glyph-name="scircumflex" unicode="&#x15d;" horiz-adv-x="451" 
d="M206 -10c-45 0 -112 7 -147 18c-19 6 -29 20 -29 69c0 48 9 68 27 68c13 0 69 -11 127 -11c51 0 65 7 65 22c0 12 -7 17 -22 23l-93 40c-48 21 -83 63 -83 134c0 124 104 152 185 152c45 0 113 -7 151 -17c19 -5 29 -15 29 -73c0 -61 -19 -65 -30 -65
c-16 0 -60 13 -112 13c-35 0 -51 -6 -51 -17c0 -7 5 -12 21 -19l90 -35c69 -27 87 -68 87 -132c0 -134 -104 -170 -215 -170zM243 609h-6l-26 -35c-22 -30 -40 -36 -86 -36c-35 0 -50 11 -50 29c0 10 4 22 18 46l43 79c13 23 26 33 68 33h72c42 0 55 -10 68 -33l43 -79
c14 -24 18 -36 18 -46c0 -18 -15 -29 -50 -29c-46 0 -62 6 -85 36z" />
    <glyph glyph-name="Scedilla" unicode="&#x15e;" horiz-adv-x="455" 
d="M218 -250c-31 0 -53 2 -75 7s-32 10 -32 59c0 48 11 58 30 58c14 0 36 -5 57 -5c12 0 16 2 16 8c0 7 -10 12 -24 18c-30 12 -38 24 -38 67v35c-37 3 -71 8 -95 15s-32 17 -32 78c0 55 8 66 25 66c23 0 47 -11 120 -11c58 0 98 7 98 50c0 26 -4 34 -45 52l-94 42
c-52 23 -95 65 -95 164c0 140 96 182 191 182c68 0 123 -8 164 -19c16 -4 24 -12 24 -76c0 -52 -11 -66 -26 -66c-18 0 -50 11 -119 11c-38 0 -71 -3 -71 -34c0 -23 12 -28 37 -39l89 -39c67 -29 107 -61 107 -170c0 -124 -65 -183 -160 -202v-19c0 -8 3 -11 13 -16
c54 -26 70 -47 70 -104c0 -79 -46 -112 -135 -112z" />
    <glyph glyph-name="scedilla" unicode="&#x15f;" horiz-adv-x="451" 
d="M224 -250c-31 0 -53 2 -75 7s-32 10 -32 59c0 48 11 58 30 58c14 0 36 -5 57 -5c12 0 16 2 16 8c0 7 -10 12 -24 18c-30 12 -38 24 -38 67v30c-37 3 -75 8 -99 16c-19 6 -29 20 -29 69c0 48 9 68 27 68c13 0 69 -11 127 -11c51 0 65 7 65 22c0 12 -7 17 -22 23l-93 40
c-48 21 -83 63 -83 134c0 124 104 152 185 152c45 0 113 -7 151 -17c19 -5 29 -15 29 -73c0 -61 -19 -65 -30 -65c-16 0 -60 13 -112 13c-35 0 -51 -6 -51 -17c0 -7 5 -12 21 -19l90 -35c69 -27 87 -68 87 -132c0 -105 -64 -150 -145 -164v-14c0 -8 3 -11 13 -16
c54 -26 70 -47 70 -104c0 -79 -46 -112 -135 -112z" />
    <glyph glyph-name="Scaron" unicode="&#x160;" horiz-adv-x="455" 
d="M195 -5c-53 0 -105 8 -138 17c-24 7 -32 17 -32 78c0 55 8 66 25 66c23 0 47 -11 120 -11c58 0 98 7 98 50c0 26 -4 34 -45 52l-94 42c-52 23 -95 65 -95 164c0 140 96 182 191 182c68 0 123 -8 164 -19c16 -4 24 -12 24 -76c0 -52 -11 -66 -26 -66c-18 0 -50 11 -119 11
c-38 0 -71 -3 -71 -34c0 -23 12 -28 37 -39l89 -39c67 -29 107 -61 107 -170c0 -154 -100 -208 -235 -208zM67 831c0 18 15 29 50 29c46 0 62 -6 85 -36l27 -35h6l26 35c22 30 40 36 86 36c35 0 50 -11 50 -29c0 -10 -4 -22 -18 -46l-43 -79c-13 -23 -26 -33 -68 -33h-72
c-42 0 -55 10 -68 33l-43 79c-14 24 -18 36 -18 46z" />
    <glyph glyph-name="scaron" unicode="&#x161;" horiz-adv-x="451" 
d="M206 -10c-45 0 -112 7 -147 18c-19 6 -29 20 -29 69c0 48 9 68 27 68c13 0 69 -11 127 -11c51 0 65 7 65 22c0 12 -7 17 -22 23l-93 40c-48 21 -83 63 -83 134c0 124 104 152 185 152c45 0 113 -7 151 -17c19 -5 29 -15 29 -73c0 -61 -19 -65 -30 -65
c-16 0 -60 13 -112 13c-35 0 -51 -6 -51 -17c0 -7 5 -12 21 -19l90 -35c69 -27 87 -68 87 -132c0 -134 -104 -170 -215 -170zM75 696c0 18 15 29 50 29c46 0 62 -6 85 -36l27 -35h6l26 35c22 30 40 36 86 36c35 0 50 -11 50 -29c0 -10 -4 -22 -18 -46l-43 -79
c-13 -23 -26 -33 -68 -33h-72c-42 0 -55 10 -68 33l-43 79c-14 24 -18 36 -18 46z" />
    <glyph glyph-name="Tcommaaccent" unicode="&#x162;" horiz-adv-x="458" 
d="M229 0c-64 0 -85 5 -85 45v437h-94c-30 0 -40 14 -40 74s10 74 40 74h358c30 0 40 -14 40 -74s-10 -74 -40 -74h-94v-437c0 -40 -21 -45 -85 -45zM187 -253c-41 0 -49 11 -49 29c0 24 10 76 10 115c0 51 12 61 85 61c66 0 85 -10 85 -45c0 -16 -2 -43 -18 -73l-27 -49
c-16 -29 -25 -38 -86 -38z" />
    <glyph glyph-name="tcommaaccent" unicode="&#x163;" horiz-adv-x="350" 
d="M195 -10c-81 0 -125 28 -125 132v238h-30c-25 0 -30 12 -30 65s5 65 30 65h30v65c0 40 21 45 85 45s85 -5 85 -45v-65h60c25 0 30 -12 30 -65s-5 -65 -30 -65h-60v-204c0 -11 3 -17 23 -17c17 0 29 4 40 4c16 0 27 -6 27 -61c0 -51 -10 -63 -29 -72
c-30 -14 -67 -20 -106 -20zM142 -253c-41 0 -49 11 -49 29c0 24 10 76 10 115c0 51 12 61 85 61c66 0 85 -10 85 -45c0 -16 -2 -43 -18 -73l-27 -49c-16 -29 -25 -38 -86 -38z" />
    <glyph glyph-name="Tcaron" unicode="&#x164;" horiz-adv-x="458" 
d="M229 0c-64 0 -85 5 -85 45v437h-94c-30 0 -40 14 -40 74s10 74 40 74h358c30 0 40 -14 40 -74s-10 -74 -40 -74h-94v-437c0 -40 -21 -45 -85 -45zM64 831c0 18 15 29 50 29c46 0 62 -6 85 -36l27 -35h6l26 35c22 30 40 36 86 36c35 0 50 -11 50 -29c0 -10 -4 -22 -18 -46
l-43 -79c-13 -23 -26 -33 -68 -33h-72c-42 0 -55 10 -68 33l-43 79c-14 24 -18 36 -18 46z" />
    <glyph glyph-name="tcaron" unicode="&#x165;" horiz-adv-x="533" 
d="M452 660c73 0 85 -10 85 -61v-26c0 -41 -9 -74 -24 -112l-13 -32c-23 -56 -35 -64 -96 -64c-41 0 -49 11 -49 29c0 24 12 86 12 127v78c0 51 12 61 85 61zM195 -10c-81 0 -125 28 -125 132v238h-30c-25 0 -30 12 -30 65s5 65 30 65h30v65c0 40 21 45 85 45s85 -5 85 -45
v-65h60c25 0 30 -12 30 -65s-5 -65 -30 -65h-60v-204c0 -11 3 -17 23 -17c17 0 29 4 40 4c16 0 27 -6 27 -61c0 -51 -10 -63 -29 -72c-30 -14 -67 -20 -106 -20z" />
    <glyph glyph-name="Tbar" unicode="&#x166;" horiz-adv-x="458" 
d="M229 0c-64 0 -85 5 -85 45v193h-65c-35 0 -40 11 -40 58s5 58 40 58h65v128h-94c-30 0 -40 14 -40 74s10 74 40 74h358c30 0 40 -14 40 -74s-10 -74 -40 -74h-94v-128h65c35 0 40 -11 40 -58s-5 -58 -40 -58h-65v-193c0 -40 -21 -45 -85 -45z" />
    <glyph glyph-name="tbar" unicode="&#x167;" horiz-adv-x="350" 
d="M195 -10c-81 0 -125 28 -125 132v65h-30c-25 0 -30 12 -30 65s5 65 30 65h30v43h-30c-25 0 -30 12 -30 65s5 65 30 65h30v65c0 40 21 45 85 45s85 -5 85 -45v-65h60c25 0 30 -12 30 -65s-5 -65 -30 -65h-60v-43h60c25 0 30 -12 30 -65s-5 -65 -30 -65h-60v-31
c0 -11 3 -17 23 -17c17 0 29 4 40 4c16 0 27 -6 27 -61c0 -51 -10 -63 -29 -72c-30 -14 -67 -20 -106 -20z" />
    <glyph glyph-name="Utilde" unicode="&#x168;" horiz-adv-x="536" 
d="M268 -5c-170 0 -228 50 -228 200v390c0 40 21 45 85 45s85 -5 85 -45v-400c0 -42 8 -50 58 -50s58 8 58 50v400c0 40 21 45 85 45s85 -5 85 -45v-390c0 -150 -58 -200 -228 -200zM105 729c0 47 7 58 28 72c14 9 42 21 74 21c56 0 87 -19 129 -19c38 0 58 13 73 13
c16 0 21 -7 21 -55c0 -47 -7 -58 -28 -72c-14 -9 -42 -21 -74 -21c-56 0 -87 19 -129 19c-39 0 -58 -13 -73 -13c-16 0 -21 7 -21 55z" />
    <glyph glyph-name="utilde" unicode="&#x169;" horiz-adv-x="515" 
d="M171 -10c-94 0 -136 29 -136 138v322c0 40 21 45 85 45s85 -5 85 -45v-278c0 -32 8 -37 34 -37c50 0 64 37 64 152v163c0 40 21 45 85 45s85 -5 85 -45v-206c0 -145 17 -177 17 -206c0 -26 -12 -38 -78 -38c-57 0 -67 5 -77 41l-10 38c-26 -56 -75 -89 -154 -89zM93 605
c0 47 7 58 28 72c14 9 42 21 74 21c56 0 87 -19 129 -19c38 0 58 13 73 13c16 0 21 -7 21 -55c0 -47 -7 -58 -28 -72c-14 -9 -42 -21 -74 -21c-56 0 -87 19 -129 19c-39 0 -58 -13 -73 -13c-16 0 -21 7 -21 55z" />
    <glyph glyph-name="Umacron" unicode="&#x16a;" horiz-adv-x="536" 
d="M268 -5c-170 0 -228 50 -228 200v390c0 40 21 45 85 45s85 -5 85 -45v-400c0 -42 8 -50 58 -50s58 8 58 50v400c0 40 21 45 85 45s85 -5 85 -45v-390c0 -150 -58 -200 -228 -200zM138 741c0 57 5 68 40 68h180c35 0 40 -11 40 -68s-5 -68 -40 -68h-180
c-35 0 -40 11 -40 68z" />
    <glyph glyph-name="umacron" unicode="&#x16b;" horiz-adv-x="515" 
d="M171 -10c-94 0 -136 29 -136 138v322c0 40 21 45 85 45s85 -5 85 -45v-278c0 -32 8 -37 34 -37c50 0 64 37 64 152v163c0 40 21 45 85 45s85 -5 85 -45v-206c0 -145 17 -177 17 -206c0 -26 -12 -38 -78 -38c-57 0 -67 5 -77 41l-10 38c-26 -56 -75 -89 -154 -89zM125 606
c0 57 5 68 40 68h180c35 0 40 -11 40 -68s-5 -68 -40 -68h-180c-35 0 -40 11 -40 68z" />
    <glyph glyph-name="Ubreve" unicode="&#x16c;" horiz-adv-x="536" 
d="M268 -5c-170 0 -228 50 -228 200v390c0 40 21 45 85 45s85 -5 85 -45v-400c0 -42 8 -50 58 -50s58 8 58 50v400c0 40 21 45 85 45s85 -5 85 -45v-390c0 -150 -58 -200 -228 -200zM268 668c-102 0 -153 31 -153 141c0 40 11 45 55 45s52 -5 56 -32c3 -23 6 -32 42 -32
s39 9 42 32c4 27 12 32 56 32s55 -5 55 -45c0 -110 -51 -141 -153 -141z" />
    <glyph glyph-name="ubreve" unicode="&#x16d;" horiz-adv-x="515" 
d="M171 -10c-94 0 -136 29 -136 138v322c0 40 21 45 85 45s85 -5 85 -45v-278c0 -32 8 -37 34 -37c50 0 64 37 64 152v163c0 40 21 45 85 45s85 -5 85 -45v-206c0 -145 17 -177 17 -206c0 -26 -12 -38 -78 -38c-57 0 -67 5 -77 41l-10 38c-26 -56 -75 -89 -154 -89zM255 538
c-102 0 -153 31 -153 141c0 40 11 45 55 45s52 -5 56 -32c3 -23 6 -32 42 -32s39 9 42 32c4 27 12 32 56 32s55 -5 55 -45c0 -110 -51 -141 -153 -141z" />
    <glyph glyph-name="Uring" unicode="&#x16e;" horiz-adv-x="536" 
d="M268 -5c-170 0 -228 50 -228 200v390c0 40 21 45 85 45s85 -5 85 -45v-400c0 -42 8 -50 58 -50s58 8 58 50v400c0 40 21 45 85 45s85 -5 85 -45v-390c0 -150 -58 -200 -228 -200zM267 767c36 0 39 7 39 28s-3 28 -39 28c-35 0 -38 -7 -38 -28s3 -28 38 -28zM267 668
c-94 0 -150 18 -150 127s56 127 150 127c95 0 151 -18 151 -127s-56 -127 -151 -127z" />
    <glyph glyph-name="uring" unicode="&#x16f;" horiz-adv-x="515" 
d="M171 -10c-94 0 -136 29 -136 138v322c0 40 21 45 85 45s85 -5 85 -45v-278c0 -32 8 -37 34 -37c50 0 64 37 64 152v163c0 40 21 45 85 45s85 -5 85 -45v-206c0 -145 17 -177 17 -206c0 -26 -12 -38 -78 -38c-57 0 -67 5 -77 41l-10 38c-26 -56 -75 -89 -154 -89zM255 637
c36 0 39 7 39 28s-3 28 -39 28c-35 0 -38 -7 -38 -28s3 -28 38 -28zM255 538c-94 0 -150 18 -150 127s56 127 150 127c95 0 151 -18 151 -127s-56 -127 -151 -127z" />
    <glyph glyph-name="Uhungarumlaut" unicode="&#x170;" horiz-adv-x="536" 
d="M268 -5c-170 0 -228 50 -228 200v390c0 40 21 45 85 45s85 -5 85 -45v-400c0 -42 8 -50 58 -50s58 8 58 50v400c0 40 21 45 85 45s85 -5 85 -45v-390c0 -150 -58 -200 -228 -200zM110 703c0 12 2 26 18 126c4 23 12 31 87 31c33 0 52 -2 62 -5c16 -5 19 -15 19 -26
c0 -12 -4 -29 -41 -123c-8 -20 -16 -33 -81 -33c-55 0 -64 9 -64 30zM301 703c0 10 4 23 37 129c6 19 17 28 86 28c29 0 50 -2 62 -6c16 -6 20 -15 20 -25c0 -11 -1 -22 -59 -122c-14 -25 -21 -34 -86 -34c-51 0 -60 11 -60 30z" />
    <glyph glyph-name="uhungarumlaut" unicode="&#x171;" horiz-adv-x="515" 
d="M171 -10c-94 0 -136 29 -136 138v322c0 40 21 45 85 45s85 -5 85 -45v-278c0 -32 8 -37 34 -37c50 0 64 37 64 152v163c0 40 21 45 85 45s85 -5 85 -45v-206c0 -145 17 -177 17 -206c0 -26 -12 -38 -78 -38c-57 0 -67 5 -77 41l-10 38c-26 -56 -75 -89 -154 -89zM86 568
c0 12 2 26 18 126c4 23 12 31 87 31c33 0 52 -2 62 -5c16 -5 19 -15 19 -26c0 -12 -4 -29 -41 -123c-8 -20 -16 -33 -81 -33c-55 0 -64 9 -64 30zM277 568c0 10 4 23 37 129c6 19 17 28 86 28c29 0 50 -2 62 -6c16 -6 20 -15 20 -25c0 -11 -1 -22 -59 -122
c-14 -25 -21 -34 -86 -34c-51 0 -60 11 -60 30z" />
    <glyph glyph-name="Uogonek" unicode="&#x172;" horiz-adv-x="536" 
d="M398 8c-65 -34 -81 -50 -81 -67c0 -8 3 -12 10 -12s16 2 26 2c18 0 28 -8 28 -53c0 -49 -9 -55 -34 -64c-20 -7 -51 -14 -91 -14c-56 0 -92 15 -92 82c0 52 20 84 59 115c-136 8 -183 62 -183 198v390c0 40 21 45 85 45s85 -5 85 -45v-400c0 -42 8 -50 58 -50s58 8 58 50
v400c0 40 21 45 85 45s85 -5 85 -45v-390c0 -95 -19 -146 -98 -187z" />
    <glyph glyph-name="uogonek" unicode="&#x173;" horiz-adv-x="515" 
d="M365 -200c-56 0 -92 15 -92 82c0 53 20 84 75 130c-6 6 -10 15 -13 29l-10 38c-26 -56 -75 -89 -154 -89c-94 0 -136 29 -136 138v322c0 40 21 45 85 45s85 -5 85 -45v-278c0 -32 8 -37 34 -37c50 0 64 37 64 152v163c0 40 21 45 85 45s85 -5 85 -45v-206
c0 -145 17 -177 17 -206c0 -15 -5 -26 -26 -46c-36 -36 -38 -43 -38 -51s3 -12 10 -12s16 2 26 2c18 0 28 -8 28 -53c0 -49 -9 -55 -34 -64c-20 -7 -51 -14 -91 -14z" />
    <glyph glyph-name="Wcircumflex" unicode="&#x174;" horiz-adv-x="814" 
d="M217 0c-91 0 -132 8 -140 70l-63 470c-2 19 -4 39 -4 51c0 28 8 39 81 39c75 0 94 -7 98 -50l37 -424h11l67 414c7 43 35 50 103 50s96 -7 103 -50l67 -414h11l37 424c4 43 23 50 98 50c73 0 81 -11 81 -39c0 -12 -2 -32 -4 -51l-63 -470c-8 -62 -49 -70 -140 -70
c-89 0 -132 13 -141 74l-44 297h-10l-44 -297c-9 -61 -52 -74 -141 -74zM410 744h-6l-26 -35c-22 -30 -40 -36 -86 -36c-35 0 -50 11 -50 29c0 10 4 22 18 46l43 79c13 23 26 33 68 33h72c42 0 55 -10 68 -33l43 -79c14 -24 18 -36 18 -46c0 -18 -15 -29 -50 -29
c-46 0 -62 6 -85 36z" />
    <glyph glyph-name="wcircumflex" unicode="&#x175;" horiz-adv-x="726" 
d="M193 0c-99 0 -123 12 -130 60l-48 335c-3 23 -5 43 -5 53c0 37 8 47 85 47c74 0 88 -7 91 -44l27 -300h13l42 292c5 35 30 42 95 42s90 -7 95 -42l42 -292h13l27 300c3 37 17 44 91 44c77 0 85 -10 85 -47c0 -10 -2 -30 -5 -53l-48 -335c-7 -48 -31 -60 -130 -60
c-104 0 -135 13 -142 60l-23 164h-10l-23 -164c-7 -47 -38 -60 -142 -60zM366 609h-6l-26 -35c-22 -30 -40 -36 -86 -36c-35 0 -50 11 -50 29c0 10 4 22 18 46l43 79c13 23 26 33 68 33h72c42 0 55 -10 68 -33l43 -79c14 -24 18 -36 18 -46c0 -18 -15 -29 -50 -29
c-46 0 -62 6 -85 36z" />
    <glyph glyph-name="Ycircumflex" unicode="&#x176;" horiz-adv-x="506" 
d="M253 0c-64 0 -85 5 -85 45v170l-136 307c-19 44 -23 60 -23 70c0 17 8 38 72 38c87 0 99 -8 112 -50l57 -192h6l57 192c13 42 22 50 107 50c69 0 77 -19 77 -36c0 -10 -4 -28 -23 -72l-136 -307v-170c0 -40 -21 -45 -85 -45zM256 744h-6l-26 -35c-22 -30 -40 -36 -86 -36
c-35 0 -50 11 -50 29c0 10 4 22 18 46l43 79c13 23 26 33 68 33h72c42 0 55 -10 68 -33l43 -79c14 -24 18 -36 18 -46c0 -18 -15 -29 -50 -29c-46 0 -62 6 -85 36z" />
    <glyph glyph-name="ycircumflex" unicode="&#x177;" horiz-adv-x="499" 
d="M10 454c0 23 8 41 88 41c71 0 87 -7 92 -44l46 -314h14l58 314c7 37 21 44 91 44c77 0 90 -13 90 -40c0 -14 -4 -35 -23 -111l-93 -362c-38 -146 -75 -182 -209 -182c-42 0 -93 7 -124 19c-20 8 -29 19 -29 68c0 48 9 68 27 68c13 0 48 -11 107 -11c63 0 72 12 78 42
l2 14h-14c-88 0 -104 17 -114 60l-64 275c-20 85 -23 106 -23 119zM252 609h-6l-26 -35c-22 -30 -40 -36 -86 -36c-35 0 -50 11 -50 29c0 10 4 22 18 46l43 79c13 23 26 33 68 33h72c42 0 55 -10 68 -33l43 -79c14 -24 18 -36 18 -46c0 -18 -15 -29 -50 -29
c-46 0 -62 6 -85 36z" />
    <glyph glyph-name="Ydieresis" unicode="&#x178;" horiz-adv-x="506" 
d="M253 0c-64 0 -85 5 -85 45v170l-136 307c-19 44 -23 60 -23 70c0 17 8 38 72 38c87 0 99 -8 112 -50l57 -192h6l57 192c13 42 22 50 107 50c69 0 77 -19 77 -36c0 -10 -4 -28 -23 -72l-136 -307v-170c0 -40 -21 -45 -85 -45zM153 668c-76 0 -85 12 -85 62v8
c0 50 9 62 85 62s85 -12 85 -62v-8c0 -50 -9 -62 -85 -62zM353 668c-76 0 -85 12 -85 62v8c0 50 9 62 85 62s85 -12 85 -62v-8c0 -50 -9 -62 -85 -62z" />
    <glyph glyph-name="Zacute" unicode="&#x179;" horiz-adv-x="424" 
d="M208 482h-143c-30 0 -40 14 -40 74s10 74 40 74h301c35 0 40 -15 40 -66c0 -27 -7 -50 -36 -106l-162 -310h166c30 0 40 -14 40 -74s-10 -74 -40 -74h-324c-35 0 -40 15 -40 66c0 27 9 52 41 113zM197 673c-51 0 -66 9 -66 30c0 13 4 37 7 49l11 49c11 47 19 59 99 59
c73 0 85 -10 85 -32c0 -16 -9 -39 -19 -62l-22 -49c-13 -30 -25 -44 -95 -44z" />
    <glyph glyph-name="zacute" unicode="&#x17a;" horiz-adv-x="407" 
d="M392 71c0 -40 -5 -71 -30 -71h-322c-25 0 -30 23 -30 63c0 54 6 78 46 124l146 166h-142c-25 0 -30 31 -30 71s5 71 30 71h302c24 0 30 -24 30 -63c0 -42 -6 -77 -33 -108l-159 -182h162c25 0 30 -31 30 -71zM195 538c-51 0 -66 9 -66 30c0 13 4 37 7 49l11 49
c11 47 19 59 99 59c73 0 85 -10 85 -32c0 -16 -9 -39 -19 -62l-22 -49c-13 -30 -25 -44 -95 -44z" />
    <glyph glyph-name="Zdotaccent" unicode="&#x17b;" horiz-adv-x="424" 
d="M208 482h-143c-30 0 -40 14 -40 74s10 74 40 74h301c35 0 40 -15 40 -66c0 -27 -7 -50 -36 -106l-162 -310h166c30 0 40 -14 40 -74s-10 -74 -40 -74h-324c-35 0 -40 15 -40 66c0 27 9 52 41 113zM212 668c-84 0 -90 12 -90 62v8c0 50 6 62 90 62s90 -12 90 -62v-8
c0 -50 -6 -62 -90 -62z" />
    <glyph glyph-name="zdotaccent" unicode="&#x17c;" horiz-adv-x="407" 
d="M392 71c0 -40 -5 -71 -30 -71h-322c-25 0 -30 23 -30 63c0 54 6 78 46 124l146 166h-142c-25 0 -30 31 -30 71s5 71 30 71h302c24 0 30 -24 30 -63c0 -42 -6 -77 -33 -108l-159 -182h162c25 0 30 -31 30 -71zM219 528c-84 0 -90 12 -90 62v8c0 50 6 62 90 62
s90 -12 90 -62v-8c0 -50 -6 -62 -90 -62z" />
    <glyph glyph-name="Zcaron" unicode="&#x17d;" horiz-adv-x="424" 
d="M208 482h-143c-30 0 -40 14 -40 74s10 74 40 74h301c35 0 40 -15 40 -66c0 -27 -7 -50 -36 -106l-162 -310h166c30 0 40 -14 40 -74s-10 -74 -40 -74h-324c-35 0 -40 15 -40 66c0 27 9 52 41 113zM47 831c0 18 15 29 50 29c46 0 62 -6 85 -36l27 -35h6l26 35
c22 30 40 36 86 36c35 0 50 -11 50 -29c0 -10 -4 -22 -18 -46l-43 -79c-13 -23 -26 -33 -68 -33h-72c-42 0 -55 10 -68 33l-43 79c-14 24 -18 36 -18 46z" />
    <glyph glyph-name="zcaron" unicode="&#x17e;" horiz-adv-x="407" 
d="M392 71c0 -40 -5 -71 -30 -71h-322c-25 0 -30 23 -30 63c0 54 6 78 46 124l146 166h-142c-25 0 -30 31 -30 71s5 71 30 71h302c24 0 30 -24 30 -63c0 -42 -6 -77 -33 -108l-159 -182h162c25 0 30 -31 30 -71zM54 696c0 18 15 29 50 29c46 0 62 -6 85 -36l27 -35h6l26 35
c22 30 40 36 86 36c35 0 50 -11 50 -29c0 -10 -4 -22 -18 -46l-43 -79c-13 -23 -26 -33 -68 -33h-72c-42 0 -55 10 -68 33l-43 79c-14 24 -18 36 -18 46z" />
    <glyph glyph-name="florin" unicode="&#x192;" 
d="M80 365c0 50 5 62 30 62h56l14 86c17 103 60 122 140 122c35 0 71 -4 100 -10c24 -5 30 -12 30 -62c0 -48 -11 -66 -27 -66c-11 0 -31 3 -57 3c-19 0 -23 -7 -26 -25l-8 -48h48c25 0 30 -12 30 -62s-5 -62 -30 -62h-66l-29 -191c-16 -103 -65 -122 -145 -122
c-35 0 -61 4 -90 10c-24 5 -30 12 -30 62c0 48 11 66 27 66c11 0 21 -3 47 -3c19 0 23 7 26 25l25 153h-35c-25 0 -30 12 -30 62z" />
    <glyph glyph-name="AEacute" unicode="&#x1fc;" horiz-adv-x="736" 
d="M91 0c-73 0 -81 11 -81 39c0 12 3 29 8 51l101 460c16 71 44 80 159 80h393c30 0 40 -14 40 -74s-10 -74 -40 -74h-170v-82h100c35 0 40 -13 40 -73s-5 -73 -40 -73h-100v-106h180c30 0 40 -14 40 -74s-10 -74 -40 -74h-305c-32 0 -45 5 -45 40v100h-126l-17 -90
c-8 -43 -22 -50 -97 -50zM271 492l-43 -227h103v227h-60zM383 673c-51 0 -66 9 -66 30c0 13 4 37 7 49l11 49c11 47 19 59 99 59c73 0 85 -10 85 -32c0 -16 -9 -39 -19 -62l-22 -49c-13 -30 -25 -44 -95 -44z" />
    <glyph glyph-name="aeacute" unicode="&#x1fd;" horiz-adv-x="736" 
d="M482 -10c-70 0 -121 7 -148 36c-13 14 -25 37 -33 73c-20 -75 -71 -109 -152 -109c-88 0 -129 46 -129 153c0 108 46 159 204 159h54v6c0 55 -16 55 -64 55c-67 0 -113 -13 -137 -13c-20 0 -29 20 -29 68c0 47 8 60 31 68c28 10 92 19 160 19c67 0 113 -6 144 -26
c34 18 78 26 135 26c156 0 188 -69 188 -233c0 -47 -10 -72 -58 -72h-201c5 -60 24 -66 76 -66c78 0 134 11 147 11c18 0 27 -20 27 -68c0 -49 -10 -62 -29 -68c-35 -12 -137 -19 -186 -19zM217 122c28 0 61 10 61 75v11l-50 -1c-38 -1 -48 -12 -48 -45s10 -40 37 -40z
M500 365c-40 0 -52 -6 -55 -68h104c0 57 -7 68 -49 68zM361 538c-51 0 -66 9 -66 30c0 13 4 37 7 49l11 49c11 47 19 59 99 59c73 0 85 -10 85 -32c0 -16 -9 -39 -19 -62l-22 -49c-13 -30 -25 -44 -95 -44z" />
    <glyph glyph-name="Oslashacute" unicode="&#x1fe;" horiz-adv-x="536" 
d="M268 -5c-160 0 -238 30 -238 270v90c0 250 68 280 238 280s238 -30 238 -280v-90c0 -240 -78 -270 -238 -270zM268 140c58 0 68 15 68 145v16l-131 -114c7 -41 25 -47 63 -47zM200 345v-12l130 112c-8 38 -25 45 -62 45c-58 0 -68 -15 -68 -145zM238 673
c-51 0 -66 9 -66 30c0 13 4 37 7 49l11 49c11 47 19 59 99 59c73 0 85 -10 85 -32c0 -16 -9 -39 -19 -62l-22 -49c-13 -30 -25 -44 -95 -44z" />
    <glyph glyph-name="oslashacute" unicode="&#x1ff;" horiz-adv-x="512" 
d="M231 538c-51 0 -66 9 -66 30c0 13 4 37 7 49l11 49c11 47 19 59 99 59c73 0 85 -10 85 -32c0 -16 -9 -39 -19 -62l-22 -49c-13 -30 -25 -44 -95 -44zM248 -10c-160 0 -218 45 -218 255c0 225 64 260 234 260c160 0 218 -40 218 -250c0 -225 -64 -265 -234 -265zM253 130
c50 0 56 19 57 108l-104 -66c6 -34 20 -42 47 -42zM258 365c-51 0 -57 -15 -57 -108l104 68c-7 35 -22 40 -47 40z" />
    <glyph glyph-name="Scommaaccent" unicode="&#x218;" horiz-adv-x="455" 
d="M195 -5c-53 0 -105 8 -138 17c-24 7 -32 17 -32 78c0 55 8 66 25 66c23 0 47 -11 120 -11c58 0 98 7 98 50c0 26 -4 34 -45 52l-94 42c-52 23 -95 65 -95 164c0 140 96 182 191 182c68 0 123 -8 164 -19c16 -4 24 -12 24 -76c0 -52 -11 -66 -26 -66c-18 0 -50 11 -119 11
c-38 0 -71 -3 -71 -34c0 -23 12 -28 37 -39l89 -39c67 -29 107 -61 107 -170c0 -154 -100 -208 -235 -208zM192 -253c-41 0 -49 11 -49 29c0 24 10 76 10 115c0 51 12 61 85 61c66 0 85 -10 85 -45c0 -16 -2 -43 -18 -73l-27 -49c-16 -29 -25 -38 -86 -38z" />
    <glyph glyph-name="scommaaccent" unicode="&#x219;" horiz-adv-x="451" 
d="M206 -10c-45 0 -112 7 -147 18c-19 6 -29 20 -29 69c0 48 9 68 27 68c13 0 69 -11 127 -11c51 0 65 7 65 22c0 12 -7 17 -22 23l-93 40c-48 21 -83 63 -83 134c0 124 104 152 185 152c45 0 113 -7 151 -17c19 -5 29 -15 29 -73c0 -61 -19 -65 -30 -65
c-16 0 -60 13 -112 13c-35 0 -51 -6 -51 -17c0 -7 5 -12 21 -19l90 -35c69 -27 87 -68 87 -132c0 -134 -104 -170 -215 -170zM185 -253c-41 0 -49 11 -49 29c0 24 10 76 10 115c0 51 12 61 85 61c66 0 85 -10 85 -45c0 -16 -2 -43 -18 -73l-27 -49c-16 -29 -25 -38 -86 -38z
" />
    <glyph glyph-name="dotlessj" unicode="&#x237;" horiz-adv-x="245" 
d="M120 495c64 0 85 -5 85 -45v-518c0 -104 -58 -132 -131 -132c-39 0 -72 5 -100 13c-24 6 -34 19 -34 71c0 61 11 64 27 64c11 0 31 -3 43 -3c18 0 25 5 25 23v482c0 40 21 45 85 45z" />
    <glyph glyph-name="circumflex" unicode="&#x2c6;" horiz-adv-x="370" 
d="M216 609h-6l-26 -35c-22 -30 -40 -36 -86 -36c-35 0 -50 11 -50 29c0 10 4 22 18 46l43 79c13 23 26 33 68 33h72c42 0 55 -10 68 -33l43 -79c14 -24 18 -36 18 -46c0 -18 -15 -29 -50 -29c-46 0 -62 6 -85 36z" />
    <glyph glyph-name="caron" unicode="&#x2c7;" horiz-adv-x="370" 
d="M20 696c0 18 15 29 50 29c46 0 62 -6 85 -36l27 -35h6l26 35c22 30 40 36 86 36c35 0 50 -11 50 -29c0 -10 -4 -22 -18 -46l-43 -79c-13 -23 -26 -33 -68 -33h-72c-42 0 -55 10 -68 33l-43 79c-14 24 -18 36 -18 46z" />
    <glyph glyph-name="breve" unicode="&#x2d8;" horiz-adv-x="346" 
d="M173 538c-102 0 -153 31 -153 141c0 40 11 45 55 45s52 -5 56 -32c3 -23 6 -32 42 -32s39 9 42 32c4 27 12 32 56 32s55 -5 55 -45c0 -110 -51 -141 -153 -141z" />
    <glyph glyph-name="dotaccent" unicode="&#x2d9;" horiz-adv-x="220" 
d="M109 528c-84 0 -90 12 -90 62v8c0 50 6 62 90 62s90 -12 90 -62v-8c0 -50 -6 -62 -90 -62z" />
    <glyph glyph-name="ring" unicode="&#x2da;" horiz-adv-x="341" 
d="M170 637c36 0 39 7 39 28s-3 28 -39 28c-35 0 -38 -7 -38 -28s3 -28 38 -28zM170 538c-94 0 -150 18 -150 127s56 127 150 127c95 0 151 -18 151 -127s-56 -127 -151 -127z" />
    <glyph glyph-name="ogonek" unicode="&#x2db;" horiz-adv-x="257" 
d="M112 -200c-56 0 -92 15 -92 82c0 77 55 123 147 195h70c0 -44 -9 -59 -36 -90c-24 -29 -28 -38 -28 -46s3 -12 10 -12s16 2 26 2c18 0 28 -8 28 -53c0 -49 -9 -55 -34 -64c-20 -7 -51 -14 -91 -14z" />
    <glyph glyph-name="tilde" unicode="&#x2dc;" horiz-adv-x="365" 
d="M20 605c0 47 7 58 28 72c14 9 42 21 74 21c56 0 87 -19 129 -19c38 0 58 13 73 13c16 0 21 -7 21 -55c0 -47 -7 -58 -28 -72c-14 -9 -42 -21 -74 -21c-56 0 -87 19 -129 19c-39 0 -58 -13 -73 -13c-16 0 -21 7 -21 55z" />
    <glyph glyph-name="hungarumlaut" unicode="&#x2dd;" horiz-adv-x="436" 
d="M20 568c0 12 2 26 18 126c4 23 12 31 87 31c33 0 52 -2 62 -5c16 -5 19 -15 19 -26c0 -12 -4 -29 -41 -123c-8 -20 -16 -33 -81 -33c-55 0 -64 9 -64 30zM211 568c0 10 4 23 37 129c6 19 17 28 86 28c29 0 50 -2 62 -6c16 -6 20 -15 20 -25c0 -11 -1 -22 -59 -122
c-14 -25 -21 -34 -86 -34c-51 0 -60 11 -60 30z" />
    <glyph glyph-name="commaaccent" unicode="&#x326;" horiz-adv-x="222" 
d="M71 -253c-41 0 -49 11 -49 29c0 24 10 76 10 115c0 51 12 61 85 61c66 0 85 -10 85 -45c0 -16 -2 -43 -18 -73l-27 -49c-16 -29 -25 -38 -86 -38z" />
    <glyph glyph-name="afii10023" unicode="&#x401;" horiz-adv-x="455" 
d="M440 74c0 -60 -10 -74 -40 -74h-315c-32 0 -45 5 -45 40v550c0 35 13 40 45 40h305c30 0 40 -14 40 -74s-10 -74 -40 -74h-180v-82h110c35 0 40 -13 40 -73s-5 -73 -40 -73h-110v-106h190c30 0 40 -14 40 -74zM141 663c-76 0 -85 12 -85 62v8c0 50 9 62 85 62
s85 -12 85 -62v-8c0 -50 -9 -62 -85 -62zM341 663c-76 0 -85 12 -85 62v8c0 50 9 62 85 62s85 -12 85 -62v-8c0 -50 -9 -62 -85 -62z" />
    <glyph glyph-name="afii10051" unicode="&#x402;" horiz-adv-x="594" 
d="M219 0c-64 0 -85 5 -85 45v437h-84c-30 0 -40 14 -40 74s10 74 40 74h348c30 0 40 -14 40 -74s-10 -74 -40 -74h-94v-101c26 40 68 64 129 64c86 0 121 -39 121 -148v-188c0 -96 -58 -114 -115 -114c-26 0 -49 2 -73 7c-28 6 -37 24 -37 76c0 61 11 64 27 64
c5 0 12 -2 18 -2c7 0 10 5 10 23v92c0 32 -8 45 -34 45c-29 0 -46 -26 -46 -107v-148c0 -40 -21 -45 -85 -45z" />
    <glyph glyph-name="afii10052" unicode="&#x403;" horiz-adv-x="410" 
d="M190 673c-51 0 -66 9 -66 30c0 13 4 37 7 49l11 49c11 47 19 59 99 59c73 0 85 -10 85 -32c0 -16 -9 -39 -19 -62l-22 -49c-13 -30 -25 -44 -95 -44zM125 0c-64 0 -85 5 -85 45v545c0 35 13 40 45 40h275c30 0 40 -14 40 -74s-10 -74 -40 -74h-150v-437
c0 -40 -21 -45 -85 -45z" />
    <glyph glyph-name="afii10053" unicode="&#x404;" horiz-adv-x="455" 
d="M399 320c0 -54 -5 -64 -40 -64h-169c3 -106 22 -111 110 -111c63 0 90 11 113 11c17 0 22 -16 22 -66c0 -61 -8 -72 -24 -76c-41 -11 -93 -19 -158 -19c-117 0 -223 30 -223 254v106c0 260 121 280 227 280c58 0 113 -8 154 -19c16 -4 24 -12 24 -76
c0 -47 -9 -66 -22 -66c-18 0 -54 11 -113 11c-80 0 -105 -13 -110 -101h169c35 0 40 -10 40 -64z" />
    <glyph glyph-name="afii10054" unicode="&#x405;" horiz-adv-x="455" 
d="M195 -5c-53 0 -105 8 -138 17c-24 7 -32 17 -32 78c0 55 8 66 25 66c23 0 47 -11 120 -11c58 0 98 7 98 50c0 26 -4 34 -45 52l-94 42c-52 23 -95 65 -95 164c0 140 96 182 191 182c68 0 123 -8 164 -19c16 -4 24 -12 24 -76c0 -52 -11 -66 -26 -66c-18 0 -50 11 -119 11
c-38 0 -71 -3 -71 -34c0 -23 12 -28 37 -39l89 -39c67 -29 107 -61 107 -170c0 -154 -100 -208 -235 -208z" />
    <glyph glyph-name="afii10055" unicode="&#x406;" horiz-adv-x="250" 
d="M125 0c-64 0 -85 5 -85 45v540c0 40 21 45 85 45s85 -5 85 -45v-540c0 -40 -21 -45 -85 -45z" />
    <glyph glyph-name="afii10056" unicode="&#x407;" horiz-adv-x="250" 
d="M125 0c-64 0 -85 5 -85 45v540c0 40 21 45 85 45s85 -5 85 -45v-540c0 -40 -21 -45 -85 -45zM25 663c-76 0 -85 12 -85 62v8c0 50 9 62 85 62s85 -12 85 -62v-8c0 -50 -9 -62 -85 -62zM225 663c-76 0 -85 12 -85 62v8c0 50 9 62 85 62s85 -12 85 -62v-8
c0 -50 -9 -62 -85 -62z" />
    <glyph glyph-name="afii10057" unicode="&#x408;" horiz-adv-x="370" 
d="M160 -5c-53 0 -90 7 -123 17c-24 7 -32 17 -32 78c0 55 8 60 25 60c23 0 47 -5 80 -5c38 0 50 7 50 50v390c0 40 21 45 85 45s85 -5 85 -45v-382c0 -154 -46 -208 -170 -208z" />
    <glyph glyph-name="afii10058" unicode="&#x409;" horiz-adv-x="815" 
d="M124 -5c-29 0 -52 1 -82 7c-24 5 -32 20 -32 81c0 55 11 57 25 57c10 0 15 -2 25 -2c15 0 26 3 29 33l46 422c3 29 13 37 46 37h295c32 0 45 -5 45 -40v-190c37 4 74 6 118 6c123 0 156 -62 156 -205c0 -156 -49 -206 -239 -206c-66 0 -119 2 -166 7c-34 4 -39 12 -39 45
v435h-69l-47 -399c-8 -69 -48 -88 -111 -88zM568 276c-13 0 -28 0 -47 -1v-148c13 -1 29 -2 45 -2c49 0 56 14 56 83c0 51 -10 68 -54 68z" />
    <glyph glyph-name="afii10059" unicode="&#x40a;" horiz-adv-x="804" 
d="M125 0c-64 0 -85 5 -85 45v540c0 40 21 45 85 45s85 -5 85 -45v-201h130v201c0 40 21 45 85 45s85 -5 85 -45v-185c37 4 74 6 118 6c123 0 156 -62 156 -205c0 -156 -49 -206 -239 -206c-66 0 -119 2 -166 7c-34 4 -39 12 -39 45v199h-130v-201c0 -40 -21 -45 -85 -45z
M557 276c-13 0 -28 0 -47 -1v-148c13 -1 29 -2 45 -2c49 0 56 14 56 83c0 51 -10 68 -54 68z" />
    <glyph glyph-name="afii10060" unicode="&#x40b;" horiz-adv-x="594" 
d="M219 0c-64 0 -85 5 -85 45v437h-84c-30 0 -40 14 -40 74s10 74 40 74h348c30 0 40 -14 40 -74s-10 -74 -40 -74h-94v-101c26 40 68 64 129 64c86 0 121 -39 121 -148v-252c0 -40 -21 -45 -85 -45s-85 5 -85 45v210c0 32 -8 45 -34 45c-29 0 -46 -26 -46 -107v-148
c0 -40 -21 -45 -85 -45z" />
    <glyph glyph-name="afii10061" unicode="&#x40c;" horiz-adv-x="524" 
d="M125 0c-64 0 -85 5 -85 45v540c0 40 21 45 85 45s85 -5 85 -45v-221h20l83 225c14 37 29 41 108 41c67 0 77 -13 77 -33c0 -9 -3 -19 -13 -42l-109 -241l106 -208c22 -44 27 -56 27 -67c0 -19 -6 -39 -91 -39c-58 0 -78 5 -94 41l-94 217h-20v-213c0 -40 -21 -45 -85 -45
zM227 673c-51 0 -66 9 -66 30c0 13 4 37 7 49l11 49c11 47 19 59 99 59c73 0 85 -10 85 -32c0 -16 -9 -39 -19 -62l-22 -49c-13 -30 -25 -44 -95 -44z" />
    <glyph glyph-name="afii10062" unicode="&#x40e;" horiz-adv-x="510" 
d="M255 673c-102 0 -153 31 -153 141c0 40 11 45 55 45s52 -5 56 -32c3 -23 6 -32 42 -32s39 9 42 32c4 27 12 32 56 32s55 -5 55 -45c0 -110 -51 -141 -153 -141zM10 594c0 18 9 36 83 36c71 0 85 -8 94 -44l63 -270h5l66 264c11 42 22 50 102 50c69 0 77 -19 77 -36
c0 -10 -3 -28 -18 -72l-142 -407c-31 -90 -85 -120 -168 -120c-42 0 -76 1 -109 11c-24 7 -32 16 -32 77c0 55 8 60 25 60c23 0 47 -5 80 -5c40 0 70 4 84 41h-8c-59 0 -77 19 -91 60l-92 276c-11 34 -19 61 -19 79z" />
    <glyph glyph-name="afii10145" unicode="&#x40f;" horiz-adv-x="540" 
d="M270 -100c-49 0 -52 5 -55 45l-4 55h-126c-32 0 -45 5 -45 40v545c0 40 21 45 85 45s85 -5 85 -45v-437h120v437c0 40 21 45 85 45s85 -5 85 -45v-545c0 -35 -13 -40 -45 -40h-126l-4 -55c-3 -40 -6 -45 -55 -45z" />
    <glyph glyph-name="afii10017" unicode="&#x410;" horiz-adv-x="556" 
d="M91 0c-73 0 -81 11 -81 39c0 12 3 29 8 51l101 460c16 71 44 80 159 80s143 -9 159 -80l101 -460c5 -22 8 -39 8 -51c0 -28 -8 -39 -81 -39c-75 0 -89 7 -97 50l-17 90h-146l-17 -90c-8 -43 -22 -50 -97 -50zM271 492l-43 -227h99l-42 227h-14z" />
    <glyph glyph-name="afii10018" unicode="&#x411;" horiz-adv-x="520" 
d="M250 -5c-66 0 -124 2 -171 7c-34 4 -39 12 -39 45v543c0 35 13 40 45 40h325c30 0 40 -14 40 -74s-10 -74 -40 -74h-200v-93c42 4 83 7 129 7c123 0 156 -57 156 -200c0 -156 -55 -201 -245 -201zM269 266c-14 0 -34 -1 -59 -2v-136c14 -2 34 -3 50 -3c55 0 62 7 62 78
c0 47 -6 63 -53 63z" />
    <glyph glyph-name="afii10019" unicode="&#x412;" horiz-adv-x="525" 
d="M250 -5c-66 0 -124 2 -171 7c-34 4 -39 12 -39 45v531c0 39 9 46 42 50c34 4 106 7 146 7c167 0 245 -25 245 -165c0 -78 -16 -128 -86 -144c75 -13 108 -50 108 -156c0 -130 -55 -175 -245 -175zM210 495v-116h38c48 0 52 18 52 62c0 41 -6 56 -44 56
c-12 0 -35 -1 -46 -2zM210 266v-138c14 -2 34 -3 50 -3c55 0 62 7 62 78c0 47 -7 63 -53 63h-59z" />
    <glyph glyph-name="afii10020" unicode="&#x413;" horiz-adv-x="410" 
d="M125 0c-64 0 -85 5 -85 45v545c0 35 13 40 45 40h275c30 0 40 -14 40 -74s-10 -74 -40 -74h-150v-437c0 -40 -21 -45 -85 -45z" />
    <glyph glyph-name="afii10021" unicode="&#x414;" horiz-adv-x="605" 
d="M75 -100c-49 0 -65 5 -65 45v158c0 40 15 45 60 45h14l55 445c4 29 13 37 46 37h305c32 0 45 -5 45 -40v-442c45 0 60 -5 60 -45v-158c0 -40 -16 -45 -65 -45c-51 0 -59 8 -73 45l-20 55h-269l-20 -55c-14 -37 -22 -45 -73 -45zM286 482l-40 -334h119v334h-79z" />
    <glyph glyph-name="afii10022" unicode="&#x415;" horiz-adv-x="455" 
d="M440 74c0 -60 -10 -74 -40 -74h-315c-32 0 -45 5 -45 40v550c0 35 13 40 45 40h305c30 0 40 -14 40 -74s-10 -74 -40 -74h-180v-82h110c35 0 40 -13 40 -73s-5 -73 -40 -73h-110v-106h190c30 0 40 -14 40 -74z" />
    <glyph glyph-name="afii10024" unicode="&#x416;" horiz-adv-x="793" 
d="M106 0c-85 0 -91 20 -91 39c0 11 5 23 27 67l106 208l-109 241c-10 23 -13 33 -13 42c0 20 10 33 77 33c79 0 94 -4 108 -41l83 -225h15v221c0 40 21 45 85 45s85 -5 85 -45v-221h20l83 225c14 37 29 41 108 41c67 0 77 -13 77 -33c0 -9 -3 -19 -13 -42l-109 -241
l106 -208c22 -44 27 -56 27 -67c0 -19 -6 -39 -91 -39c-58 0 -78 5 -94 41l-94 217h-20v-213c0 -40 -21 -45 -85 -45s-85 5 -85 45v213h-15l-94 -217c-16 -36 -36 -41 -94 -41z" />
    <glyph glyph-name="afii10025" unicode="&#x417;" horiz-adv-x="465" 
d="M83 320c0 46 5 64 40 64h54c66 0 73 19 73 65c0 26 -9 41 -47 41c-59 0 -121 -7 -139 -7c-15 0 -26 14 -26 66c0 64 8 67 24 71c41 9 116 15 184 15c104 0 177 -28 177 -158c0 -81 -38 -143 -109 -151c81 -3 121 -43 121 -146c0 -141 -81 -185 -212 -185
c-61 0 -136 6 -171 13c-24 5 -32 12 -32 73c0 55 8 66 25 66c23 0 87 -7 146 -7c60 0 72 24 72 64c0 48 -13 52 -85 52h-55c-35 0 -40 18 -40 64z" />
    <glyph glyph-name="afii10026" unicode="&#x418;" horiz-adv-x="567" 
d="M442 0c-64 0 -85 5 -85 45v251h-8l-153 -254c-23 -39 -37 -42 -75 -42c-64 0 -81 5 -81 45v540c0 40 21 45 85 45s85 -5 85 -45v-251h8l146 253c23 40 39 43 78 43c64 0 85 -5 85 -45v-540c0 -40 -21 -45 -85 -45z" />
    <glyph glyph-name="afii10027" unicode="&#x419;" horiz-adv-x="567" 
d="M283 673c-102 0 -153 31 -153 141c0 40 11 45 55 45s52 -5 56 -32c3 -23 6 -32 42 -32s39 9 42 32c4 27 12 32 56 32s55 -5 55 -45c0 -110 -51 -141 -153 -141zM442 0c-64 0 -85 5 -85 45v251h-8l-153 -254c-23 -39 -37 -42 -75 -42c-64 0 -81 5 -81 45v540
c0 40 21 45 85 45s85 -5 85 -45v-251h8l146 253c23 40 39 43 78 43c64 0 85 -5 85 -45v-540c0 -40 -21 -45 -85 -45z" />
    <glyph glyph-name="afii10028" unicode="&#x41a;" horiz-adv-x="524" 
d="M125 0c-64 0 -85 5 -85 45v540c0 40 21 45 85 45s85 -5 85 -45v-221h20l83 225c14 37 29 41 108 41c67 0 77 -13 77 -33c0 -9 -3 -19 -13 -42l-109 -241l106 -208c22 -44 27 -56 27 -67c0 -19 -6 -39 -91 -39c-58 0 -78 5 -94 41l-94 217h-20v-213c0 -40 -21 -45 -85 -45
z" />
    <glyph glyph-name="afii10029" unicode="&#x41b;" horiz-adv-x="571" 
d="M446 0c-64 0 -85 5 -85 45v437h-79l-47 -399c-8 -69 -48 -88 -111 -88c-29 0 -52 1 -82 7c-24 5 -32 20 -32 81c0 55 11 57 25 57c10 0 15 -2 25 -2c15 0 26 3 29 33l46 422c3 29 13 37 46 37h305c32 0 45 -5 45 -40v-545c0 -40 -21 -45 -85 -45z" />
    <glyph glyph-name="afii10030" unicode="&#x41c;" horiz-adv-x="676" 
d="M125 0c-64 0 -85 5 -85 45v527c0 44 18 58 85 58c79 0 101 -4 120 -50l91 -214h4l91 214c19 46 41 50 120 50c67 0 85 -14 85 -58v-527c0 -40 -21 -45 -85 -45s-85 5 -85 45c0 99 2 207 5 306h-4l-49 -142c-16 -47 -25 -55 -80 -55s-64 8 -80 55l-49 142h-4
c3 -99 5 -207 5 -306c0 -40 -21 -45 -85 -45z" />
    <glyph glyph-name="afii10031" unicode="&#x41d;" horiz-adv-x="550" 
d="M210 384h130v201c0 40 21 45 85 45s85 -5 85 -45v-540c0 -40 -21 -45 -85 -45s-85 5 -85 45v201h-130v-201c0 -40 -21 -45 -85 -45s-85 5 -85 45v540c0 40 21 45 85 45s85 -5 85 -45v-201z" />
    <glyph glyph-name="afii10032" unicode="&#x41e;" horiz-adv-x="536" 
d="M268 140c58 0 68 15 68 145v60c0 130 -10 145 -68 145s-68 -15 -68 -145v-60c0 -130 10 -145 68 -145zM268 -5c-160 0 -238 30 -238 270v90c0 250 68 280 238 280s238 -30 238 -280v-90c0 -240 -78 -270 -238 -270z" />
    <glyph glyph-name="afii10033" unicode="&#x41f;" horiz-adv-x="540" 
d="M125 0c-64 0 -85 5 -85 45v545c0 35 13 40 45 40h370c32 0 45 -5 45 -40v-545c0 -40 -21 -45 -85 -45s-85 5 -85 45v437h-120v-437c0 -40 -21 -45 -85 -45z" />
    <glyph glyph-name="afii10034" unicode="&#x420;" horiz-adv-x="509" 
d="M125 0c-64 0 -85 5 -85 45v531c0 39 9 46 42 50c51 6 114 9 196 9c131 0 206 -33 206 -216c0 -198 -109 -234 -269 -234h-5v-140c0 -40 -21 -45 -85 -45zM210 495v-175h15c68 0 85 16 85 88c0 74 -23 89 -55 89c-15 0 -35 -1 -45 -2z" />
    <glyph glyph-name="afii10035" unicode="&#x421;" horiz-adv-x="455" 
d="M253 -5c-117 0 -223 30 -223 254v106c0 260 121 280 227 280c58 0 113 -8 154 -19c16 -4 24 -12 24 -76c0 -47 -9 -66 -22 -66c-18 0 -54 11 -113 11c-70 0 -100 -16 -100 -137v-63c0 -134 25 -140 100 -140c63 0 90 11 113 11c17 0 22 -16 22 -66c0 -61 -8 -72 -24 -76
c-41 -11 -93 -19 -158 -19z" />
    <glyph glyph-name="afii10036" unicode="&#x422;" horiz-adv-x="458" 
d="M229 0c-64 0 -85 5 -85 45v437h-94c-30 0 -40 14 -40 74s10 74 40 74h358c30 0 40 -14 40 -74s-10 -74 -40 -74h-94v-437c0 -40 -21 -45 -85 -45z" />
    <glyph glyph-name="afii10037" unicode="&#x423;" horiz-adv-x="510" 
d="M10 594c0 18 9 36 83 36c71 0 85 -8 94 -44l63 -270h5l66 264c11 42 22 50 102 50c69 0 77 -19 77 -36c0 -10 -3 -28 -18 -72l-142 -407c-31 -90 -85 -120 -168 -120c-42 0 -76 1 -109 11c-24 7 -32 16 -32 77c0 55 8 60 25 60c23 0 47 -5 80 -5c40 0 70 4 84 41h-8
c-59 0 -77 19 -91 60l-92 276c-11 34 -19 61 -19 79z" />
    <glyph glyph-name="afii10038" unicode="&#x424;" horiz-adv-x="714" 
d="M30 319c0 203 99 234 242 234v42c0 40 21 45 85 45s85 -5 85 -45v-42c143 0 242 -31 242 -234s-99 -239 -242 -239v-45c0 -40 -21 -45 -85 -45s-85 5 -85 45v45c-143 0 -242 36 -242 239zM442 418v-203c61 0 78 14 78 104s-17 99 -78 99zM194 319c0 -90 17 -104 78 -104
v203c-61 0 -78 -9 -78 -99z" />
    <glyph glyph-name="afii10039" unicode="&#x425;" horiz-adv-x="521" 
d="M94 0c-70 0 -84 17 -84 40c0 12 7 30 26 61l136 222l-121 202c-19 31 -26 51 -26 64c0 23 14 41 86 41c69 0 81 -7 102 -50l47 -100h4l44 100c19 44 33 50 102 50c72 0 86 -18 86 -41c0 -13 -7 -32 -26 -63l-122 -202l137 -220c19 -31 26 -51 26 -64
c0 -23 -14 -40 -84 -40c-69 0 -80 7 -102 50l-64 126h-4l-61 -126c-21 -44 -33 -50 -102 -50z" />
    <glyph glyph-name="afii10040" unicode="&#x426;" horiz-adv-x="590" 
d="M512 -100c-54 0 -62 8 -76 45l-20 55h-331c-32 0 -45 5 -45 40v545c0 40 21 45 85 45s85 -5 85 -45v-437h120v437c0 40 21 45 85 45s85 -5 85 -45v-437c59 0 80 -5 80 -45v-158c0 -40 -19 -45 -68 -45z" />
    <glyph glyph-name="afii10041" unicode="&#x427;" horiz-adv-x="512" 
d="M191 204c-128 0 -171 45 -171 200v181c0 40 21 45 85 45s85 -5 85 -45v-158c0 -67 6 -83 53 -83c13 0 34 0 59 1v240c0 40 21 45 85 45s85 -5 85 -45v-540c0 -40 -21 -45 -85 -45s-85 5 -85 45v167c-36 -5 -70 -8 -111 -8z" />
    <glyph glyph-name="afii10042" unicode="&#x428;" horiz-adv-x="810" 
d="M125 630c64 0 85 -5 85 -45v-437h110v437c0 40 21 45 85 45s85 -5 85 -45v-437h110v437c0 40 21 45 85 45s85 -5 85 -45v-545c0 -35 -13 -40 -45 -40h-640c-32 0 -45 5 -45 40v545c0 40 21 45 85 45z" />
    <glyph glyph-name="afii10043" unicode="&#x429;" horiz-adv-x="860" 
d="M686 0h-601c-32 0 -45 5 -45 40v545c0 40 21 45 85 45s85 -5 85 -45v-437h110v437c0 40 21 45 85 45s85 -5 85 -45v-437h110v437c0 40 21 45 85 45s85 -5 85 -45v-437c59 0 80 -5 80 -45v-158c0 -40 -19 -45 -68 -45c-54 0 -62 8 -76 45z" />
    <glyph glyph-name="afii10044" unicode="&#x42a;" horiz-adv-x="567" 
d="M308 -5c-66 0 -119 2 -166 7c-34 4 -39 12 -39 45v435h-53c-30 0 -40 14 -40 74s10 74 40 74h138c64 0 85 -5 85 -45v-185c37 4 74 6 118 6c123 0 156 -62 156 -205c0 -156 -49 -206 -239 -206zM320 276c-13 0 -28 0 -47 -1v-148c13 -1 29 -2 45 -2c49 0 56 14 56 83
c0 51 -10 68 -54 68z" />
    <glyph glyph-name="afii10045" unicode="&#x42b;" horiz-adv-x="750" 
d="M125 630c64 0 85 -5 85 -45v-185c37 4 74 6 118 6c123 0 156 -62 156 -205c0 -156 -49 -206 -239 -206c-66 0 -119 2 -166 7c-34 4 -39 12 -39 45v538c0 40 21 45 85 45zM257 276c-13 0 -28 0 -47 -1v-148c13 -1 29 -2 45 -2c49 0 56 14 56 83c0 51 -10 68 -54 68zM625 0
c-64 0 -85 5 -85 45v540c0 40 21 45 85 45s85 -5 85 -45v-540c0 -40 -21 -45 -85 -45z" />
    <glyph glyph-name="afii10046" unicode="&#x42c;" horiz-adv-x="504" 
d="M125 630c64 0 85 -5 85 -45v-185c37 4 74 6 118 6c123 0 156 -62 156 -205c0 -156 -49 -206 -239 -206c-66 0 -119 2 -166 7c-34 4 -39 12 -39 45v538c0 40 21 45 85 45zM257 276c-13 0 -28 0 -47 -1v-148c13 -1 29 -2 45 -2c49 0 56 14 56 83c0 51 -10 68 -54 68z" />
    <glyph glyph-name="afii10047" unicode="&#x42d;" horiz-adv-x="465" 
d="M60 320c0 54 5 64 40 64h174c-4 88 -29 101 -109 101c-59 0 -95 -11 -113 -11c-13 0 -22 19 -22 66c0 64 8 72 24 76c41 11 96 19 154 19c106 0 227 -20 227 -280v-106c0 -224 -106 -254 -223 -254c-65 0 -117 8 -158 19c-16 4 -24 15 -24 76c0 50 5 66 22 66
c23 0 50 -11 113 -11c87 0 107 5 109 111h-174c-35 0 -40 10 -40 64z" />
    <glyph glyph-name="afii10048" unicode="&#x42e;" horiz-adv-x="806" 
d="M538 -5c-158 0 -236 29 -238 259h-90v-209c0 -40 -21 -45 -85 -45s-85 5 -85 45v540c0 40 21 45 85 45s85 -5 85 -45v-185h91c8 208 78 235 237 235c170 0 238 -30 238 -280v-90c0 -240 -78 -270 -238 -270zM538 140c58 0 68 15 68 145v60c0 130 -10 145 -68 145
s-68 -15 -68 -145v-60c0 -130 10 -145 68 -145z" />
    <glyph glyph-name="afii10049" unicode="&#x42f;" horiz-adv-x="514" 
d="M394 0c-64 0 -85 5 -85 45v180h-44l-63 -178c-16 -44 -26 -47 -115 -47c-63 0 -67 19 -67 32c0 6 1 15 18 51l83 174c-54 28 -86 81 -86 173c0 170 75 205 206 205c82 0 145 -3 196 -9c33 -4 42 -11 42 -50v-531c0 -40 -21 -45 -85 -45zM209 419c0 -64 17 -79 85 -79h15
v155c-10 1 -30 2 -45 2c-32 0 -55 -17 -55 -78z" />
    <glyph glyph-name="afii10065" unicode="&#x430;" horiz-adv-x="487" 
d="M149 -10c-88 0 -129 46 -129 153c0 108 46 159 204 159h54v6c0 55 -16 55 -64 55c-67 0 -113 -13 -137 -13c-20 0 -29 20 -29 68c0 47 8 60 31 68c28 10 92 19 160 19c141 0 206 -20 206 -148v-113c0 -145 17 -177 17 -206c0 -26 -12 -38 -78 -38c-57 0 -67 5 -77 41
l-11 41c-23 -64 -72 -92 -147 -92zM217 122c28 0 61 10 61 75v11l-50 -1c-38 -1 -48 -12 -48 -45s10 -40 37 -40z" />
    <glyph glyph-name="afii10066" unicode="&#x431;" horiz-adv-x="518" 
d="M263 -10c-158 0 -233 45 -233 237v177c0 218 66 273 245 273c60 0 132 -6 167 -12c19 -3 29 -19 29 -68c0 -48 -9 -63 -28 -63c-27 0 -80 4 -126 4c-101 0 -112 -9 -112 -97c21 41 60 64 135 64c111 0 148 -44 148 -260c0 -214 -70 -255 -225 -255zM263 130
c40 0 53 9 53 125c0 104 -12 110 -56 110s-60 -21 -60 -110v-20c0 -94 17 -105 63 -105z" />
    <glyph glyph-name="afii10067" unicode="&#x432;" horiz-adv-x="507" 
d="M257 140c41 0 53 7 53 33c0 25 -13 31 -63 31h-37v-62c9 -1 30 -2 47 -2zM247 -5c-84 0 -133 5 -168 10c-34 5 -39 9 -39 42v396c0 39 9 46 42 50c34 4 106 7 175 7c146 0 213 -12 213 -127c0 -85 -35 -116 -109 -123c81 -6 121 -27 121 -121c0 -123 -81 -134 -235 -134z
M257 355c-19 0 -35 -1 -47 -2v-56h34c36 0 53 4 53 30c0 23 -9 28 -40 28z" />
    <glyph glyph-name="afii10068" unicode="&#x433;" horiz-adv-x="370" 
d="M125 0c-64 0 -85 5 -85 45v410c0 35 13 40 45 40h235c30 0 40 -14 40 -74s-10 -74 -40 -74h-110v-302c0 -40 -21 -45 -85 -45z" />
    <glyph glyph-name="afii10069" unicode="&#x434;" horiz-adv-x="535" 
d="M70 -100c-49 0 -65 5 -65 45v130c0 60 5 73 40 73h17l49 302c7 40 21 45 85 45h189c64 0 85 -5 85 -45v-302c45 0 60 -5 60 -45v-158c0 -40 -16 -45 -65 -45c-51 0 -59 8 -73 45l-20 55h-209l-20 -55c-14 -37 -22 -45 -73 -45zM253 354l-32 -206h79v206h-47z" />
    <glyph glyph-name="afii10070" unicode="&#x435;" horiz-adv-x="488" 
d="M266 -10c-144 0 -236 31 -236 255c0 225 69 260 224 260c172 0 204 -69 204 -233c0 -47 -10 -72 -58 -72h-201c5 -60 24 -66 76 -66c78 0 134 11 147 11c18 0 27 -20 27 -68c0 -49 -10 -62 -29 -68c-35 -12 -112 -19 -154 -19zM252 365c-40 0 -52 -6 -55 -68h104
c0 57 -7 68 -49 68z" />
    <glyph glyph-name="afii10072" unicode="&#x436;" horiz-adv-x="754" 
d="M99 0c-64 0 -89 12 -89 34c0 13 4 21 13 36l105 189l-91 166c-7 13 -13 29 -13 43c0 19 19 27 83 27c75 0 90 -5 106 -41l65 -145h14v141c0 40 21 45 85 45s85 -5 85 -45v-141h14l65 145c16 36 31 41 106 41c64 0 83 -8 83 -27c0 -14 -6 -30 -13 -43l-91 -166l105 -189
c9 -15 13 -23 13 -36c0 -22 -25 -34 -89 -34s-83 5 -100 41l-79 167h-14v-163c0 -40 -21 -45 -85 -45s-85 5 -85 45v163h-14l-79 -167c-17 -36 -36 -41 -100 -41z" />
    <glyph glyph-name="afii10073" unicode="&#x437;" horiz-adv-x="435" 
d="M93 251c0 37 5 56 40 56h34c36 0 53 3 53 25c0 19 -9 23 -47 23c-59 0 -91 -7 -109 -7c-15 0 -26 14 -26 66c0 64 8 67 24 71c41 9 91 15 154 15c104 0 177 -16 177 -120c0 -105 -35 -123 -109 -130c81 -6 121 -21 121 -121c0 -123 -81 -134 -201 -134
c-68 0 -117 7 -152 13c-24 4 -32 12 -32 73c0 55 8 66 25 66c23 0 57 -7 116 -7c60 0 72 5 72 28c0 22 -13 26 -63 26h-37c-35 0 -40 17 -40 57z" />
    <glyph glyph-name="afii10074" unicode="&#x438;" horiz-adv-x="537" 
d="M420 495c27 0 45 -2 57 -7c14 -6 20 -15 20 -41v-402c0 -40 -21 -45 -85 -45s-85 5 -85 45v181h-8l-117 -184c-24 -38 -43 -42 -85 -42c-27 0 -45 2 -57 7c-14 6 -20 15 -20 41v402c0 40 21 45 85 45s85 -5 85 -45v-168h7l125 179c22 31 37 34 78 34z" />
    <glyph glyph-name="afii10075" unicode="&#x439;" horiz-adv-x="537" 
d="M268 538c-102 0 -153 31 -153 141c0 40 11 45 55 45s52 -5 56 -32c3 -23 6 -32 42 -32s39 9 42 32c4 27 12 32 56 32s55 -5 55 -45c0 -110 -51 -141 -153 -141zM420 495c27 0 45 -2 57 -7c14 -6 20 -15 20 -41v-402c0 -40 -21 -45 -85 -45s-85 5 -85 45v181h-8l-117 -184
c-24 -38 -43 -42 -85 -42c-27 0 -45 2 -57 7c-14 6 -20 15 -20 41v402c0 40 21 45 85 45s85 -5 85 -45v-168h7l125 179c22 31 37 34 78 34z" />
    <glyph glyph-name="afii10076" unicode="&#x43a;" horiz-adv-x="502" 
d="M125 0c-64 0 -85 5 -85 45v405c0 40 21 45 85 45s85 -5 85 -45v-141h14l65 145c16 36 31 41 106 41c64 0 83 -8 83 -27c0 -14 -6 -30 -13 -43l-91 -166l105 -189c9 -15 13 -23 13 -36c0 -22 -25 -34 -89 -34s-83 5 -100 41l-79 167h-14v-163c0 -40 -21 -45 -85 -45z" />
    <glyph glyph-name="afii10077" unicode="&#x43b;" horiz-adv-x="525" 
d="M400 0c-64 0 -85 5 -85 45v309h-47l-39 -271c-10 -69 -47 -88 -110 -88c-29 0 -52 1 -82 7c-24 5 -32 20 -32 81c0 55 11 57 25 57c10 0 15 -2 25 -2c15 0 24 3 29 33l42 279c6 40 19 45 57 45h257c32 0 45 -5 45 -40v-410c0 -40 -21 -45 -85 -45z" />
    <glyph glyph-name="afii10078" unicode="&#x43c;" horiz-adv-x="656" 
d="M125 0c-64 0 -85 5 -85 45v392c0 44 18 58 85 58c79 0 89 -6 110 -50l91 -189h4l91 189c21 44 31 50 110 50c67 0 85 -14 85 -58v-392c0 -40 -21 -45 -85 -45s-85 5 -85 45c0 99 2 86 5 185h-4l-39 -97c-18 -46 -25 -55 -80 -55s-62 9 -80 55l-39 97h-4
c3 -99 5 -86 5 -185c0 -40 -21 -45 -85 -45z" />
    <glyph glyph-name="afii10079" unicode="&#x43d;" horiz-adv-x="510" 
d="M210 322h90v128c0 40 21 45 85 45s85 -5 85 -45v-405c0 -40 -21 -45 -85 -45s-85 5 -85 45v139h-90v-139c0 -40 -21 -45 -85 -45s-85 5 -85 45v405c0 40 21 45 85 45s85 -5 85 -45v-128z" />
    <glyph glyph-name="afii10080" unicode="&#x43e;" horiz-adv-x="512" 
d="M248 -10c-160 0 -218 45 -218 255c0 225 64 260 234 260c160 0 218 -40 218 -250c0 -225 -64 -265 -234 -265zM253 130c52 0 57 20 57 118c0 107 -14 117 -52 117c-52 0 -57 -15 -57 -113c0 -107 14 -122 52 -122z" />
    <glyph glyph-name="afii10081" unicode="&#x43f;" horiz-adv-x="510" 
d="M125 0c-64 0 -85 5 -85 45v410c0 35 13 40 45 40h340c32 0 45 -5 45 -40v-410c0 -40 -21 -45 -85 -45s-85 5 -85 45v312h-90v-312c0 -40 -21 -45 -85 -45z" />
    <glyph glyph-name="afii10082" unicode="&#x440;" horiz-adv-x="526" 
d="M127 -185c-64 0 -85 5 -85 45v391c0 145 -17 177 -17 206c0 26 12 38 78 38c57 0 67 -5 77 -41l7 -28c27 52 75 79 149 79c120 0 160 -44 160 -240c0 -234 -53 -275 -175 -275c-63 0 -94 16 -109 43v-173c0 -40 -21 -45 -85 -45zM271 130c40 0 53 9 53 125
c0 104 -12 110 -56 110c-41 0 -60 -14 -60 -106v-24c0 -94 17 -105 63 -105z" />
    <glyph glyph-name="afii10083" unicode="&#x441;" horiz-adv-x="434" 
d="M256 -10c-134 0 -226 31 -226 255c0 225 73 260 213 260c52 0 110 -10 136 -19c19 -7 29 -19 29 -68c0 -48 -9 -68 -27 -68c-13 0 -71 11 -109 11c-56 0 -75 -3 -75 -101c0 -115 12 -126 78 -126c59 0 94 11 107 11c18 0 27 -20 27 -68c0 -49 -10 -62 -29 -68
c-35 -12 -82 -19 -124 -19z" />
    <glyph glyph-name="afii10084" unicode="&#x442;" horiz-adv-x="418" 
d="M209 0c-64 0 -85 5 -85 45v302h-74c-30 0 -40 14 -40 74s10 74 40 74h318c30 0 40 -14 40 -74s-10 -74 -40 -74h-74v-302c0 -40 -21 -45 -85 -45z" />
    <glyph glyph-name="afii10085" unicode="&#x443;" horiz-adv-x="499" 
d="M10 454c0 23 8 41 88 41c71 0 87 -7 92 -44l46 -314h14l58 314c7 37 21 44 91 44c77 0 90 -13 90 -40c0 -14 -4 -35 -23 -111l-93 -362c-38 -146 -75 -182 -209 -182c-42 0 -93 7 -124 19c-20 8 -29 19 -29 68c0 48 9 68 27 68c13 0 48 -11 107 -11c63 0 72 12 78 42
l2 14h-14c-88 0 -104 17 -114 60l-64 275c-20 85 -23 106 -23 119z" />
    <glyph glyph-name="afii10086" unicode="&#x444;" horiz-adv-x="778" 
d="M180 -10c-120 0 -150 44 -150 240c0 234 43 275 165 275c61 0 93 -20 109 -61v171c0 40 21 45 85 45s85 -5 85 -45v-171c22 40 60 61 124 61c120 0 150 -44 150 -240c0 -234 -43 -275 -165 -275c-61 0 -93 21 -109 56v-186c0 -40 -21 -45 -85 -45s-85 5 -85 45v184
c-24 -38 -64 -54 -124 -54zM528 130c40 0 48 9 48 125c0 104 -7 110 -51 110c-41 0 -55 -14 -55 -106v-24c0 -94 12 -105 58 -105zM253 130c44 0 55 21 55 110v20c0 94 -12 105 -58 105c-40 0 -48 -9 -48 -125c0 -104 7 -110 51 -110z" />
    <glyph glyph-name="afii10087" unicode="&#x445;" horiz-adv-x="474" 
d="M90 0c-66 0 -80 11 -80 31c0 7 3 17 14 36l110 185l-94 159c-14 24 -20 37 -20 47c0 29 23 37 88 37c75 0 89 -4 103 -41l26 -68h4l24 68c14 39 26 41 101 41c65 0 88 -8 88 -37c0 -10 -4 -20 -19 -44l-97 -151l110 -192c11 -19 16 -32 16 -39c0 -20 -13 -32 -80 -32
c-78 0 -98 6 -117 57l-30 82h-4l-28 -82c-17 -49 -37 -57 -115 -57z" />
    <glyph glyph-name="afii10088" unicode="&#x446;" horiz-adv-x="535" 
d="M465 -100c-51 0 -59 8 -73 45l-20 55h-287c-32 0 -45 5 -45 40v410c0 40 21 45 85 45s85 -5 85 -45v-302h90v302c0 40 21 45 85 45s85 -5 85 -45v-302c45 0 60 -5 60 -45v-158c0 -40 -16 -45 -65 -45z" />
    <glyph glyph-name="afii10089" unicode="&#x447;" horiz-adv-x="462" 
d="M181 147c-128 0 -171 45 -171 200v103c0 40 21 45 85 45s85 -5 85 -45v-80c0 -67 6 -83 43 -83h29v163c0 40 21 45 85 45s85 -5 85 -45v-405c0 -40 -21 -45 -85 -45s-85 5 -85 45v106c-22 -3 -46 -4 -71 -4z" />
    <glyph glyph-name="afii10090" unicode="&#x448;" horiz-adv-x="750" 
d="M710 450v-410c0 -35 -13 -40 -45 -40h-580c-32 0 -45 5 -45 40v410c0 40 21 45 85 45s85 -5 85 -45v-302h80v302c0 40 21 45 85 45s85 -5 85 -45v-302h80v302c0 40 21 45 85 45s85 -5 85 -45z" />
    <glyph glyph-name="afii10091" unicode="&#x449;" horiz-adv-x="775" 
d="M705 -100c-51 0 -59 8 -73 45l-20 55h-527c-32 0 -45 5 -45 40v410c0 40 21 45 85 45s85 -5 85 -45v-302h80v302c0 40 21 45 85 45s85 -5 85 -45v-302h80v302c0 40 21 45 85 45s85 -5 85 -45v-302c45 0 60 -5 60 -45v-158c0 -40 -16 -45 -65 -45z" />
    <glyph glyph-name="afii10092" unicode="&#x44a;" horiz-adv-x="517" 
d="M80 347h-30c-30 0 -40 14 -40 74s10 74 40 74h115c64 0 85 -5 85 -45v-103h46c161 0 203 -31 203 -167c0 -169 -82 -185 -228 -185c-61 0 -116 5 -152 10c-34 5 -39 9 -39 42v300zM288 217h-38v-83c3 0 13 -2 36 -2c32 0 44 8 44 42s-10 43 -42 43z" />
    <glyph glyph-name="afii10093" unicode="&#x44b;" horiz-adv-x="727" 
d="M602 0c-64 0 -85 5 -85 45v405c0 40 21 45 85 45s85 -5 85 -45v-405c0 -40 -21 -45 -85 -45zM231 -5c-61 0 -116 5 -152 10c-34 5 -39 9 -39 42v403c0 40 21 45 85 45s85 -5 85 -45v-103h46c161 0 203 -31 203 -167c0 -169 -82 -185 -228 -185zM248 217h-38v-83
c3 0 13 -2 36 -2c32 0 44 8 44 42s-10 43 -42 43z" />
    <glyph glyph-name="afii10094" unicode="&#x44c;" horiz-adv-x="477" 
d="M231 -5c-61 0 -116 5 -152 10c-34 5 -39 9 -39 42v403c0 40 21 45 85 45s85 -5 85 -45v-103h46c161 0 203 -31 203 -167c0 -169 -82 -185 -228 -185zM248 217h-38v-83c3 0 13 -2 36 -2c32 0 44 8 44 42s-10 43 -42 43z" />
    <glyph glyph-name="afii10095" unicode="&#x44d;" horiz-adv-x="464" 
d="M198 -10c-42 0 -109 7 -144 19c-19 6 -29 19 -29 68c0 48 9 68 27 68c23 0 48 -11 127 -11c70 0 96 6 104 55h-152c-35 0 -40 13 -40 58s5 58 40 58h155c-5 54 -25 56 -99 56c-58 0 -101 -11 -124 -11c-18 0 -27 20 -27 68c0 49 10 61 29 68c26 9 99 19 151 19
c170 0 228 -35 228 -260c0 -224 -82 -255 -246 -255z" />
    <glyph glyph-name="afii10096" unicode="&#x44e;" horiz-adv-x="762" 
d="M498 -10c-145 0 -206 37 -216 199h-72v-144c0 -40 -21 -45 -85 -45s-85 5 -85 45v405c0 40 21 45 85 45s85 -5 85 -45v-125h73c16 154 83 180 231 180c160 0 218 -40 218 -250c0 -225 -64 -265 -234 -265zM503 130c52 0 57 20 57 118c0 107 -14 117 -52 117
c-52 0 -57 -15 -57 -113c0 -107 14 -122 52 -122z" />
    <glyph glyph-name="afii10097" unicode="&#x44f;" horiz-adv-x="488" 
d="M90 0c-71 0 -75 15 -75 30c0 6 3 22 22 53l61 100c-57 24 -72 73 -72 153c0 148 81 164 231 164c56 0 116 -6 152 -10c34 -4 39 -9 39 -42v-403c0 -40 -21 -45 -85 -45s-85 5 -85 45v120h-29l-52 -118c-19 -42 -26 -47 -107 -47zM198 317c0 -28 10 -31 42 -31h38v67
c-3 0 -13 2 -36 2c-32 0 -44 -8 -44 -38z" />
    <glyph glyph-name="afii10071" unicode="&#x451;" horiz-adv-x="488" 
d="M266 -10c-144 0 -236 31 -236 255c0 225 69 260 224 260c172 0 204 -69 204 -233c0 -47 -10 -72 -58 -72h-201c5 -60 24 -66 76 -66c78 0 134 11 147 11c18 0 27 -20 27 -68c0 -49 -10 -62 -29 -68c-35 -12 -112 -19 -154 -19zM252 365c-40 0 -52 -6 -55 -68h104
c0 57 -7 68 -49 68zM144 528c-76 0 -85 12 -85 62v8c0 50 9 62 85 62s85 -12 85 -62v-8c0 -50 -9 -62 -85 -62zM344 528c-76 0 -85 12 -85 62v8c0 50 9 62 85 62s85 -12 85 -62v-8c0 -50 -9 -62 -85 -62z" />
    <glyph glyph-name="afii10099" unicode="&#x452;" horiz-adv-x="515" 
d="M120 0c-64 0 -85 5 -85 45v460h-4c-31 0 -35 9 -35 46s4 46 35 46h4v18c0 40 21 45 85 45s85 -5 85 -45v-18h106c31 0 35 -9 35 -46s-4 -46 -35 -46h-106v-90c25 35 66 56 131 56c104 0 139 -39 139 -148v-391c0 -104 -58 -132 -131 -132c-39 0 -72 5 -100 13
c-24 6 -34 19 -34 71c0 61 11 64 27 64c11 0 31 -3 43 -3c18 0 25 5 25 23v313c0 32 -8 45 -34 45c-50 0 -66 -37 -66 -152v-129c0 -40 -21 -45 -85 -45z" />
    <glyph glyph-name="afii10100" unicode="&#x453;" horiz-adv-x="370" 
d="M167 538c-51 0 -66 9 -66 30c0 13 4 37 7 49l11 49c11 47 19 59 99 59c73 0 85 -10 85 -32c0 -16 -9 -39 -19 -62l-22 -49c-13 -30 -25 -44 -95 -44zM125 0c-64 0 -85 5 -85 45v410c0 35 13 40 45 40h235c30 0 40 -14 40 -74s-10 -74 -40 -74h-110v-302
c0 -40 -21 -45 -85 -45z" />
    <glyph glyph-name="afii10101" unicode="&#x454;" horiz-adv-x="474" 
d="M276 -10c-164 0 -246 31 -246 255c0 225 58 260 228 260c52 0 125 -10 151 -19c19 -7 29 -19 29 -68c0 -48 -9 -68 -27 -68c-23 0 -66 11 -124 11c-74 0 -95 -2 -99 -56h155c35 0 40 -13 40 -58s-5 -58 -40 -58h-153c9 -49 34 -55 105 -55c79 0 104 11 127 11
c18 0 27 -20 27 -68c0 -49 -10 -62 -29 -68c-35 -12 -102 -19 -144 -19z" />
    <glyph glyph-name="afii10102" unicode="&#x455;" horiz-adv-x="451" 
d="M206 -10c-45 0 -112 7 -147 18c-19 6 -29 20 -29 69c0 48 9 68 27 68c13 0 69 -11 127 -11c51 0 65 7 65 22c0 12 -7 17 -22 23l-93 40c-48 21 -83 63 -83 134c0 124 104 152 185 152c45 0 113 -7 151 -17c19 -5 29 -15 29 -73c0 -61 -19 -65 -30 -65
c-16 0 -60 13 -112 13c-35 0 -51 -6 -51 -17c0 -7 5 -12 21 -19l90 -35c69 -27 87 -68 87 -132c0 -134 -104 -170 -215 -170z" />
    <glyph glyph-name="afii10103" unicode="&#x456;" horiz-adv-x="245" 
d="M120 0c-64 0 -85 5 -85 45v405c0 40 21 45 85 45s85 -5 85 -45v-405c0 -40 -21 -45 -85 -45zM120 528c-84 0 -90 12 -90 62v8c0 50 6 62 90 62s90 -12 90 -62v-8c0 -50 -6 -62 -90 -62z" />
    <glyph glyph-name="afii10104" unicode="&#x457;" horiz-adv-x="245" 
d="M120 0c-64 0 -85 5 -85 45v405c0 40 21 45 85 45s85 -5 85 -45v-405c0 -40 -21 -45 -85 -45zM23 528c-76 0 -85 12 -85 62v8c0 50 9 62 85 62s85 -12 85 -62v-8c0 -50 -9 -62 -85 -62zM223 528c-76 0 -85 12 -85 62v8c0 50 9 62 85 62s85 -12 85 -62v-8
c0 -50 -9 -62 -85 -62z" />
    <glyph glyph-name="afii10105" unicode="&#x458;" horiz-adv-x="245" 
d="M120 495c64 0 85 -5 85 -45v-518c0 -104 -58 -132 -131 -132c-39 0 -72 5 -100 13c-24 6 -34 19 -34 71c0 61 11 64 27 64c11 0 31 -3 43 -3c18 0 25 5 25 23v482c0 40 21 45 85 45zM120 528c-84 0 -90 12 -90 62v8c0 50 6 62 90 62s90 -12 90 -62v-8
c0 -50 -6 -62 -90 -62z" />
    <glyph glyph-name="afii10106" unicode="&#x459;" horiz-adv-x="752" 
d="M119 -5c-29 0 -52 1 -82 7c-24 5 -32 20 -32 81c0 55 11 57 25 57c10 0 15 -2 25 -2c15 0 24 3 29 33l42 279c6 40 19 45 57 45h257c32 0 45 -5 45 -40v-108h46c161 0 203 -31 203 -167c0 -169 -82 -185 -228 -185c-61 0 -116 5 -152 10c-34 5 -39 9 -39 42v307h-47
l-39 -271c-10 -69 -47 -88 -110 -88zM523 217h-38v-83c3 0 13 -2 36 -2c32 0 44 8 44 42s-10 43 -42 43z" />
    <glyph glyph-name="afii10107" unicode="&#x45a;" horiz-adv-x="737" 
d="M125 0c-64 0 -85 5 -85 45v405c0 40 21 45 85 45s85 -5 85 -45v-128h90v128c0 40 21 45 85 45s85 -5 85 -45v-103h46c161 0 203 -31 203 -167c0 -169 -82 -185 -228 -185c-61 0 -116 5 -152 10c-34 5 -39 9 -39 42v137h-90v-139c0 -40 -21 -45 -85 -45zM508 217h-38v-83
c3 0 13 -2 36 -2c32 0 44 8 44 42s-10 43 -42 43z" />
    <glyph glyph-name="afii10108" unicode="&#x45b;" horiz-adv-x="515" 
d="M-4 551c0 37 4 46 35 46h4v18c0 40 21 45 85 45s85 -5 85 -45v-18h106c31 0 35 -9 35 -46s-4 -46 -35 -46h-106v-90c25 35 66 56 131 56c104 0 139 -39 139 -148v-278c0 -40 -21 -45 -85 -45s-85 5 -85 45v236c0 32 -8 45 -34 45c-50 0 -66 -37 -66 -152v-129
c0 -40 -21 -45 -85 -45s-85 5 -85 45v460h-4c-31 0 -35 9 -35 46z" />
    <glyph glyph-name="afii10109" unicode="&#x45c;" horiz-adv-x="502" 
d="M216 538c-51 0 -66 9 -66 30c0 13 4 37 7 49l11 49c11 47 19 59 99 59c73 0 85 -10 85 -32c0 -16 -9 -39 -19 -62l-22 -49c-13 -30 -25 -44 -95 -44zM125 0c-64 0 -85 5 -85 45v405c0 40 21 45 85 45s85 -5 85 -45v-141h14l65 145c16 36 31 41 106 41c64 0 83 -8 83 -27
c0 -14 -6 -30 -13 -43l-91 -166l105 -189c9 -15 13 -23 13 -36c0 -22 -25 -34 -89 -34s-83 5 -100 41l-79 167h-14v-163c0 -40 -21 -45 -85 -45z" />
    <glyph glyph-name="afii10110" unicode="&#x45e;" horiz-adv-x="499" 
d="M10 454c0 23 8 41 88 41c71 0 87 -7 92 -44l46 -314h14l58 314c7 37 21 44 91 44c77 0 90 -13 90 -40c0 -14 -4 -35 -23 -111l-93 -362c-38 -146 -75 -182 -209 -182c-42 0 -93 7 -124 19c-20 8 -29 19 -29 68c0 48 9 68 27 68c13 0 48 -11 107 -11c63 0 72 12 78 42
l2 14h-14c-88 0 -104 17 -114 60l-64 275c-20 85 -23 106 -23 119zM249 538c-102 0 -153 31 -153 141c0 40 11 45 55 45s52 -5 56 -32c3 -23 6 -32 42 -32s39 9 42 32c4 27 12 32 56 32s55 -5 55 -45c0 -110 -51 -141 -153 -141z" />
    <glyph glyph-name="afii10193" unicode="&#x45f;" horiz-adv-x="510" 
d="M255 -100c-49 0 -52 5 -55 45l-4 55h-111c-32 0 -45 5 -45 40v410c0 40 21 45 85 45s85 -5 85 -45v-312h90v312c0 40 21 45 85 45s85 -5 85 -45v-410c0 -35 -13 -40 -45 -40h-111l-4 -55c-3 -40 -6 -45 -55 -45z" />
    <glyph glyph-name="afii10050" unicode="&#x490;" horiz-adv-x="410" 
d="M335 730c49 0 65 -5 65 -45v-158c0 -40 -15 -45 -60 -45h-130v-437c0 -40 -21 -45 -85 -45s-85 5 -85 45v545c0 35 13 40 45 40h157l20 55c14 37 22 45 73 45z" />
    <glyph glyph-name="afii10098" unicode="&#x491;" horiz-adv-x="370" 
d="M295 595c49 0 65 -5 65 -45v-158c0 -40 -15 -45 -60 -45h-90v-302c0 -40 -21 -45 -85 -45s-85 5 -85 45v410c0 35 13 40 45 40h117l20 55c14 37 22 45 73 45z" />
    <glyph glyph-name="Wgrave" unicode="&#x1e80;" horiz-adv-x="814" 
d="M217 0c-91 0 -132 8 -140 70l-63 470c-2 19 -4 39 -4 51c0 28 8 39 81 39c75 0 94 -7 98 -50l37 -424h11l67 414c7 43 35 50 103 50s96 -7 103 -50l67 -414h11l37 424c4 43 23 50 98 50c73 0 81 -11 81 -39c0 -12 -2 -32 -4 -51l-63 -470c-8 -62 -49 -70 -140 -70
c-89 0 -132 13 -141 74l-44 297h-10l-44 -297c-9 -61 -52 -74 -141 -74zM422 673c-70 0 -82 14 -95 44l-22 49c-10 23 -19 46 -19 62c0 22 12 32 85 32c80 0 88 -12 99 -59l11 -49c3 -12 7 -36 7 -49c0 -21 -15 -30 -66 -30z" />
    <glyph glyph-name="wgrave" unicode="&#x1e81;" horiz-adv-x="726" 
d="M193 0c-99 0 -123 12 -130 60l-48 335c-3 23 -5 43 -5 53c0 37 8 47 85 47c74 0 88 -7 91 -44l27 -300h13l42 292c5 35 30 42 95 42s90 -7 95 -42l42 -292h13l27 300c3 37 17 44 91 44c77 0 85 -10 85 -47c0 -10 -2 -30 -5 -53l-48 -335c-7 -48 -31 -60 -130 -60
c-104 0 -135 13 -142 60l-23 164h-10l-23 -164c-7 -47 -38 -60 -142 -60zM391 538c-70 0 -82 14 -95 44l-22 49c-10 23 -19 46 -19 62c0 22 12 32 85 32c80 0 88 -12 99 -59l11 -49c3 -12 7 -36 7 -49c0 -21 -15 -30 -66 -30z" />
    <glyph glyph-name="Wacute" unicode="&#x1e82;" horiz-adv-x="814" 
d="M217 0c-91 0 -132 8 -140 70l-63 470c-2 19 -4 39 -4 51c0 28 8 39 81 39c75 0 94 -7 98 -50l37 -424h11l67 414c7 43 35 50 103 50s96 -7 103 -50l67 -414h11l37 424c4 43 23 50 98 50c73 0 81 -11 81 -39c0 -12 -2 -32 -4 -51l-63 -470c-8 -62 -49 -70 -140 -70
c-89 0 -132 13 -141 74l-44 297h-10l-44 -297c-9 -61 -52 -74 -141 -74zM392 673c-51 0 -66 9 -66 30c0 13 4 37 7 49l11 49c11 47 19 59 99 59c73 0 85 -10 85 -32c0 -16 -9 -39 -19 -62l-22 -49c-13 -30 -25 -44 -95 -44z" />
    <glyph glyph-name="wacute" unicode="&#x1e83;" horiz-adv-x="726" 
d="M193 0c-99 0 -123 12 -130 60l-48 335c-3 23 -5 43 -5 53c0 37 8 47 85 47c74 0 88 -7 91 -44l27 -300h13l42 292c5 35 30 42 95 42s90 -7 95 -42l42 -292h13l27 300c3 37 17 44 91 44c77 0 85 -10 85 -47c0 -10 -2 -30 -5 -53l-48 -335c-7 -48 -31 -60 -130 -60
c-104 0 -135 13 -142 60l-23 164h-10l-23 -164c-7 -47 -38 -60 -142 -60zM335 538c-51 0 -66 9 -66 30c0 13 4 37 7 49l11 49c11 47 19 59 99 59c73 0 85 -10 85 -32c0 -16 -9 -39 -19 -62l-22 -49c-13 -30 -25 -44 -95 -44z" />
    <glyph glyph-name="Wdieresis" unicode="&#x1e84;" horiz-adv-x="814" 
d="M217 0c-91 0 -132 8 -140 70l-63 470c-2 19 -4 39 -4 51c0 28 8 39 81 39c75 0 94 -7 98 -50l37 -424h11l67 414c7 43 35 50 103 50s96 -7 103 -50l67 -414h11l37 424c4 43 23 50 98 50c73 0 81 -11 81 -39c0 -12 -2 -32 -4 -51l-63 -470c-8 -62 -49 -70 -140 -70
c-89 0 -132 13 -141 74l-44 297h-10l-44 -297c-9 -61 -52 -74 -141 -74zM307 668c-76 0 -85 12 -85 62v8c0 50 9 62 85 62s85 -12 85 -62v-8c0 -50 -9 -62 -85 -62zM507 668c-76 0 -85 12 -85 62v8c0 50 9 62 85 62s85 -12 85 -62v-8c0 -50 -9 -62 -85 -62z" />
    <glyph glyph-name="wdieresis" unicode="&#x1e85;" horiz-adv-x="726" 
d="M193 0c-99 0 -123 12 -130 60l-48 335c-3 23 -5 43 -5 53c0 37 8 47 85 47c74 0 88 -7 91 -44l27 -300h13l42 292c5 35 30 42 95 42s90 -7 95 -42l42 -292h13l27 300c3 37 17 44 91 44c77 0 85 -10 85 -47c0 -10 -2 -30 -5 -53l-48 -335c-7 -48 -31 -60 -130 -60
c-104 0 -135 13 -142 60l-23 164h-10l-23 -164c-7 -47 -38 -60 -142 -60zM263 528c-76 0 -85 12 -85 62v8c0 50 9 62 85 62s85 -12 85 -62v-8c0 -50 -9 -62 -85 -62zM463 528c-76 0 -85 12 -85 62v8c0 50 9 62 85 62s85 -12 85 -62v-8c0 -50 -9 -62 -85 -62z" />
    <glyph glyph-name="Eszett" unicode="&#x1e9e;" horiz-adv-x="515" 
d="M108 0c-64 0 -85 5 -85 45v390c0 145 57 200 228 200c46 0 111 -11 148 -23c43 -14 70 -28 70 -63c0 -21 -7 -43 -17 -68l-50 -119l37 -49c45 -60 66 -91 66 -162c0 -109 -56 -151 -157 -151c-34 0 -69 4 -92 10c-24 6 -32 18 -32 79c0 55 8 64 25 64s28 -3 48 -3
s31 6 31 24c0 15 -9 29 -23 47l-41 51c-15 19 -23 37 -23 58c0 14 3 32 10 50l43 110c-11 3 -32 5 -47 5c-46 0 -54 -13 -54 -50v-400c0 -40 -21 -45 -85 -45z" />
    <glyph glyph-name="Ygrave" unicode="&#x1ef2;" horiz-adv-x="506" 
d="M253 0c-64 0 -85 5 -85 45v170l-136 307c-19 44 -23 60 -23 70c0 17 8 38 72 38c87 0 99 -8 112 -50l57 -192h6l57 192c13 42 22 50 107 50c69 0 77 -19 77 -36c0 -10 -4 -28 -23 -72l-136 -307v-170c0 -40 -21 -45 -85 -45zM268 673c-70 0 -82 14 -95 44l-22 49
c-10 23 -19 46 -19 62c0 22 12 32 85 32c80 0 88 -12 99 -59l11 -49c3 -12 7 -36 7 -49c0 -21 -15 -30 -66 -30z" />
    <glyph glyph-name="ygrave" unicode="&#x1ef3;" horiz-adv-x="499" 
d="M10 454c0 23 8 41 88 41c71 0 87 -7 92 -44l46 -314h14l58 314c7 37 21 44 91 44c77 0 90 -13 90 -40c0 -14 -4 -35 -23 -111l-93 -362c-38 -146 -75 -182 -209 -182c-42 0 -93 7 -124 19c-20 8 -29 19 -29 68c0 48 9 68 27 68c13 0 48 -11 107 -11c63 0 72 12 78 42
l2 14h-14c-88 0 -104 17 -114 60l-64 275c-20 85 -23 106 -23 119zM269 538c-70 0 -82 14 -95 44l-22 49c-10 23 -19 46 -19 62c0 22 12 32 85 32c80 0 88 -12 99 -59l11 -49c3 -12 7 -36 7 -49c0 -21 -15 -30 -66 -30z" />
    <glyph glyph-name="endash" unicode="&#x2013;" horiz-adv-x="428" 
d="M20 247c0 60 5 73 40 73h308c35 0 40 -13 40 -73s-5 -73 -40 -73h-308c-35 0 -40 13 -40 73z" />
    <glyph glyph-name="emdash" unicode="&#x2014;" horiz-adv-x="678" 
d="M20 247c0 60 5 73 40 73h558c35 0 40 -13 40 -73s-5 -73 -40 -73h-558c-35 0 -40 13 -40 73z" />
    <glyph glyph-name="afii00208" unicode="&#x2015;" horiz-adv-x="678" 
d="M20 247c0 60 5 73 40 73h558c35 0 40 -13 40 -73s-5 -73 -40 -73h-558c-35 0 -40 13 -40 73z" />
    <glyph glyph-name="quoteleft" unicode="&#x2018;" horiz-adv-x="207" 
d="M95 365c-73 0 -85 10 -85 61v26c0 41 9 74 24 112l13 32c23 56 35 64 96 64c41 0 49 -11 49 -29c0 -24 -12 -86 -12 -127v-78c0 -51 -12 -61 -85 -61z" />
    <glyph glyph-name="quoteright" unicode="&#x2019;" horiz-adv-x="207" 
d="M112 660c73 0 85 -10 85 -61v-26c0 -41 -9 -74 -24 -112l-13 -32c-23 -56 -35 -64 -96 -64c-41 0 -49 11 -49 29c0 24 12 86 12 127v78c0 51 12 61 85 61z" />
    <glyph glyph-name="quotesinglbase" unicode="&#x201a;" horiz-adv-x="207" 
d="M112 167c73 0 85 -10 85 -61v-27c0 -41 -9 -74 -24 -112l-13 -32c-23 -56 -35 -64 -96 -64c-41 0 -49 11 -49 29c0 24 12 86 12 127v79c0 51 12 61 85 61z" />
    <glyph glyph-name="quotedblleft" unicode="&#x201c;" horiz-adv-x="412" 
d="M95 365c-73 0 -85 10 -85 61v26c0 41 9 74 24 112l13 32c23 56 35 64 96 64c41 0 49 -11 49 -29c0 -24 -12 -86 -12 -127v-78c0 -51 -12 -61 -85 -61zM300 365c-73 0 -85 10 -85 61v26c0 41 9 74 24 112l13 32c23 56 35 64 96 64c41 0 49 -11 49 -29
c0 -24 -12 -86 -12 -127v-78c0 -51 -12 -61 -85 -61z" />
    <glyph glyph-name="quotedblright" unicode="&#x201d;" horiz-adv-x="412" 
d="M317 660c73 0 85 -10 85 -61v-26c0 -41 -9 -74 -24 -112l-13 -32c-23 -56 -35 -64 -96 -64c-41 0 -49 11 -49 29c0 24 12 86 12 127v78c0 51 12 61 85 61zM112 660c73 0 85 -10 85 -61v-26c0 -41 -9 -74 -24 -112l-13 -32c-23 -56 -35 -64 -96 -64c-41 0 -49 11 -49 29
c0 24 12 86 12 127v78c0 51 12 61 85 61z" />
    <glyph glyph-name="quotedblbase" unicode="&#x201e;" horiz-adv-x="412" 
d="M112 167c73 0 85 -10 85 -61v-27c0 -41 -9 -74 -24 -112l-13 -32c-23 -56 -35 -64 -96 -64c-41 0 -49 11 -49 29c0 24 12 86 12 127v79c0 51 12 61 85 61zM317 167c73 0 85 -10 85 -61v-27c0 -41 -9 -74 -24 -112l-13 -32c-23 -56 -35 -64 -96 -64c-41 0 -49 11 -49 29
c0 24 12 86 12 127v79c0 51 12 61 85 61z" />
    <glyph glyph-name="dagger" unicode="&#x2020;" horiz-adv-x="460" 
d="M230 -189c-60 0 -83 5 -83 40v443h-87c-35 0 -40 13 -40 73s5 73 40 73h87v110c0 35 23 40 83 40s83 -5 83 -40v-110h87c35 0 40 -13 40 -73s-5 -73 -40 -73h-87v-443c0 -35 -23 -40 -83 -40z" />
    <glyph glyph-name="daggerdbl" unicode="&#x2021;" horiz-adv-x="460" 
d="M230 -189c-60 0 -83 5 -83 40v110h-87c-35 0 -40 13 -40 73s5 73 40 73h87v187h-87c-35 0 -40 13 -40 73s5 73 40 73h87v110c0 35 23 40 83 40s83 -5 83 -40v-110h87c35 0 40 -13 40 -73s-5 -73 -40 -73h-87v-187h87c35 0 40 -13 40 -73s-5 -73 -40 -73h-87v-110
c0 -35 -23 -40 -83 -40z" />
    <glyph glyph-name="bullet" unicode="&#x2022;" horiz-adv-x="378" 
d="M189 102c-120 0 -159 34 -159 164c0 136 39 161 159 161s159 -25 159 -161c0 -130 -39 -164 -159 -164z" />
    <glyph glyph-name="ellipsis" unicode="&#x2026;" horiz-adv-x="633" 
d="M107 0c-73 0 -85 10 -85 61v45c0 51 12 61 85 61s85 -10 85 -61v-45c0 -51 -12 -61 -85 -61zM318 0c-73 0 -85 10 -85 61v45c0 51 12 61 85 61s85 -10 85 -61v-45c0 -51 -12 -61 -85 -61zM529 0c-73 0 -85 10 -85 61v45c0 51 12 61 85 61s85 -10 85 -61v-45
c0 -51 -12 -61 -85 -61z" />
    <glyph glyph-name="perthousand" unicode="&#x2030;" horiz-adv-x="872" 
d="M157 317c-108 0 -137 27 -137 158c0 133 39 155 137 155c99 0 138 -22 138 -155v-18l82 143c12 22 26 30 89 30c40 0 58 -6 58 -21c0 -10 -2 -17 -18 -45l-147 -255c16 3 34 4 55 4c99 0 138 -22 138 -155c0 -131 -29 -158 -138 -158c-108 0 -137 27 -137 158v7l-78 -135
c-12 -22 -26 -30 -89 -30c-40 0 -58 6 -58 21c0 10 2 17 18 45l147 255c-17 -3 -37 -4 -60 -4zM714 0c-108 0 -137 27 -137 158c0 133 39 155 137 155c99 0 138 -22 138 -155c0 -131 -29 -158 -138 -158zM414 94c25 0 29 9 29 62c0 54 -3 62 -29 62c-25 0 -28 -8 -28 -62
c0 -53 4 -62 28 -62zM157 411c25 0 29 9 29 62c0 54 -3 62 -29 62c-25 0 -28 -8 -28 -62c0 -53 4 -62 28 -62zM714 94c25 0 29 9 29 62c0 54 -3 62 -29 62c-25 0 -28 -8 -28 -62c0 -53 4 -62 28 -62z" />
    <glyph glyph-name="guilsinglleft" unicode="&#x2039;" horiz-adv-x="325" 
d="M181 255v-8l87 -66c30 -23 37 -30 37 -102c0 -43 -12 -51 -29 -51c-8 0 -17 3 -25 7l-171 95c-41 23 -60 37 -60 121s19 98 60 121l171 95c8 4 17 7 25 7c17 0 29 -8 29 -51c0 -72 -7 -79 -37 -102z" />
    <glyph glyph-name="guilsinglright" unicode="&#x203a;" horiz-adv-x="325" 
d="M305 251c0 -84 -19 -98 -60 -121l-171 -95c-8 -4 -17 -7 -25 -7c-17 0 -29 8 -29 51c0 72 7 79 37 102l87 66v8l-87 66c-30 23 -37 30 -37 102c0 43 12 51 29 51c8 0 17 -3 25 -7l171 -95c41 -23 60 -37 60 -121z" />
    <glyph glyph-name="fraction" unicode="&#x2044;" 
d="M344 644c45 0 55 -6 55 -21c0 -10 -2 -22 -10 -45l-192 -539c-10 -28 -22 -39 -75 -39c-45 0 -55 6 -55 21c0 10 2 22 10 45l192 539c10 28 22 39 75 39z" />
    <glyph glyph-name="Euro" unicode="&#x20ac;" 
d="M359 283c0 -10 -10 -45 -17 -65c-5 -15 -13 -17 -22 -17h-89c2 -51 22 -56 79 -56c63 0 90 11 113 11c17 0 22 -7 22 -66c0 -61 -8 -71 -24 -76c-38 -11 -93 -19 -158 -19c-92 0 -183 27 -192 206h-35c-12 0 -17 5 -17 14c0 10 10 45 17 65c5 15 13 17 22 17h13v34h-35
c-12 0 -17 5 -17 14c0 10 10 45 17 65c5 15 13 17 22 17h14c11 190 113 208 195 208c58 0 116 -8 154 -19c16 -5 24 -12 24 -76c0 -58 -9 -66 -22 -66c-18 0 -54 11 -113 11c-58 0 -76 -13 -79 -58h133c12 0 17 -5 17 -14c0 -10 -10 -45 -17 -65c-5 -15 -13 -17 -22 -17
h-111v-34h111c12 0 17 -5 17 -14z" />
    <glyph glyph-name="hryvnia" unicode="&#x20b4;" 
d="M34 379c0 43 7 48 36 48h170c10 10 14 25 14 37c0 17 -13 21 -51 21c-45 0 -106 -9 -124 -9c-15 0 -26 14 -26 66c0 64 8 72 30 78c35 9 116 15 165 15c109 0 154 -28 154 -121c0 -31 -10 -60 -24 -87h6c29 0 36 -5 36 -48s-7 -48 -36 -48h-73l-20 -24h93
c29 0 36 -5 36 -48s-7 -48 -36 -48h-171c-17 -18 -18 -34 -18 -42c0 -15 11 -24 76 -24c59 0 102 9 125 9c17 0 25 -9 25 -64c0 -61 -8 -72 -34 -79c-31 -9 -84 -16 -154 -16c-135 0 -185 39 -185 143c0 26 8 50 20 73c-27 0 -34 6 -34 48c0 43 7 48 36 48h69l20 24h-89
c-29 0 -36 5 -36 48z" />
    <glyph glyph-name="afii61352" unicode="&#x2116;" horiz-adv-x="914" 
d="M571 117c0 60 5 73 40 73h229c35 0 40 -13 40 -73s-5 -73 -40 -73h-229c-35 0 -40 13 -40 73zM720 240c-119 0 -162 35 -162 196c0 172 48 199 174 199c118 0 162 -30 162 -191c0 -173 -48 -204 -174 -204zM723 348c36 0 37 15 37 90c0 82 -6 90 -33 90
c-35 0 -36 -12 -36 -87c0 -82 5 -93 32 -93zM105 0c-64 0 -85 5 -85 45v540c0 40 21 45 85 45c40 0 67 -3 89 -43l135 -253h8v251c0 40 21 45 85 45s85 -5 85 -45v-540c0 -40 -17 -45 -81 -45c-40 0 -57 3 -80 42l-148 254h-8v-251c0 -40 -21 -45 -85 -45z" />
    <glyph glyph-name="trademark" unicode="&#x2122;" horiz-adv-x="924" 
d="M199 230c-64 0 -75 5 -75 45v227h-64c-30 0 -40 4 -40 64s10 64 40 64h278c30 0 40 -4 40 -64s-10 -64 -40 -64h-64v-227c0 -40 -11 -45 -75 -45zM493 230c-64 0 -75 5 -75 45v297c0 49 13 58 100 58c75 0 95 -6 115 -60l28 -74l28 74c21 56 40 60 115 60
c87 0 100 -9 100 -58v-297c0 -40 -11 -45 -75 -45s-75 5 -75 45c0 49 2 99 3 148h-7l-21 -47c-19 -42 -23 -52 -68 -52s-49 10 -68 52l-21 47h-7c1 -49 3 -99 3 -148c0 -40 -11 -45 -75 -45z" />
    <glyph glyph-name="minus" unicode="&#x2212;" 
d="M65 247c0 60 5 73 40 73h260c35 0 40 -13 40 -73s-5 -73 -40 -73h-260c-35 0 -40 13 -40 73z" />
    <glyph glyph-name="ruble" 
d="M153 0c-64 0 -85 5 -85 45v86h-19c-29 0 -36 5 -36 48s7 48 36 48h19v37h-19c-29 0 -36 5 -36 48s7 48 36 48h19v216c0 39 9 46 42 50c42 5 91 9 166 9c137 0 181 -32 181 -170c0 -174 -63 -201 -219 -201v-37h126c29 0 36 -5 36 -48s-7 -48 -36 -48h-126v-86
c0 -40 -21 -45 -85 -45zM238 515v-155c51 0 60 25 60 86c0 58 -8 71 -35 71c-9 0 -17 -1 -25 -2z" />
    </font>
</defs>
</svg>
